<svg width="32" height="28" viewBox="0 0 32 28" fill="none" xmlns="http://www.w3.org/2000/svg">
<path d="M12.1682 10.812L12.1263 10.8007L12.1179 10.7979L12.0984 10.7894L12.0732 10.764L12.0452 10.7358L11.5814 10.2727L11.2573 9.94514C11.154 9.84348 11.2154 9.66841 11.3607 9.65429L11.8189 9.61759L12.5035 9.56394H12.5565L12.5761 9.56111H12.6013L12.6348 9.57241H12.6432L12.6935 9.59782L14.5934 10.4732C13.283 9.47923 12.238 8.59822 11.9866 8.39492C11.506 8.00242 11.3663 8.17184 10.9975 8.91448C10.5057 10.1033 9.99722 11.4219 10.0391 12.879C10.0363 13.2884 10.3716 13.1105 10.6426 13.1021C10.9136 13.0851 15.5462 13.4522 17.2729 13.0145C17.326 13.0032 17.3763 12.9891 17.4182 12.9778L12.1654 10.8205L12.1682 10.812ZM12.1682 10.812L12.1263 10.8007L12.1179 10.7979L12.0984 10.7894L12.0732 10.764L12.0452 10.7358L11.5814 10.2727L11.2573 9.94514C11.154 9.84348 11.2154 9.66841 11.3607 9.65429L11.8189 9.61759L12.5035 9.56394H12.5565L12.5761 9.56111H12.6013L12.6348 9.57241H12.6432L12.6935 9.59782L14.5934 10.4732C13.283 9.47923 12.238 8.59822 11.9866 8.39492C11.506 8.00242 11.3663 8.17184 10.9975 8.91448C10.5057 10.1033 9.99722 11.4219 10.0391 12.879C10.0363 13.2884 10.3716 13.1105 10.6426 13.1021C10.9136 13.0851 15.5462 13.4522 17.2729 13.0145C17.326 13.0032 17.3763 12.9891 17.4182 12.9778L12.1654 10.8205L12.1682 10.812ZM17.6697 13.1472C17.5579 13.1585 17.4015 13.1981 17.2143 13.2404C14.4984 13.8165 11.2154 14.0875 10.6929 14.1384C10.0754 14.1977 10.0894 14.4151 10.3437 15.2057C10.8159 16.403 11.3663 17.7047 12.4029 18.7213C12.6851 19.0149 12.808 18.6507 12.9896 18.4474C13.1741 18.2497 16.7337 15.2311 17.6669 13.6979C17.6948 13.647 17.7256 13.6019 17.7451 13.5595L17.7563 13.2856C17.7228 13.2432 17.6893 13.1981 17.6641 13.1501L17.6697 13.1472ZM17.9351 11.7749C17.3595 9.03025 17.0857 5.70674 17.0354 5.18152C16.9768 4.56313 16.7616 4.57443 15.9793 4.83138C14.7946 5.31142 13.5066 5.86769 12.5091 6.92094C12.2129 7.20613 12.5761 7.32473 12.7773 7.51109C12.9282 7.6551 14.736 9.8209 16.2559 11.2356L17.991 12.0375C17.9743 11.9613 17.9575 11.8737 17.9379 11.7749H17.9351ZM18.4912 19.1618L18.3207 19.3171L18.1587 19.4724C18.0916 19.5317 17.9966 19.526 17.9324 19.4611L17.7815 19.2973L17.6138 19.1109L17.5523 19.0403L17.5077 18.9952V18.9274L17.516 18.8342L17.734 13.9915C16.2028 16.3042 14.1017 18.7777 13.772 19.1787C13.3752 19.6559 13.5345 19.8027 14.2638 20.1868C15.4317 20.7007 16.7281 21.2372 18.1698 21.2202C18.5778 21.2287 18.4129 20.8871 18.3989 20.6131C18.3989 20.52 18.4437 19.9524 18.4912 19.1646V19.1618ZM22.3302 5.55426C21.1623 5.03469 19.8658 4.50101 18.4241 4.52077C18.0162 4.5123 18.181 4.8568 18.195 5.1307C18.2034 5.40177 17.7731 10.0779 18.1782 11.8314C18.1894 11.8822 18.2034 11.9274 18.2145 11.9697C18.2257 11.9669 18.2425 11.9669 18.2564 11.9669C18.29 11.9641 18.3235 11.9585 18.357 11.9585C18.4744 11.9585 18.5862 11.9839 18.6895 12.0347C18.7259 11.9754 18.7678 11.9076 18.8153 11.837C20.3464 9.49334 22.4922 6.96047 22.8275 6.55668C23.2243 6.07664 23.0623 5.93263 22.3302 5.55426ZM23.7524 18.3062C23.5596 18.117 20.6175 14.48 19.1114 13.5228C19.0165 13.4607 18.9354 13.4183 18.8684 13.3844L18.8069 14.8217C19.2372 17.3659 19.4244 20.1021 19.4607 20.5793C19.5138 21.1977 19.7317 21.1892 20.5113 20.9407C21.7043 20.4804 23.0008 19.9411 24.015 18.902C24.3112 18.6196 23.9536 18.4982 23.7524 18.309V18.3062ZM26.2698 10.5692C25.8032 9.3691 25.2556 8.06737 24.2218 7.05083C23.9396 6.75151 23.8166 7.11295 23.635 7.31626C23.4506 7.51392 19.9525 10.4562 18.9689 11.998L23.6462 11.1311L23.6993 11.1226L23.7775 11.1057L23.8949 11.1678L24.7359 11.6281L24.8477 11.6902C24.8896 11.71 24.9343 11.7184 24.9846 11.7156C25.4428 11.6733 25.7781 11.6478 25.915 11.6365C26.5269 11.5772 26.5157 11.3598 26.2642 10.5692H26.2698ZM25.9625 12.8649C25.9457 12.8649 25.9094 12.8649 25.8507 12.8564C25.806 12.8564 25.7418 12.8536 25.6719 12.8451C25.5099 12.8338 25.2807 12.8169 25.0097 12.7943C24.965 12.7914 24.9175 12.7858 24.8728 12.783C24.7387 12.7745 24.5906 12.7632 24.4341 12.7491H24.423C24.395 12.7463 24.3615 12.7463 24.3307 12.7406L24.2889 12.7858C24.2889 12.7858 24.2637 12.8056 24.2553 12.814L24.205 12.8649L24.1687 12.9016H24.1659L24.1072 12.9609L24.029 12.9693H23.9703L19.212 13.328C19.2456 13.3534 19.2819 13.3788 19.321 13.4042C21.6177 14.9798 24.0961 17.1852 24.49 17.524C24.9622 17.9278 25.1075 17.7725 25.4903 17.0383C26.0156 15.8637 26.566 14.5619 26.5632 13.1021C26.58 12.6898 26.2391 12.8564 25.9681 12.862L25.9625 12.8649ZM25.9625 12.8649C25.9457 12.8649 25.9094 12.8649 25.8507 12.8564C25.806 12.8564 25.7418 12.8536 25.6719 12.8451C25.5099 12.8338 25.2807 12.8169 25.0097 12.7943C24.965 12.7914 24.9175 12.7858 24.8728 12.783C24.7387 12.7745 24.5906 12.7632 24.4341 12.7491H24.423C24.395 12.7463 24.3615 12.7463 24.3307 12.7406L24.2889 12.7858C24.2889 12.7858 24.2637 12.8056 24.2553 12.814L24.205 12.8649L24.1687 12.9016H24.1659L24.1072 12.9609L24.029 12.9693H23.9703L19.212 13.328C19.2456 13.3534 19.2819 13.3788 19.321 13.4042C21.6177 14.9798 24.0961 17.1852 24.49 17.524C24.9622 17.9278 25.1075 17.7725 25.4903 17.0383C26.0156 15.8637 26.566 14.5619 26.5632 13.1021C26.58 12.6898 26.2391 12.8564 25.9681 12.862L25.9625 12.8649ZM26.2698 10.5692C25.8032 9.3691 25.2556 8.06737 24.2218 7.05083C23.9396 6.75151 23.8166 7.11295 23.635 7.31626C23.4506 7.51392 19.9525 10.4562 18.9689 11.998L23.6462 11.1311L23.6993 11.1226L23.7775 11.1057L23.8949 11.1678L24.7359 11.6281L24.8477 11.6902C24.8896 11.71 24.9343 11.7184 24.9846 11.7156C25.4428 11.6733 25.7781 11.6478 25.915 11.6365C26.5269 11.5772 26.5157 11.3598 26.2642 10.5692H26.2698ZM23.7524 18.3062C23.5596 18.117 20.6175 14.48 19.1114 13.5228C19.0165 13.4607 18.9354 13.4183 18.8684 13.3844L18.8069 14.8217C19.2372 17.3659 19.4244 20.1021 19.4607 20.5793C19.5138 21.1977 19.7317 21.1892 20.5113 20.9407C21.7043 20.4804 23.0008 19.9411 24.015 18.902C24.3112 18.6196 23.9536 18.4982 23.7524 18.309V18.3062ZM22.3302 5.55426C21.1623 5.03469 19.8658 4.50101 18.4241 4.52077C18.0162 4.5123 18.181 4.8568 18.195 5.1307C18.2034 5.40177 17.7731 10.0779 18.1782 11.8314C18.1894 11.8822 18.2034 11.9274 18.2145 11.9697C18.2257 11.9669 18.2425 11.9669 18.2564 11.9669C18.29 11.9641 18.3235 11.9585 18.357 11.9585C18.4744 11.9585 18.5862 11.9839 18.6895 12.0347C18.7259 11.9754 18.7678 11.9076 18.8153 11.837C20.3464 9.49334 22.4922 6.96047 22.8275 6.55668C23.2243 6.07664 23.0623 5.93263 22.3302 5.55426ZM18.4912 19.1618L18.3207 19.3171L18.1587 19.4724C18.0916 19.5317 17.9966 19.526 17.9324 19.4611L17.7815 19.2973L17.6138 19.1109L17.5523 19.0403L17.5077 18.9952V18.9274L17.516 18.8342L17.734 13.9915C16.2028 16.3042 14.1017 18.7777 13.772 19.1787C13.3752 19.6559 13.5345 19.8027 14.2638 20.1868C15.4317 20.7007 16.7281 21.2372 18.1698 21.2202C18.5778 21.2287 18.4129 20.8871 18.3989 20.6131C18.3989 20.52 18.4437 19.9524 18.4912 19.1646V19.1618ZM17.9351 11.7749C17.3595 9.03025 17.0857 5.70674 17.0354 5.18152C16.9768 4.56313 16.7616 4.57443 15.9793 4.83138C14.7946 5.31142 13.5066 5.86769 12.5091 6.92094C12.2129 7.20613 12.5761 7.32473 12.7773 7.51109C12.9282 7.6551 14.736 9.8209 16.2559 11.2356L17.991 12.0375C17.9743 11.9613 17.9575 11.8737 17.9379 11.7749H17.9351ZM17.6697 13.1472C17.5579 13.1585 17.4015 13.1981 17.2143 13.2404C14.4984 13.8165 11.2154 14.0875 10.6929 14.1384C10.0754 14.1977 10.0894 14.4151 10.3437 15.2057C10.8159 16.403 11.3663 17.7047 12.4029 18.7213C12.6851 19.0149 12.808 18.6507 12.9896 18.4474C13.1741 18.2497 16.7337 15.2311 17.6669 13.6979C17.6948 13.647 17.7256 13.6019 17.7451 13.5595L17.7563 13.2856C17.7228 13.2432 17.6893 13.1981 17.6641 13.1501L17.6697 13.1472ZM12.1682 10.812L12.1263 10.8007L12.1179 10.7979L12.0984 10.7894L12.0732 10.764L12.0452 10.7358L11.5814 10.2727L11.2573 9.94514C11.154 9.84348 11.2154 9.66841 11.3607 9.65429L11.8189 9.61759L12.5035 9.56394H12.5565L12.5761 9.56111H12.6013L12.6348 9.57241H12.6432L12.6935 9.59782L14.5934 10.4732C13.283 9.47923 12.238 8.59822 11.9866 8.39492C11.506 8.00242 11.3663 8.17184 10.9975 8.91448C10.5057 10.1033 9.99722 11.4219 10.0391 12.879C10.0363 13.2884 10.3716 13.1105 10.6426 13.1021C10.9136 13.0851 15.5462 13.4522 17.2729 13.0145C17.326 13.0032 17.3763 12.9891 17.4182 12.9778L12.1654 10.8205L12.1682 10.812ZM12.1682 10.812L12.1263 10.8007L12.1179 10.7979L12.0984 10.7894L12.0732 10.764L12.0452 10.7358L11.5814 10.2727L11.2573 9.94514C11.154 9.84348 11.2154 9.66841 11.3607 9.65429L11.8189 9.61759L12.5035 9.56394H12.5565L12.5761 9.56111H12.6013L12.6348 9.57241H12.6432L12.6935 9.59782L14.5934 10.4732C13.283 9.47923 12.238 8.59822 11.9866 8.39492C11.506 8.00242 11.3663 8.17184 10.9975 8.91448C10.5057 10.1033 9.99722 11.4219 10.0391 12.879C10.0363 13.2884 10.3716 13.1105 10.6426 13.1021C10.9136 13.0851 15.5462 13.4522 17.2729 13.0145C17.326 13.0032 17.3763 12.9891 17.4182 12.9778L12.1654 10.8205L12.1682 10.812ZM17.6697 13.1472C17.5579 13.1585 17.4015 13.1981 17.2143 13.2404C14.4984 13.8165 11.2154 14.0875 10.6929 14.1384C10.0754 14.1977 10.0894 14.4151 10.3437 15.2057C10.8159 16.403 11.3663 17.7047 12.4029 18.7213C12.6851 19.0149 12.808 18.6507 12.9896 18.4474C13.1741 18.2497 16.7337 15.2311 17.6669 13.6979C17.6948 13.647 17.7256 13.6019 17.7451 13.5595L17.7563 13.2856C17.7228 13.2432 17.6893 13.1981 17.6641 13.1501L17.6697 13.1472ZM17.9351 11.7749C17.3595 9.03025 17.0857 5.70674 17.0354 5.18152C16.9768 4.56313 16.7616 4.57443 15.9793 4.83138C14.7946 5.31142 13.5066 5.86769 12.5091 6.92094C12.2129 7.20613 12.5761 7.32473 12.7773 7.51109C12.9282 7.6551 14.736 9.8209 16.2559 11.2356L17.991 12.0375C17.9743 11.9613 17.9575 11.8737 17.9379 11.7749H17.9351ZM18.4912 19.1618L18.3207 19.3171L18.1587 19.4724C18.0916 19.5317 17.9966 19.526 17.9324 19.4611L17.7815 19.2973L17.6138 19.1109L17.5523 19.0403L17.5077 18.9952V18.9274L17.516 18.8342L17.734 13.9915C16.2028 16.3042 14.1017 18.7777 13.772 19.1787C13.3752 19.6559 13.5345 19.8027 14.2638 20.1868C15.4317 20.7007 16.7281 21.2372 18.1698 21.2202C18.5778 21.2287 18.4129 20.8871 18.3989 20.6131C18.3989 20.52 18.4437 19.9524 18.4912 19.1646V19.1618ZM22.3302 5.55426C21.1623 5.03469 19.8658 4.50101 18.4241 4.52077C18.0162 4.5123 18.181 4.8568 18.195 5.1307C18.2034 5.40177 17.7731 10.0779 18.1782 11.8314C18.1894 11.8822 18.2034 11.9274 18.2145 11.9697C18.2257 11.9669 18.2425 11.9669 18.2564 11.9669C18.29 11.9641 18.3235 11.9585 18.357 11.9585C18.4744 11.9585 18.5862 11.9839 18.6895 12.0347C18.7259 11.9754 18.7678 11.9076 18.8153 11.837C20.3464 9.49334 22.4922 6.96047 22.8275 6.55668C23.2243 6.07664 23.0623 5.93263 22.3302 5.55426ZM23.7524 18.3062C23.5596 18.117 20.6175 14.48 19.1114 13.5228C19.0165 13.4607 18.9354 13.4183 18.8684 13.3844L18.8069 14.8217C19.2372 17.3659 19.4244 20.1021 19.4607 20.5793C19.5138 21.1977 19.7317 21.1892 20.5113 20.9407C21.7043 20.4804 23.0008 19.9411 24.015 18.902C24.3112 18.6196 23.9536 18.4982 23.7524 18.309V18.3062ZM26.2698 10.5692C25.8032 9.3691 25.2556 8.06737 24.2218 7.05083C23.9396 6.75151 23.8166 7.11295 23.635 7.31626C23.4506 7.51392 19.9525 10.4562 18.9689 11.998L23.6462 11.1311L23.6993 11.1226L23.7775 11.1057L23.8949 11.1678L24.7359 11.6281L24.8477 11.6902C24.8896 11.71 24.9343 11.7184 24.9846 11.7156C25.4428 11.6733 25.7781 11.6478 25.915 11.6365C26.5269 11.5772 26.5157 11.3598 26.2642 10.5692H26.2698ZM25.9625 12.8649C25.9457 12.8649 25.9094 12.8649 25.8507 12.8564C25.806 12.8564 25.7418 12.8536 25.6719 12.8451C25.5099 12.8338 25.2807 12.8169 25.0097 12.7943C24.965 12.7914 24.9175 12.7858 24.8728 12.783C24.7387 12.7745 24.5906 12.7632 24.4341 12.7491H24.423C24.395 12.7463 24.3615 12.7463 24.3307 12.7406L24.2889 12.7858C24.2889 12.7858 24.2637 12.8056 24.2553 12.814L24.205 12.8649L24.1687 12.9016H24.1659L24.1072 12.9609L24.029 12.9693H23.9703L19.212 13.328C19.2456 13.3534 19.2819 13.3788 19.321 13.4042C21.6177 14.9798 24.0961 17.1852 24.49 17.524C24.9622 17.9278 25.1075 17.7725 25.4903 17.0383C26.0156 15.8637 26.566 14.5619 26.5632 13.1021C26.58 12.6898 26.2391 12.8564 25.9681 12.862L25.9625 12.8649ZM25.9625 12.8649C25.9457 12.8649 25.9094 12.8649 25.8507 12.8564C25.806 12.8564 25.7418 12.8536 25.6719 12.8451C25.5099 12.8338 25.2807 12.8169 25.0097 12.7943C24.965 12.7914 24.9175 12.7858 24.8728 12.783C24.7387 12.7745 24.5906 12.7632 24.4341 12.7491H24.423C24.395 12.7463 24.3615 12.7463 24.3307 12.7406L24.2889 12.7858C24.2889 12.7858 24.2637 12.8056 24.2553 12.814L24.205 12.8649L24.1687 12.9016H24.1659L24.1072 12.9609L24.029 12.9693H23.9703L19.212 13.328C19.2456 13.3534 19.2819 13.3788 19.321 13.4042C21.6177 14.9798 24.0961 17.1852 24.49 17.524C24.9622 17.9278 25.1075 17.7725 25.4903 17.0383C26.0156 15.8637 26.566 14.5619 26.5632 13.1021C26.58 12.6898 26.2391 12.8564 25.9681 12.862L25.9625 12.8649ZM26.2698 10.5692C25.8032 9.3691 25.2556 8.06737 24.2218 7.05083C23.9396 6.75151 23.8166 7.11295 23.635 7.31626C23.4506 7.51392 19.9525 10.4562 18.9689 11.998L23.6462 11.1311L23.6993 11.1226L23.7775 11.1057L23.8949 11.1678L24.7359 11.6281L24.8477 11.6902C24.8896 11.71 24.9343 11.7184 24.9846 11.7156C25.4428 11.6733 25.7781 11.6478 25.915 11.6365C26.5269 11.5772 26.5157 11.3598 26.2642 10.5692H26.2698ZM23.7524 18.3062C23.5596 18.117 20.6175 14.48 19.1114 13.5228C19.0165 13.4607 18.9354 13.4183 18.8684 13.3844L18.8069 14.8217C19.2372 17.3659 19.4244 20.1021 19.4607 20.5793C19.5138 21.1977 19.7317 21.1892 20.5113 20.9407C21.7043 20.4804 23.0008 19.9411 24.015 18.902C24.3112 18.6196 23.9536 18.4982 23.7524 18.309V18.3062ZM22.3302 5.55426C21.1623 5.03469 19.8658 4.50101 18.4241 4.52077C18.0162 4.5123 18.181 4.8568 18.195 5.1307C18.2034 5.40177 17.7731 10.0779 18.1782 11.8314C18.1894 11.8822 18.2034 11.9274 18.2145 11.9697C18.2257 11.9669 18.2425 11.9669 18.2564 11.9669C18.29 11.9641 18.3235 11.9585 18.357 11.9585C18.4744 11.9585 18.5862 11.9839 18.6895 12.0347C18.7259 11.9754 18.7678 11.9076 18.8153 11.837C20.3464 9.49334 22.4922 6.96047 22.8275 6.55668C23.2243 6.07664 23.0623 5.93263 22.3302 5.55426ZM18.4912 19.1618L18.3207 19.3171L18.1587 19.4724C18.0916 19.5317 17.9966 19.526 17.9324 19.4611L17.7815 19.2973L17.6138 19.1109L17.5523 19.0403L17.5077 18.9952V18.9274L17.516 18.8342L17.734 13.9915C16.2028 16.3042 14.1017 18.7777 13.772 19.1787C13.3752 19.6559 13.5345 19.8027 14.2638 20.1868C15.4317 20.7007 16.7281 21.2372 18.1698 21.2202C18.5778 21.2287 18.4129 20.8871 18.3989 20.6131C18.3989 20.52 18.4437 19.9524 18.4912 19.1646V19.1618ZM17.9351 11.7749C17.3595 9.03025 17.0857 5.70674 17.0354 5.18152C16.9768 4.56313 16.7616 4.57443 15.9793 4.83138C14.7946 5.31142 13.5066 5.86769 12.5091 6.92094C12.2129 7.20613 12.5761 7.32473 12.7773 7.51109C12.9282 7.6551 14.736 9.8209 16.2559 11.2356L17.991 12.0375C17.9743 11.9613 17.9575 11.8737 17.9379 11.7749H17.9351ZM17.6697 13.1472C17.5579 13.1585 17.4015 13.1981 17.2143 13.2404C14.4984 13.8165 11.2154 14.0875 10.6929 14.1384C10.0754 14.1977 10.0894 14.4151 10.3437 15.2057C10.8159 16.403 11.3663 17.7047 12.4029 18.7213C12.6851 19.0149 12.808 18.6507 12.9896 18.4474C13.1741 18.2497 16.7337 15.2311 17.6669 13.6979C17.6948 13.647 17.7256 13.6019 17.7451 13.5595L17.7563 13.2856C17.7228 13.2432 17.6893 13.1981 17.6641 13.1501L17.6697 13.1472ZM12.1682 10.812L12.1263 10.8007L12.1179 10.7979L12.0984 10.7894L12.0732 10.764L12.0452 10.7358L11.5814 10.2727L11.2573 9.94514C11.154 9.84348 11.2154 9.66841 11.3607 9.65429L11.8189 9.61759L12.5035 9.56394H12.5565L12.5761 9.56111H12.6013L12.6348 9.57241H12.6432L12.6935 9.59782L14.5934 10.4732C13.283 9.47923 12.238 8.59822 11.9866 8.39492C11.506 8.00242 11.3663 8.17184 10.9975 8.91448C10.5057 10.1033 9.99722 11.4219 10.0391 12.879C10.0363 13.2884 10.3716 13.1105 10.6426 13.1021C10.9136 13.0851 15.5462 13.4522 17.2729 13.0145C17.326 13.0032 17.3763 12.9891 17.4182 12.9778L12.1654 10.8205L12.1682 10.812ZM12.1682 10.812L12.1263 10.8007L12.1179 10.7979C12.1011 10.7894 12.0844 10.7781 12.0732 10.764L12.0452 10.7358L11.5814 10.2727L11.2573 9.94514C11.154 9.84348 11.2154 9.66841 11.3607 9.65429L11.8189 9.61759L12.5035 9.56394H12.5565L12.5761 9.56111C12.5957 9.56111 12.618 9.56394 12.6348 9.57241H12.6432L12.6935 9.59782L14.5934 10.4732C13.283 9.47923 12.238 8.59822 11.9866 8.39492C11.506 8.00242 11.3663 8.17184 10.9975 8.91448C10.5057 10.1033 9.99722 11.4219 10.0391 12.879C10.0363 13.2884 10.3716 13.1105 10.6426 13.1021C10.9136 13.0851 15.5462 13.4522 17.2729 13.0145C17.326 13.0032 17.3763 12.9891 17.4182 12.9778L12.1654 10.8205L12.1682 10.812ZM17.6697 13.1472C17.5579 13.1585 17.4015 13.1981 17.2143 13.2404C14.4984 13.8165 11.2154 14.0875 10.6929 14.1384C10.0754 14.1977 10.0894 14.4151 10.3437 15.2057C10.8159 16.403 11.3663 17.7047 12.4029 18.7213C12.6851 19.0149 12.808 18.6507 12.9896 18.4474C13.1741 18.2497 16.7337 15.2311 17.6669 13.6979C17.6948 13.647 17.7256 13.6019 17.7451 13.5595L17.7563 13.2856C17.7228 13.2432 17.6893 13.1981 17.6641 13.1501L17.6697 13.1472ZM17.9351 11.7749C17.3595 9.03025 17.0857 5.70674 17.0354 5.18152C16.9768 4.56313 16.7616 4.57443 15.9793 4.83138C14.7946 5.31142 13.5066 5.86769 12.5091 6.92094C12.2129 7.20613 12.5761 7.32473 12.7773 7.51109C12.9282 7.6551 14.736 9.8209 16.2559 11.2356L17.991 12.0375C17.9743 11.9613 17.9575 11.8737 17.9379 11.7749H17.9351ZM18.4912 19.1618L18.3207 19.3171L18.1587 19.4724C18.0916 19.5317 17.9966 19.526 17.9324 19.4611L17.7815 19.2973L17.6138 19.1109L17.5523 19.0403C17.5244 19.0121 17.5105 18.9697 17.5105 18.9274V18.8342L17.7312 13.9915C16.2 16.3042 14.0989 18.7777 13.7692 19.1787C13.3724 19.6559 13.5317 19.8027 14.261 20.1868C15.4289 20.7007 16.7253 21.2372 18.1671 21.2202C18.575 21.2287 18.4101 20.8871 18.3962 20.6131C18.3962 20.52 18.4409 19.9524 18.4884 19.1646L18.4912 19.1618ZM22.3302 5.55426C21.1623 5.03469 19.8658 4.50101 18.4241 4.52077C18.0162 4.5123 18.181 4.8568 18.195 5.1307C18.2034 5.40177 17.7731 10.0779 18.1782 11.8314C18.1894 11.8822 18.2034 11.9274 18.2145 11.9697C18.2257 11.9669 18.2425 11.9669 18.2564 11.9669C18.29 11.9641 18.3235 11.9585 18.357 11.9585C18.4744 11.9585 18.5862 11.9839 18.6895 12.0347C18.7259 11.9754 18.7678 11.9076 18.8153 11.837C20.3464 9.49334 22.4922 6.96047 22.8275 6.55668C23.2243 6.07664 23.0623 5.93263 22.3302 5.55426ZM23.7524 18.3062C23.5596 18.117 20.6175 14.48 19.1114 13.5228C19.0165 13.4607 18.9354 13.4183 18.8684 13.3844L18.8069 14.8217C19.2372 17.3659 19.4244 20.1021 19.4607 20.5793C19.5138 21.1977 19.7317 21.1892 20.5113 20.9407C21.7043 20.4804 23.0008 19.9411 24.015 18.902C24.3112 18.6196 23.9536 18.4982 23.7524 18.309V18.3062ZM26.2698 10.5692C25.8032 9.3691 25.2556 8.06737 24.2218 7.05083C23.9396 6.75151 23.8166 7.11295 23.635 7.31626C23.4506 7.51392 19.9525 10.4562 18.9689 11.998L23.6462 11.1311L23.6993 11.1226C23.7496 11.1142 23.8027 11.1226 23.8502 11.148L23.8949 11.1678L24.7359 11.6281L24.8477 11.6902C24.8896 11.71 24.9343 11.7184 24.9846 11.7156C25.4428 11.6733 25.7781 11.6478 25.915 11.6365C26.5269 11.5772 26.5157 11.3598 26.2642 10.5692H26.2698ZM25.9625 12.8649C25.9457 12.8649 25.9094 12.8649 25.8507 12.8564C25.806 12.8564 25.7418 12.8536 25.6719 12.8451C25.5099 12.8338 25.2807 12.8169 25.0097 12.7943C24.965 12.7914 24.9175 12.7858 24.8728 12.783C24.7387 12.7745 24.5906 12.7632 24.4341 12.7491H24.423C24.395 12.7463 24.3615 12.7463 24.3307 12.7406L24.2889 12.7858C24.2889 12.7858 24.2637 12.8056 24.2553 12.814L24.205 12.8649L24.1687 12.9016H24.1659C24.1296 12.9383 24.0793 12.9637 24.029 12.9693H23.9703L19.212 13.328C19.2456 13.3534 19.2819 13.3788 19.321 13.4042C21.6177 14.9798 24.0961 17.1852 24.49 17.524C24.9622 17.9278 25.1075 17.7725 25.4903 17.0383C26.0156 15.8637 26.566 14.5619 26.5632 13.1021C26.58 12.6898 26.2391 12.8564 25.9681 12.862L25.9625 12.8649ZM25.9625 12.8649C25.9457 12.8649 25.9094 12.8649 25.8507 12.8564C25.806 12.8564 25.7418 12.8536 25.6719 12.8451C25.5099 12.8338 25.2807 12.8169 25.0097 12.7943C24.965 12.7914 24.9175 12.7858 24.8728 12.783C24.7387 12.7745 24.5906 12.7632 24.4341 12.7491H24.423C24.395 12.7463 24.3615 12.7463 24.3307 12.7406L24.2889 12.7858C24.2889 12.7858 24.2637 12.8056 24.2553 12.814L24.205 12.8649L24.1687 12.9016H24.1659C24.1296 12.9383 24.0793 12.9637 24.029 12.9693H23.9703L19.212 13.328C19.2456 13.3534 19.2819 13.3788 19.321 13.4042C21.6177 14.9798 24.0961 17.1852 24.49 17.524C24.9622 17.9278 25.1075 17.7725 25.4903 17.0383C26.0156 15.8637 26.566 14.5619 26.5632 13.1021C26.58 12.6898 26.2391 12.8564 25.9681 12.862L25.9625 12.8649ZM18.9689 11.998L23.6462 11.1311L23.6993 11.1226C23.7496 11.1142 23.8027 11.1226 23.8502 11.148L23.8949 11.1678L24.7359 11.6281L24.8477 11.6902C24.8896 11.71 24.9343 11.7184 24.9846 11.7156C25.4428 11.6733 25.7781 11.6478 25.915 11.6365C26.5269 11.5772 26.5157 11.3598 26.2642 10.5692C25.7976 9.3691 25.25 8.06737 24.2162 7.05083C23.934 6.75151 23.811 7.11295 23.6294 7.31626C23.445 7.51392 19.9469 10.4562 18.9634 11.998H18.9689ZM23.7524 18.3062C23.5596 18.117 20.6175 14.48 19.1114 13.5228C19.0165 13.4607 18.9354 13.4183 18.8684 13.3844L18.8069 14.8217C19.2372 17.3659 19.4244 20.1021 19.4607 20.5793C19.5138 21.1977 19.7317 21.1892 20.5113 20.9407C21.7043 20.4804 23.0008 19.9411 24.015 18.902C24.3112 18.6196 23.9536 18.4982 23.7524 18.309V18.3062ZM22.8275 6.55668C23.2243 6.07664 23.0623 5.93263 22.3302 5.55426C21.1623 5.03469 19.8658 4.50101 18.4241 4.52077C18.0162 4.5123 18.181 4.8568 18.195 5.1307C18.2034 5.40177 17.7731 10.0779 18.1782 11.8314C18.1894 11.8822 18.2034 11.9274 18.2145 11.9697C18.2257 11.9669 18.2425 11.9669 18.2564 11.9669C18.29 11.9641 18.3235 11.9585 18.357 11.9585C18.4744 11.9585 18.5862 11.9839 18.6895 12.0347C18.7259 11.9754 18.7678 11.9076 18.8153 11.837C20.3464 9.49334 22.4922 6.96047 22.8275 6.55668ZM18.3179 19.3171L18.1559 19.4724C18.0888 19.5317 17.9938 19.526 17.9296 19.4611L17.7787 19.2973L17.611 19.1109L17.5495 19.0403C17.5216 19.0121 17.5077 18.9697 17.5077 18.9274V18.8342L17.7284 13.9915C16.1972 16.3042 14.0961 18.7777 13.7664 19.1787C13.3696 19.6559 13.5289 19.8027 14.2582 20.1868C15.4261 20.7007 16.7225 21.2372 18.1643 21.2202C18.5722 21.2287 18.4073 20.8871 18.3934 20.6131C18.3934 20.52 18.4381 19.9524 18.4856 19.1646L18.3151 19.3199L18.3179 19.3171ZM12.7773 7.50827C12.9282 7.65228 14.736 9.81807 16.2559 11.2328L17.991 12.0347C17.9743 11.9585 17.9575 11.8709 17.9379 11.7721C17.3623 9.02743 17.0885 5.70391 17.0382 5.1787C16.9796 4.56031 16.7644 4.5716 15.9821 4.82856C14.7974 5.30859 13.5093 5.86486 12.5119 6.91811C12.2157 7.20331 12.5789 7.3219 12.7801 7.50827H12.7773ZM17.6697 13.695C17.6976 13.6442 17.7284 13.599 17.7479 13.5567L17.7591 13.2828C17.7256 13.2404 17.6921 13.1952 17.6669 13.1472C17.5551 13.1585 17.3987 13.1981 17.2115 13.2404C14.4956 13.8165 11.2126 14.0875 10.6901 14.1384C10.0726 14.1977 10.0866 14.4151 10.3409 15.2057C10.8131 16.403 11.3635 17.7047 12.4001 18.7213C12.6823 19.0149 12.8052 18.6507 12.9868 18.4474C13.1713 18.2497 16.7309 15.2311 17.6641 13.6979L17.6697 13.695ZM10.6454 13.0964C10.9164 13.0795 15.549 13.4466 17.2757 13.0089C17.3288 12.9976 17.3791 12.9835 17.421 12.9722L12.1682 10.8148L12.1263 10.8035L12.1179 10.8007C12.1011 10.7923 12.0844 10.781 12.0732 10.7668L12.0452 10.7386L11.5814 10.2755L11.2573 9.94796C11.154 9.84631 11.2154 9.67124 11.3607 9.65712L11.8189 9.62041L12.5035 9.56676H12.5565L12.5761 9.56394C12.5957 9.56394 12.618 9.56676 12.6348 9.57523H12.6432L12.6935 9.60065L14.5934 10.476C13.283 9.48205 12.238 8.60105 11.9866 8.39774C11.506 8.00524 11.3663 8.17467 10.9975 8.9173C10.5057 10.1061 9.99722 11.4248 10.0391 12.8818C10.0363 13.2912 10.3716 13.1134 10.6426 13.1049L10.6454 13.0964ZM29.9357 9.71642C29.0192 7.64663 27.8457 6.25736 27.0578 5.47801C27.312 5.33118 27.4908 5.09964 27.5579 4.81162C27.6613 4.32311 27.4713 3.58895 25.9401 2.86043C24.7135 2.27874 23.3752 2.09802 22.4503 2.05002C22.5537 1.76482 22.5705 1.45704 22.4783 1.1662C22.3693 0.813231 21.9362 0 20.2766 0C19.9608 0 19.606 0.0282372 19.2288 0.0875353C17.502 0.361436 15.9765 1.22549 14.9874 1.91731C14.9371 1.59258 14.8198 1.29044 14.6409 1.02783C14.261 0.468737 13.6518 0.160952 12.9282 0.160952C12.2828 0.160952 11.2434 0.415087 9.95809 1.61517C7.13608 4.26099 6.22522 7.91488 7.44902 11.662C7.44623 11.7128 7.43783 11.758 7.43224 11.8088C6.63873 11.0718 5.60492 10.4732 4.35038 10.4732C3.38643 10.4732 2.4197 10.8346 1.47251 11.5575C0.556059 12.2493 0.00562307 13.0908 3.494e-05 13.8023C-0.00275913 14.2118 0.162077 14.5732 0.475012 14.8189C0.882946 15.1436 1.51719 15.1944 2.32189 15.2566C3.21878 15.3271 4.33641 15.4175 5.22772 15.9314C5.95418 16.3437 6.5214 17.2755 7.17521 18.3542C7.48815 18.8681 7.80946 19.399 8.18386 19.9298C8.94385 21.0141 9.8463 21.9657 10.8438 22.7564C10.3884 22.6095 10.0112 22.5361 9.69263 22.5361C9.07514 22.5361 8.75944 22.81 8.60577 23.0415C8.32357 23.4538 8.33194 24.0355 8.62531 24.8148C8.98854 25.7664 9.93574 26.5119 11.1484 27.0428C11.1819 27.0512 11.2098 27.0625 11.2406 27.0795C11.2489 27.0823 11.2601 27.0879 11.2685 27.0908C11.3523 27.1275 11.4389 27.1614 11.5284 27.1952H11.52C11.52 27.1952 11.4948 27.1952 11.4836 27.1981C11.6848 27.2912 11.9083 27.3703 12.143 27.4465C12.1235 27.4268 12.0983 27.4042 12.0732 27.3844C12.5118 27.5284 12.9645 27.6414 13.4367 27.7346C13.4255 27.7374 13.4171 27.7374 13.4032 27.743C14.4901 27.9379 15.468 27.9831 15.468 27.9831C15.6943 27.9915 15.9178 28 16.1386 28C16.8091 28 17.4601 27.9492 18.0776 27.8475C21.4724 27.3082 23.9535 25.8624 26.0463 23.1827C26.0631 23.3437 26.0882 23.5075 26.1217 23.6854C26.4542 25.4078 27.9491 26.6107 29.0751 26.6107C29.6255 26.6107 30.0837 26.3538 30.3604 25.885C30.528 25.5942 30.5643 25.2525 30.4889 24.9363C30.3017 24.2162 29.6087 24.0807 28.8655 23.9169C28.1223 23.7531 27.8233 23.1658 27.8233 22.7422C29.1896 22.6914 30.5252 20.5426 30.5252 20.5426C30.7459 20.0795 30.9164 19.5599 31.017 19.0008C31.3411 17.1852 31.6344 13.5651 29.9329 9.71359L29.9357 9.71642ZM25.5322 3.40823C27.4126 4.30617 26.9655 4.95845 26.2503 4.91327C25.5322 4.87092 24.4649 3.84308 23.4115 3.25857C22.3889 2.68536 21.9362 2.67689 21.9055 2.67689C21.967 2.67406 23.6909 2.53288 25.5322 3.41105V3.40823ZM19.1617 0.866882C21.9921 0.420734 22.1262 1.68576 21.3215 2.25333C20.5168 2.81807 18.4325 2.3804 16.7588 2.51593C15.3115 2.63453 14.7667 2.95361 14.6437 3.03832C14.8617 2.82372 16.5241 1.28479 19.1589 0.866882H19.1617ZM20.0083 4.07463C22.5733 4.56878 24.9035 6.18112 26.2391 8.68858C28.5945 13.1049 26.9656 18.6168 22.59 20.9972C22.4112 21.0932 22.2268 21.1835 22.0424 21.2711L21.7965 21.3163C20.6091 21.8358 19.3042 22.1012 17.9687 22.0617L17.9016 22.073C17.6026 22.0561 17.3009 22.0222 17.0019 21.9798C16.9935 21.977 16.9852 21.977 16.9768 21.977C16.8734 21.9601 16.7644 21.9431 16.661 21.9234C16.323 21.8641 15.9849 21.785 15.6524 21.6833C15.4512 21.624 15.2612 21.5534 15.074 21.48L15.007 21.4377C13.8055 20.9576 12.6963 20.2122 11.7826 19.2352L11.5814 19.0968C9.53058 16.8181 8.67562 13.5397 9.61442 10.3687C10.9612 5.83098 15.5015 3.14562 20.0083 4.0718V4.07463ZM10.1704 2.57806C13.0483 -0.237192 14.7164 1.81848 13.8223 3.81202C10.7963 5.43566 8.67561 8.55304 8.41856 12.19L8.40737 12.1618C7.17798 8.99355 7.27299 5.41589 10.1704 2.57806ZM25.915 22.2622C24.6353 24.332 21.7909 26.4893 18.3598 27.0371C14.9287 27.5849 10.5253 26.718 9.61163 24.6313C8.70356 22.5446 10.5616 23.2618 12.7941 24.3856C15.0237 25.5151 18.1028 26.0036 21.5758 24.6172C25.0209 23.2449 26.2335 20.3816 26.2503 20.3364C26.2056 20.3873 23.2019 23.6345 19.7625 24.4534C16.2978 25.2836 11.6429 23.4369 8.82088 19.4187C7.62502 17.7075 7.09136 15.971 5.67756 15.2255C4.00671 14.336 1.51162 14.5591 1.04501 13.9605C0.698549 13.5171 1.1037 12.8282 2.07045 12.094C4.9651 9.89714 7.32329 12.3792 8.49959 14.4377C9.22046 19.4272 13.4702 23.2562 18.6057 23.2562C23.3416 23.2562 27.3288 19.9948 28.48 15.57C28.1558 18.5744 26.7588 20.8927 25.915 22.2622ZM28.4213 24.3348C28.8515 24.4478 29.2539 24.4365 29.5389 24.6369C29.7568 24.7979 29.9105 25.1735 29.7345 25.4699C29.1086 26.5288 27.2086 25.3655 26.8566 23.5639C26.5241 21.8584 27.2366 20.9096 27.312 20.8165C27.2925 20.8871 27.0857 21.6212 27.1667 22.4853C27.2505 23.403 27.6557 24.1343 28.4213 24.332V24.3348ZM30.3995 18.7523C29.9915 21.0226 28.3151 22.6152 27.692 21.8612C27.0661 21.1017 29.4802 17.6257 29.4718 13.2771C29.4634 9.05567 26.1609 5.48649 25.9681 5.28035C26.1273 5.41025 28.0077 7 29.3377 9.99879C30.7208 13.1303 30.8018 16.4792 30.3967 18.7523H30.3995ZM25.9625 12.8649C25.9457 12.8649 25.9094 12.8649 25.8507 12.8564C25.806 12.8564 25.7418 12.8536 25.6719 12.8451C25.5099 12.8338 25.2807 12.8169 25.0097 12.7943C24.965 12.7914 24.9175 12.7858 24.8728 12.783C24.7387 12.7745 24.5906 12.7632 24.4341 12.7491H24.423C24.395 12.7463 24.3615 12.7463 24.3307 12.7406L24.2889 12.7858C24.2889 12.7858 24.2637 12.8056 24.2553 12.814L24.205 12.8649L24.1687 12.9016H24.1659C24.1296 12.9383 24.0793 12.9637 24.029 12.9693H23.9703L19.212 13.328C19.2456 13.3534 19.2819 13.3788 19.321 13.4042C21.6177 14.9798 24.0961 17.1852 24.49 17.524C24.9622 17.9278 25.1075 17.7725 25.4903 17.0383C26.0156 15.8637 26.566 14.5619 26.5632 13.1021C26.58 12.6898 26.2391 12.8564 25.9681 12.862L25.9625 12.8649ZM18.9689 11.998L23.6462 11.1311L23.6993 11.1226C23.7496 11.1142 23.8027 11.1226 23.8502 11.148L23.8949 11.1678L24.7359 11.6281L24.8477 11.6902C24.8896 11.71 24.9343 11.7184 24.9846 11.7156C25.4428 11.6733 25.7781 11.6478 25.915 11.6365C26.5269 11.5772 26.5157 11.3598 26.2642 10.5692C25.7976 9.3691 25.25 8.06737 24.2162 7.05083C23.934 6.75151 23.811 7.11295 23.6294 7.31626C23.445 7.51392 19.9469 10.4562 18.9634 11.998H18.9689ZM23.7524 18.3062C23.5596 18.117 20.6175 14.48 19.1114 13.5228C19.0165 13.4607 18.9354 13.4183 18.8684 13.3844L18.8069 14.8217C19.2372 17.3659 19.4244 20.1021 19.4607 20.5793C19.5138 21.1977 19.7317 21.1892 20.5113 20.9407C21.7043 20.4804 23.0008 19.9411 24.015 18.902C24.3112 18.6196 23.9536 18.4982 23.7524 18.309V18.3062ZM18.1782 11.8314C18.1894 11.8822 18.2034 11.9274 18.2145 11.9697C18.2257 11.9669 18.2425 11.9669 18.2564 11.9669C18.29 11.9641 18.3235 11.9585 18.357 11.9585C18.4744 11.9585 18.5862 11.9839 18.6895 12.0347C18.7259 11.9754 18.7678 11.9076 18.8153 11.837C20.3464 9.49334 22.4922 6.96047 22.8275 6.55668C23.2243 6.07664 23.0623 5.93263 22.3302 5.55426C21.1623 5.03469 19.8658 4.50101 18.4241 4.52077C18.0162 4.5123 18.181 4.8568 18.195 5.1307C18.2034 5.40177 17.7731 10.0779 18.1782 11.8314ZM18.1559 19.4724C18.0888 19.5317 17.9938 19.526 17.9296 19.4611L17.7787 19.2973L17.611 19.1109L17.5495 19.0403C17.5216 19.0121 17.5077 18.9697 17.5077 18.9274V18.8342L17.7284 13.9915C16.1972 16.3042 14.0961 18.7777 13.7664 19.1787C13.3696 19.6559 13.5289 19.8027 14.2582 20.1868C15.4261 20.7007 16.7225 21.2372 18.1643 21.2202C18.5722 21.2287 18.4073 20.8871 18.3934 20.6131C18.3934 20.52 18.4381 19.9524 18.4856 19.1646L18.3151 19.3199L18.1531 19.4752L18.1559 19.4724ZM12.7773 7.50827C12.9282 7.65228 14.736 9.81807 16.2559 11.2328L17.991 12.0347C17.9743 11.9585 17.9575 11.8709 17.9379 11.7721C17.3623 9.02743 17.0885 5.70391 17.0382 5.1787C16.9796 4.56031 16.7644 4.5716 15.9821 4.82856C14.7974 5.30859 13.5093 5.86486 12.5119 6.91811C12.2157 7.20331 12.5789 7.3219 12.7801 7.50827H12.7773ZM17.6697 13.695C17.6976 13.6442 17.7284 13.599 17.7479 13.5567L17.7591 13.2828C17.7256 13.2404 17.6921 13.1952 17.6669 13.1472C17.5551 13.1585 17.3987 13.1981 17.2115 13.2404C14.4956 13.8165 11.2126 14.0875 10.6901 14.1384C10.0726 14.1977 10.0866 14.4151 10.3409 15.2057C10.8131 16.403 11.3635 17.7047 12.4001 18.7213C12.6823 19.0149 12.8052 18.6507 12.9868 18.4474C13.1713 18.2497 16.7309 15.2311 17.6641 13.6979L17.6697 13.695ZM11.0003 8.90883C10.5085 10.0976 9.99998 11.4163 10.0419 12.8733C10.0391 13.2828 10.3744 13.1049 10.6454 13.0964C10.9164 13.0795 15.549 13.4466 17.2757 13.0089C17.3288 12.9976 17.3791 12.9835 17.421 12.9722L12.1682 10.8148L12.1263 10.8035L12.1179 10.8007C12.1011 10.7923 12.0844 10.781 12.0732 10.7668L12.0452 10.7386L11.5814 10.2755L11.2573 9.94796C11.154 9.84631 11.2154 9.67124 11.3607 9.65712L11.8189 9.62041L12.5035 9.56676H12.5565L12.5761 9.56394C12.5957 9.56394 12.618 9.56676 12.6348 9.57523H12.6432L12.6935 9.60065L14.5934 10.476C13.283 9.48205 12.238 8.60105 11.9866 8.39774C11.506 8.00524 11.3663 8.17467 10.9975 8.9173L11.0003 8.90883ZM12.1682 10.812L12.1263 10.8007L12.1179 10.7979C12.1011 10.7894 12.0844 10.7781 12.0732 10.764L12.0452 10.7358L11.5814 10.2727L11.2573 9.94514C11.154 9.84348 11.2154 9.66841 11.3607 9.65429L11.8189 9.61759L12.5035 9.56394H12.5565L12.5761 9.56111C12.5957 9.56111 12.618 9.56394 12.6348 9.57241H12.6432L12.6935 9.59782L14.5934 10.4732C13.283 9.47923 12.238 8.59822 11.9866 8.39492C11.506 8.00242 11.3663 8.17184 10.9975 8.91448C10.5057 10.1033 9.99722 11.4219 10.0391 12.879C10.0363 13.2884 10.3716 13.1105 10.6426 13.1021C10.9136 13.0851 15.5462 13.4522 17.2729 13.0145C17.326 13.0032 17.3763 12.9891 17.4182 12.9778L12.1654 10.8205L12.1682 10.812ZM17.6697 13.1472C17.5579 13.1585 17.4015 13.1981 17.2143 13.2404C14.4984 13.8165 11.2154 14.0875 10.6929 14.1384C10.0754 14.1977 10.0894 14.4151 10.3437 15.2057C10.8159 16.403 11.3663 17.7047 12.4029 18.7213C12.6851 19.0149 12.808 18.6507 12.9896 18.4474C13.1741 18.2497 16.7337 15.2311 17.6669 13.6979C17.6948 13.647 17.7256 13.6019 17.7451 13.5595L17.7563 13.2856C17.7228 13.2432 17.6893 13.1981 17.6641 13.1501L17.6697 13.1472ZM17.9351 11.7749C17.3595 9.03025 17.0857 5.70674 17.0354 5.18152C16.9768 4.56313 16.7616 4.57443 15.9793 4.83138C14.7946 5.31142 13.5066 5.86769 12.5091 6.92094C12.2129 7.20613 12.5761 7.32473 12.7773 7.51109C12.9282 7.6551 14.736 9.8209 16.2559 11.2356L17.991 12.0375C17.9743 11.9613 17.9575 11.8737 17.9379 11.7749H17.9351ZM18.4912 19.1618L18.3207 19.3171L18.1587 19.4724C18.0916 19.5317 17.9966 19.526 17.9324 19.4611L17.7815 19.2973L17.6138 19.1109L17.5523 19.0403C17.5244 19.0121 17.5105 18.9697 17.5105 18.9274V18.8342L17.7312 13.9915C16.2 16.3042 14.0989 18.7777 13.7692 19.1787C13.3724 19.6559 13.5317 19.8027 14.261 20.1868C15.4289 20.7007 16.7253 21.2372 18.1671 21.2202C18.575 21.2287 18.4101 20.8871 18.3962 20.6131C18.3962 20.52 18.4409 19.9524 18.4884 19.1646L18.4912 19.1618ZM22.3302 5.55426C21.1623 5.03469 19.8658 4.50101 18.4241 4.52077C18.0162 4.5123 18.181 4.8568 18.195 5.1307C18.2034 5.40177 17.7731 10.0779 18.1782 11.8314C18.1894 11.8822 18.2034 11.9274 18.2145 11.9697C18.2257 11.9669 18.2425 11.9669 18.2564 11.9669C18.29 11.9641 18.3235 11.9585 18.357 11.9585C18.4744 11.9585 18.5862 11.9839 18.6895 12.0347C18.7259 11.9754 18.7678 11.9076 18.8153 11.837C20.3464 9.49334 22.4922 6.96047 22.8275 6.55668C23.2243 6.07664 23.0623 5.93263 22.3302 5.55426ZM23.7524 18.3062C23.5596 18.117 20.6175 14.48 19.1114 13.5228C19.0165 13.4607 18.9354 13.4183 18.8684 13.3844L18.8069 14.8217C19.2372 17.3659 19.4244 20.1021 19.4607 20.5793C19.5138 21.1977 19.7317 21.1892 20.5113 20.9407C21.7043 20.4804 23.0008 19.9411 24.015 18.902C24.3112 18.6196 23.9536 18.4982 23.7524 18.309V18.3062ZM26.2698 10.5692C25.8032 9.3691 25.2556 8.06737 24.2218 7.05083C23.9396 6.75151 23.8166 7.11295 23.635 7.31626C23.4506 7.51392 19.9525 10.4562 18.9689 11.998L23.6462 11.1311L23.6993 11.1226C23.7496 11.1142 23.8027 11.1226 23.8502 11.148L23.8949 11.1678L24.7359 11.6281L24.8477 11.6902C24.8896 11.71 24.9343 11.7184 24.9846 11.7156C25.4428 11.6733 25.7781 11.6478 25.915 11.6365C26.5269 11.5772 26.5157 11.3598 26.2642 10.5692H26.2698ZM25.9625 12.8649C25.9457 12.8649 25.9094 12.8649 25.8507 12.8564C25.806 12.8564 25.7418 12.8536 25.6719 12.8451C25.5099 12.8338 25.2807 12.8169 25.0097 12.7943C24.965 12.7914 24.9175 12.7858 24.8728 12.783C24.7387 12.7745 24.5906 12.7632 24.4341 12.7491H24.423C24.395 12.7463 24.3615 12.7463 24.3307 12.7406L24.2889 12.7858C24.2889 12.7858 24.2637 12.8056 24.2553 12.814L24.205 12.8649L24.1687 12.9016H24.1659C24.1296 12.9383 24.0793 12.9637 24.029 12.9693H23.9703L19.212 13.328C19.2456 13.3534 19.2819 13.3788 19.321 13.4042C21.6177 14.9798 24.0961 17.1852 24.49 17.524C24.9622 17.9278 25.1075 17.7725 25.4903 17.0383C26.0156 15.8637 26.566 14.5619 26.5632 13.1021C26.58 12.6898 26.2391 12.8564 25.9681 12.862L25.9625 12.8649ZM25.9625 12.8649C25.9457 12.8649 25.9094 12.8649 25.8507 12.8564C25.806 12.8564 25.7418 12.8536 25.6719 12.8451C25.5099 12.8338 25.2807 12.8169 25.0097 12.7943C24.965 12.7914 24.9175 12.7858 24.8728 12.783C24.7387 12.7745 24.5906 12.7632 24.4341 12.7491H24.423C24.395 12.7463 24.3615 12.7463 24.3307 12.7406L24.2889 12.7858C24.2889 12.7858 24.2637 12.8056 24.2553 12.814L24.205 12.8649L24.1687 12.9016H24.1659L24.1072 12.9609L24.029 12.9693H23.9703L19.212 13.328C19.2456 13.3534 19.2819 13.3788 19.321 13.4042C21.6177 14.9798 24.0961 17.1852 24.49 17.524C24.9622 17.9278 25.1075 17.7725 25.4903 17.0383C26.0156 15.8637 26.566 14.5619 26.5632 13.1021C26.58 12.6898 26.2391 12.8564 25.9681 12.862L25.9625 12.8649ZM26.2698 10.5692C25.8032 9.3691 25.2556 8.06737 24.2218 7.05083C23.9396 6.75151 23.8166 7.11295 23.635 7.31626C23.4506 7.51392 19.9525 10.4562 18.9689 11.998L23.6462 11.1311L23.6993 11.1226L23.7775 11.1057L23.8949 11.1678L24.7359 11.6281L24.8477 11.6902C24.8896 11.71 24.9343 11.7184 24.9846 11.7156C25.4428 11.6733 25.7781 11.6478 25.915 11.6365C26.5269 11.5772 26.5157 11.3598 26.2642 10.5692H26.2698ZM23.7524 18.3062C23.5596 18.117 20.6175 14.48 19.1114 13.5228C19.0165 13.4607 18.9354 13.4183 18.8684 13.3844L18.8069 14.8217C19.2372 17.3659 19.4244 20.1021 19.4607 20.5793C19.5138 21.1977 19.7317 21.1892 20.5113 20.9407C21.7043 20.4804 23.0008 19.9411 24.015 18.902C24.3112 18.6196 23.9536 18.4982 23.7524 18.309V18.3062ZM22.3302 5.55426C21.1623 5.03469 19.8658 4.50101 18.4241 4.52077C18.0162 4.5123 18.181 4.8568 18.195 5.1307C18.2034 5.40177 17.7731 10.0779 18.1782 11.8314C18.1894 11.8822 18.2034 11.9274 18.2145 11.9697C18.2257 11.9669 18.2425 11.9669 18.2564 11.9669C18.29 11.9641 18.3235 11.9585 18.357 11.9585C18.4744 11.9585 18.5862 11.9839 18.6895 12.0347C18.7259 11.9754 18.7678 11.9076 18.8153 11.837C20.3464 9.49334 22.4922 6.96047 22.8275 6.55668C23.2243 6.07664 23.0623 5.93263 22.3302 5.55426ZM18.4912 19.1618L18.3207 19.3171L18.1587 19.4724C18.0916 19.5317 17.9966 19.526 17.9324 19.4611L17.7815 19.2973L17.6138 19.1109L17.5523 19.0403L17.5077 18.9952V18.9274L17.516 18.8342L17.734 13.9915C16.2028 16.3042 14.1017 18.7777 13.772 19.1787C13.3752 19.6559 13.5345 19.8027 14.2638 20.1868C15.4317 20.7007 16.7281 21.2372 18.1698 21.2202C18.5778 21.2287 18.4129 20.8871 18.3989 20.6131C18.3989 20.52 18.4437 19.9524 18.4912 19.1646V19.1618ZM17.9351 11.7749C17.3595 9.03025 17.0857 5.70674 17.0354 5.18152C16.9768 4.56313 16.7616 4.57443 15.9793 4.83138C14.7946 5.31142 13.5066 5.86769 12.5091 6.92094C12.2129 7.20613 12.5761 7.32473 12.7773 7.51109C12.9282 7.6551 14.736 9.8209 16.2559 11.2356L17.991 12.0375C17.9743 11.9613 17.9575 11.8737 17.9379 11.7749H17.9351ZM17.6697 13.1472C17.5579 13.1585 17.4015 13.1981 17.2143 13.2404C14.4984 13.8165 11.2154 14.0875 10.6929 14.1384C10.0754 14.1977 10.0894 14.4151 10.3437 15.2057C10.8159 16.403 11.3663 17.7047 12.4029 18.7213C12.6851 19.0149 12.808 18.6507 12.9896 18.4474C13.1741 18.2497 16.7337 15.2311 17.6669 13.6979C17.6948 13.647 17.7256 13.6019 17.7451 13.5595L17.7563 13.2856C17.7228 13.2432 17.6893 13.1981 17.6641 13.1501L17.6697 13.1472ZM12.1682 10.812L12.1263 10.8007L12.1179 10.7979L12.0984 10.7894L12.0732 10.764L12.0452 10.7358L11.5814 10.2727L11.2573 9.94514C11.154 9.84348 11.2154 9.66841 11.3607 9.65429L11.8189 9.61759L12.5035 9.56394H12.5565L12.5761 9.56111H12.6013L12.6348 9.57241H12.6432L12.6935 9.59782L14.5934 10.4732C13.283 9.47923 12.238 8.59822 11.9866 8.39492C11.506 8.00242 11.3663 8.17184 10.9975 8.91448C10.5057 10.1033 9.99722 11.4219 10.0391 12.879C10.0363 13.2884 10.3716 13.1105 10.6426 13.1021C10.9136 13.0851 15.5462 13.4522 17.2729 13.0145C17.326 13.0032 17.3763 12.9891 17.4182 12.9778L12.1654 10.8205L12.1682 10.812ZM12.1682 10.812L12.1263 10.8007L12.1179 10.7979L12.0984 10.7894L12.0732 10.764L12.0452 10.7358L11.5814 10.2727L11.2573 9.94514C11.154 9.84348 11.2154 9.66841 11.3607 9.65429L11.8189 9.61759L12.5035 9.56394H12.5565L12.5761 9.56111H12.6013L12.6348 9.57241H12.6432L12.6935 9.59782L14.5934 10.4732C13.283 9.47923 12.238 8.59822 11.9866 8.39492C11.506 8.00242 11.3663 8.17184 10.9975 8.91448C10.5057 10.1033 9.99722 11.4219 10.0391 12.879C10.0363 13.2884 10.3716 13.1105 10.6426 13.1021C10.9136 13.0851 15.5462 13.4522 17.2729 13.0145C17.326 13.0032 17.3763 12.9891 17.4182 12.9778L12.1654 10.8205L12.1682 10.812ZM17.6697 13.1472C17.5579 13.1585 17.4015 13.1981 17.2143 13.2404C14.4984 13.8165 11.2154 14.0875 10.6929 14.1384C10.0754 14.1977 10.0894 14.4151 10.3437 15.2057C10.8159 16.403 11.3663 17.7047 12.4029 18.7213C12.6851 19.0149 12.808 18.6507 12.9896 18.4474C13.1741 18.2497 16.7337 15.2311 17.6669 13.6979C17.6948 13.647 17.7256 13.6019 17.7451 13.5595L17.7563 13.2856C17.7228 13.2432 17.6893 13.1981 17.6641 13.1501L17.6697 13.1472ZM17.9351 11.7749C17.3595 9.03025 17.0857 5.70674 17.0354 5.18152C16.9768 4.56313 16.7616 4.57443 15.9793 4.83138C14.7946 5.31142 13.5066 5.86769 12.5091 6.92094C12.2129 7.20613 12.5761 7.32473 12.7773 7.51109C12.9282 7.6551 14.736 9.8209 16.2559 11.2356L17.991 12.0375C17.9743 11.9613 17.9575 11.8737 17.9379 11.7749H17.9351ZM18.4912 19.1618L18.3207 19.3171L18.1587 19.4724C18.0916 19.5317 17.9966 19.526 17.9324 19.4611L17.7815 19.2973L17.6138 19.1109L17.5523 19.0403L17.5077 18.9952V18.9274L17.516 18.8342L17.734 13.9915C16.2028 16.3042 14.1017 18.7777 13.772 19.1787C13.3752 19.6559 13.5345 19.8027 14.2638 20.1868C15.4317 20.7007 16.7281 21.2372 18.1698 21.2202C18.5778 21.2287 18.4129 20.8871 18.3989 20.6131C18.3989 20.52 18.4437 19.9524 18.4912 19.1646V19.1618ZM22.3302 5.55426C21.1623 5.03469 19.8658 4.50101 18.4241 4.52077C18.0162 4.5123 18.181 4.8568 18.195 5.1307C18.2034 5.40177 17.7731 10.0779 18.1782 11.8314C18.1894 11.8822 18.2034 11.9274 18.2145 11.9697C18.2257 11.9669 18.2425 11.9669 18.2564 11.9669C18.29 11.9641 18.3235 11.9585 18.357 11.9585C18.4744 11.9585 18.5862 11.9839 18.6895 12.0347C18.7259 11.9754 18.7678 11.9076 18.8153 11.837C20.3464 9.49334 22.4922 6.96047 22.8275 6.55668C23.2243 6.07664 23.0623 5.93263 22.3302 5.55426ZM23.7524 18.3062C23.5596 18.117 20.6175 14.48 19.1114 13.5228C19.0165 13.4607 18.9354 13.4183 18.8684 13.3844L18.8069 14.8217C19.2372 17.3659 19.4244 20.1021 19.4607 20.5793C19.5138 21.1977 19.7317 21.1892 20.5113 20.9407C21.7043 20.4804 23.0008 19.9411 24.015 18.902C24.3112 18.6196 23.9536 18.4982 23.7524 18.309V18.3062ZM26.2698 10.5692C25.8032 9.3691 25.2556 8.06737 24.2218 7.05083C23.9396 6.75151 23.8166 7.11295 23.635 7.31626C23.4506 7.51392 19.9525 10.4562 18.9689 11.998L23.6462 11.1311L23.6993 11.1226L23.7775 11.1057L23.8949 11.1678L24.7359 11.6281L24.8477 11.6902C24.8896 11.71 24.9343 11.7184 24.9846 11.7156C25.4428 11.6733 25.7781 11.6478 25.915 11.6365C26.5269 11.5772 26.5157 11.3598 26.2642 10.5692H26.2698ZM25.9625 12.8649C25.9457 12.8649 25.9094 12.8649 25.8507 12.8564C25.806 12.8564 25.7418 12.8536 25.6719 12.8451C25.5099 12.8338 25.2807 12.8169 25.0097 12.7943C24.965 12.7914 24.9175 12.7858 24.8728 12.783C24.7387 12.7745 24.5906 12.7632 24.4341 12.7491H24.423C24.395 12.7463 24.3615 12.7463 24.3307 12.7406L24.2889 12.7858C24.2889 12.7858 24.2637 12.8056 24.2553 12.814L24.205 12.8649L24.1687 12.9016H24.1659L24.1072 12.9609L24.029 12.9693H23.9703L19.212 13.328C19.2456 13.3534 19.2819 13.3788 19.321 13.4042C21.6177 14.9798 24.0961 17.1852 24.49 17.524C24.9622 17.9278 25.1075 17.7725 25.4903 17.0383C26.0156 15.8637 26.566 14.5619 26.5632 13.1021C26.58 12.6898 26.2391 12.8564 25.9681 12.862L25.9625 12.8649ZM25.9625 12.8649C25.9457 12.8649 25.9094 12.8649 25.8507 12.8564C25.806 12.8564 25.7418 12.8536 25.6719 12.8451C25.5099 12.8338 25.2807 12.8169 25.0097 12.7943C24.965 12.7914 24.9175 12.7858 24.8728 12.783C24.7387 12.7745 24.5906 12.7632 24.4341 12.7491H24.423C24.395 12.7463 24.3615 12.7463 24.3307 12.7406L24.2889 12.7858C24.2889 12.7858 24.2637 12.8056 24.2553 12.814L24.205 12.8649L24.1687 12.9016H24.1659L24.1072 12.9609L24.029 12.9693H23.9703L19.212 13.328C19.2456 13.3534 19.2819 13.3788 19.321 13.4042C21.6177 14.9798 24.0961 17.1852 24.49 17.524C24.9622 17.9278 25.1075 17.7725 25.4903 17.0383C26.0156 15.8637 26.566 14.5619 26.5632 13.1021C26.58 12.6898 26.2391 12.8564 25.9681 12.862L25.9625 12.8649ZM26.2698 10.5692C25.8032 9.3691 25.2556 8.06737 24.2218 7.05083C23.9396 6.75151 23.8166 7.11295 23.635 7.31626C23.4506 7.51392 19.9525 10.4562 18.9689 11.998L23.6462 11.1311L23.6993 11.1226L23.7775 11.1057L23.8949 11.1678L24.7359 11.6281L24.8477 11.6902C24.8896 11.71 24.9343 11.7184 24.9846 11.7156C25.4428 11.6733 25.7781 11.6478 25.915 11.6365C26.5269 11.5772 26.5157 11.3598 26.2642 10.5692H26.2698ZM23.7524 18.3062C23.5596 18.117 20.6175 14.48 19.1114 13.5228C19.0165 13.4607 18.9354 13.4183 18.8684 13.3844L18.8069 14.8217C19.2372 17.3659 19.4244 20.1021 19.4607 20.5793C19.5138 21.1977 19.7317 21.1892 20.5113 20.9407C21.7043 20.4804 23.0008 19.9411 24.015 18.902C24.3112 18.6196 23.9536 18.4982 23.7524 18.309V18.3062ZM22.3302 5.55426C21.1623 5.03469 19.8658 4.50101 18.4241 4.52077C18.0162 4.5123 18.181 4.8568 18.195 5.1307C18.2034 5.40177 17.7731 10.0779 18.1782 11.8314C18.1894 11.8822 18.2034 11.9274 18.2145 11.9697C18.2257 11.9669 18.2425 11.9669 18.2564 11.9669C18.29 11.9641 18.3235 11.9585 18.357 11.9585C18.4744 11.9585 18.5862 11.9839 18.6895 12.0347C18.7259 11.9754 18.7678 11.9076 18.8153 11.837C20.3464 9.49334 22.4922 6.96047 22.8275 6.55668C23.2243 6.07664 23.0623 5.93263 22.3302 5.55426ZM18.4912 19.1618L18.3207 19.3171L18.1587 19.4724C18.0916 19.5317 17.9966 19.526 17.9324 19.4611L17.7815 19.2973L17.6138 19.1109L17.5523 19.0403L17.5077 18.9952V18.9274L17.516 18.8342L17.734 13.9915C16.2028 16.3042 14.1017 18.7777 13.772 19.1787C13.3752 19.6559 13.5345 19.8027 14.2638 20.1868C15.4317 20.7007 16.7281 21.2372 18.1698 21.2202C18.5778 21.2287 18.4129 20.8871 18.3989 20.6131C18.3989 20.52 18.4437 19.9524 18.4912 19.1646V19.1618ZM17.9351 11.7749C17.3595 9.03025 17.0857 5.70674 17.0354 5.18152C16.9768 4.56313 16.7616 4.57443 15.9793 4.83138C14.7946 5.31142 13.5066 5.86769 12.5091 6.92094C12.2129 7.20613 12.5761 7.32473 12.7773 7.51109C12.9282 7.6551 14.736 9.8209 16.2559 11.2356L17.991 12.0375C17.9743 11.9613 17.9575 11.8737 17.9379 11.7749H17.9351ZM17.6697 13.1472C17.5579 13.1585 17.4015 13.1981 17.2143 13.2404C14.4984 13.8165 11.2154 14.0875 10.6929 14.1384C10.0754 14.1977 10.0894 14.4151 10.3437 15.2057C10.8159 16.403 11.3663 17.7047 12.4029 18.7213C12.6851 19.0149 12.808 18.6507 12.9896 18.4474C13.1741 18.2497 16.7337 15.2311 17.6669 13.6979C17.6948 13.647 17.7256 13.6019 17.7451 13.5595L17.7563 13.2856C17.7228 13.2432 17.6893 13.1981 17.6641 13.1501L17.6697 13.1472ZM12.1682 10.812L12.1263 10.8007L12.1179 10.7979L12.0984 10.7894L12.0732 10.764L12.0452 10.7358L11.5814 10.2727L11.2573 9.94514C11.154 9.84348 11.2154 9.66841 11.3607 9.65429L11.8189 9.61759L12.5035 9.56394H12.5565L12.5761 9.56111H12.6013L12.6348 9.57241H12.6432L12.6935 9.59782L14.5934 10.4732C13.283 9.47923 12.238 8.59822 11.9866 8.39492C11.506 8.00242 11.3663 8.17184 10.9975 8.91448C10.5057 10.1033 9.99722 11.4219 10.0391 12.879C10.0363 13.2884 10.3716 13.1105 10.6426 13.1021C10.9136 13.0851 15.5462 13.4522 17.2729 13.0145C17.326 13.0032 17.3763 12.9891 17.4182 12.9778L12.1654 10.8205L12.1682 10.812ZM12.1682 10.812L12.1263 10.8007L12.1179 10.7979C12.1011 10.7894 12.0844 10.7781 12.0732 10.764L12.0452 10.7358L11.5814 10.2727L11.2573 9.94514C11.154 9.84348 11.2154 9.66841 11.3607 9.65429L11.8189 9.61759L12.5035 9.56394H12.5565L12.5761 9.56111C12.5957 9.56111 12.618 9.56394 12.6348 9.57241H12.6432L12.6935 9.59782L14.5934 10.4732C13.283 9.47923 12.238 8.59822 11.9866 8.39492C11.506 8.00242 11.3663 8.17184 10.9975 8.91448C10.5057 10.1033 9.99722 11.4219 10.0391 12.879C10.0363 13.2884 10.3716 13.1105 10.6426 13.1021C10.9136 13.0851 15.5462 13.4522 17.2729 13.0145C17.326 13.0032 17.3763 12.9891 17.4182 12.9778L12.1654 10.8205L12.1682 10.812ZM17.6697 13.1472C17.5579 13.1585 17.4015 13.1981 17.2143 13.2404C14.4984 13.8165 11.2154 14.0875 10.6929 14.1384C10.0754 14.1977 10.0894 14.4151 10.3437 15.2057C10.8159 16.403 11.3663 17.7047 12.4029 18.7213C12.6851 19.0149 12.808 18.6507 12.9896 18.4474C13.1741 18.2497 16.7337 15.2311 17.6669 13.6979C17.6948 13.647 17.7256 13.6019 17.7451 13.5595L17.7563 13.2856C17.7228 13.2432 17.6893 13.1981 17.6641 13.1501L17.6697 13.1472ZM17.9351 11.7749C17.3595 9.03025 17.0857 5.70674 17.0354 5.18152C16.9768 4.56313 16.7616 4.57443 15.9793 4.83138C14.7946 5.31142 13.5066 5.86769 12.5091 6.92094C12.2129 7.20613 12.5761 7.32473 12.7773 7.51109C12.9282 7.6551 14.736 9.8209 16.2559 11.2356L17.991 12.0375C17.9743 11.9613 17.9575 11.8737 17.9379 11.7749H17.9351ZM18.4912 19.1618L18.3207 19.3171L18.1587 19.4724C18.0916 19.5317 17.9966 19.526 17.9324 19.4611L17.7815 19.2973L17.6138 19.1109L17.5523 19.0403L17.5077 18.9952V18.9274L17.516 18.8342L17.734 13.9915C16.2028 16.3042 14.1017 18.7777 13.772 19.1787C13.3752 19.6559 13.5345 19.8027 14.2638 20.1868C15.4317 20.7007 16.7281 21.2372 18.1698 21.2202C18.5778 21.2287 18.4129 20.8871 18.3989 20.6131C18.3989 20.52 18.4437 19.9524 18.4912 19.1646V19.1618ZM22.3302 5.55426C21.1623 5.03469 19.8658 4.50101 18.4241 4.52077C18.0162 4.5123 18.181 4.8568 18.195 5.1307C18.2034 5.40177 17.7731 10.0779 18.1782 11.8314C18.1894 11.8822 18.2034 11.9274 18.2145 11.9697C18.2257 11.9669 18.2425 11.9669 18.2564 11.9669C18.29 11.9641 18.3235 11.9585 18.357 11.9585C18.4744 11.9585 18.5862 11.9839 18.6895 12.0347C18.7259 11.9754 18.7678 11.9076 18.8153 11.837C20.3464 9.49334 22.4922 6.96047 22.8275 6.55668C23.2243 6.07664 23.0623 5.93263 22.3302 5.55426ZM23.7524 18.3062C23.5596 18.117 20.6175 14.48 19.1114 13.5228C19.0165 13.4607 18.9354 13.4183 18.8684 13.3844L18.8069 14.8217C19.2372 17.3659 19.4244 20.1021 19.4607 20.5793C19.5138 21.1977 19.7317 21.1892 20.5113 20.9407C21.7043 20.4804 23.0008 19.9411 24.015 18.902C24.3112 18.6196 23.9536 18.4982 23.7524 18.309V18.3062ZM26.2698 10.5692C25.8032 9.3691 25.2556 8.06737 24.2218 7.05083C23.9396 6.75151 23.8166 7.11295 23.635 7.31626C23.4506 7.51392 19.9525 10.4562 18.9689 11.998L23.6462 11.1311L23.6993 11.1226L23.7775 11.1057L23.8949 11.1678L24.7359 11.6281L24.8477 11.6902C24.8896 11.71 24.9343 11.7184 24.9846 11.7156C25.4428 11.6733 25.7781 11.6478 25.915 11.6365C26.5269 11.5772 26.5157 11.3598 26.2642 10.5692H26.2698ZM25.9625 12.8649C25.9457 12.8649 25.9094 12.8649 25.8507 12.8564C25.806 12.8564 25.7418 12.8536 25.6719 12.8451C25.5099 12.8338 25.2807 12.8169 25.0097 12.7943C24.965 12.7914 24.9175 12.7858 24.8728 12.783C24.7387 12.7745 24.5906 12.7632 24.4341 12.7491H24.423C24.395 12.7463 24.3615 12.7463 24.3307 12.7406L24.2889 12.7858C24.2889 12.7858 24.2637 12.8056 24.2553 12.814L24.205 12.8649L24.1687 12.9016H24.1659L24.1072 12.9609L24.029 12.9693H23.9703L19.212 13.328C19.2456 13.3534 19.2819 13.3788 19.321 13.4042C21.6177 14.9798 24.0961 17.1852 24.49 17.524C24.9622 17.9278 25.1075 17.7725 25.4903 17.0383C26.0156 15.8637 26.566 14.5619 26.5632 13.1021C26.58 12.6898 26.2391 12.8564 25.9681 12.862L25.9625 12.8649ZM26.2698 10.5692C25.8032 9.3691 25.2556 8.06737 24.2218 7.05083C23.9396 6.75151 23.8166 7.11295 23.635 7.31626C23.4506 7.51392 19.9525 10.4562 18.9689 11.998L23.6462 11.1311L23.6993 11.1226C23.7496 11.1142 23.8027 11.1226 23.8502 11.148L23.8949 11.1678L24.7359 11.6281L24.8477 11.6902C24.8896 11.71 24.9343 11.7184 24.9846 11.7156C25.4428 11.6733 25.7781 11.6478 25.915 11.6365C26.5269 11.5772 26.5157 11.3598 26.2642 10.5692H26.2698ZM22.3302 5.55426C21.1623 5.03469 19.8658 4.50101 18.4241 4.52077C18.0162 4.5123 18.181 4.8568 18.195 5.1307C18.2034 5.40177 17.7731 10.0779 18.1782 11.8314C18.1894 11.8822 18.2034 11.9274 18.2145 11.9697C18.2257 11.9669 18.2425 11.9669 18.2564 11.9669C18.29 11.9641 18.3235 11.9585 18.357 11.9585C18.4744 11.9585 18.5862 11.9839 18.6895 12.0347C18.7259 11.9754 18.7678 11.9076 18.8153 11.837C20.3464 9.49334 22.4922 6.96047 22.8275 6.55668C23.2243 6.07664 23.0623 5.93263 22.3302 5.55426ZM17.9351 11.7749C17.3595 9.03025 17.0857 5.70674 17.0354 5.18152C16.9768 4.56313 16.7616 4.57443 15.9793 4.83138C14.7946 5.31142 13.5066 5.86769 12.5091 6.92094C12.2129 7.20613 12.5761 7.32473 12.7773 7.51109C12.9282 7.6551 14.736 9.8209 16.2559 11.2356L17.991 12.0375C17.9743 11.9613 17.9575 11.8737 17.9379 11.7749H17.9351ZM17.6697 13.1472C17.5579 13.1585 17.4015 13.1981 17.2143 13.2404C14.4984 13.8165 11.2154 14.0875 10.6929 14.1384C10.0754 14.1977 10.0894 14.4151 10.3437 15.2057C10.8159 16.403 11.3663 17.7047 12.4029 18.7213C12.6851 19.0149 12.808 18.6507 12.9896 18.4474C13.1741 18.2497 16.7337 15.2311 17.6669 13.6979C17.6948 13.647 17.7256 13.6019 17.7451 13.5595L17.7563 13.2856C17.7228 13.2432 17.6893 13.1981 17.6641 13.1501L17.6697 13.1472ZM18.4912 19.1618L18.3207 19.3171L18.1587 19.4724C18.0916 19.5317 17.9966 19.526 17.9324 19.4611L17.7815 19.2973L17.6138 19.1109L17.5523 19.0403C17.5244 19.0121 17.5105 18.9697 17.5105 18.9274V18.8342L17.7312 13.9915C16.2 16.3042 14.0989 18.7777 13.7692 19.1787C13.3724 19.6559 13.5317 19.8027 14.261 20.1868C15.4289 20.7007 16.7253 21.2372 18.1671 21.2202C18.575 21.2287 18.4101 20.8871 18.3962 20.6131C18.3962 20.52 18.4409 19.9524 18.4884 19.1646L18.4912 19.1618ZM25.9625 12.8649C25.9457 12.8649 25.9094 12.8649 25.8507 12.8564C25.806 12.8564 25.7418 12.8536 25.6719 12.8451C25.5099 12.8338 25.2807 12.8169 25.0097 12.7943C24.965 12.7914 24.9175 12.7858 24.8728 12.783C24.7387 12.7745 24.5906 12.7632 24.4341 12.7491H24.423C24.3783 12.7491 24.3308 12.7604 24.2889 12.7858C24.2777 12.7943 24.2637 12.8056 24.2553 12.814L24.205 12.8649L24.1687 12.9016H24.1659C24.1296 12.9383 24.0793 12.9637 24.029 12.9693H23.9703L19.212 13.328C19.2456 13.3534 19.2819 13.3788 19.321 13.4042C21.6177 14.9798 24.0961 17.1852 24.49 17.524C24.9622 17.9278 25.1075 17.7725 25.4903 17.0383C26.0156 15.8637 26.566 14.5619 26.5632 13.1021C26.58 12.6898 26.2391 12.8564 25.9681 12.862L25.9625 12.8649ZM23.7524 18.3062C23.5596 18.117 20.6175 14.48 19.1114 13.5228C19.0165 13.4607 18.9354 13.4183 18.8684 13.3844L18.8069 14.8217C19.2372 17.3659 19.4244 20.1021 19.4607 20.5793C19.5138 21.1977 19.7317 21.1892 20.5113 20.9407C21.7043 20.4804 23.0008 19.9411 24.015 18.902C24.3112 18.6196 23.9536 18.4982 23.7524 18.309V18.3062Z" fill="#D12027"/>
<path d="M24.5571 11.9641L23.934 12.591L18.6951 12.9835C18.6476 13.0569 18.5777 13.1133 18.4995 13.1444L18.2453 18.8681L18.0609 19.0375L17.8932 18.8511L18.1475 13.1162C18.0441 13.054 17.9687 12.9467 17.9491 12.8169C17.9407 12.7999 17.9351 12.783 17.9323 12.766L12.3079 10.459L11.8469 9.99596L12.5314 9.93948L18.0469 12.4865C18.0469 12.4865 18.0553 12.4752 18.0609 12.4695C18.1279 12.4018 18.2089 12.3622 18.3011 12.3509C18.3179 12.3509 18.3347 12.3481 18.3515 12.3481C18.4548 12.3481 18.5498 12.3876 18.6253 12.4582L23.7133 11.5123L24.5543 11.9697L24.5571 11.9641Z" fill="#D12027"/>
</svg>
