<svg width="81" height="28" viewBox="0 0 81 28" fill="none" xmlns="http://www.w3.org/2000/svg">
<path d="M12.1682 10.8121L12.1263 10.8008L12.1179 10.798L12.0984 10.7895L12.0732 10.7641L12.0452 10.7359L11.5814 10.2728L11.2573 9.94523C11.154 9.84358 11.2154 9.66851 11.3607 9.65439L11.8189 9.61768L12.5035 9.56403H12.5565L12.5761 9.5612H12.6013L12.6348 9.5725H12.6432L12.6935 9.59791L14.5934 10.4733C13.283 9.47932 12.238 8.59832 11.9866 8.39501C11.506 8.00251 11.3663 8.17193 10.9975 8.91457C10.5057 10.1034 9.99722 11.422 10.0391 12.8791C10.0363 13.2885 10.3716 13.1106 10.6426 13.1021C10.9136 13.0852 15.5462 13.4523 17.2729 13.0146C17.326 13.0033 17.3763 12.9892 17.4182 12.9779L12.1654 10.8206L12.1682 10.8121ZM12.1682 10.8121L12.1263 10.8008L12.1179 10.798L12.0984 10.7895L12.0732 10.7641L12.0452 10.7359L11.5814 10.2728L11.2573 9.94523C11.154 9.84358 11.2154 9.66851 11.3607 9.65439L11.8189 9.61768L12.5035 9.56403H12.5565L12.5761 9.5612H12.6013L12.6348 9.5725H12.6432L12.6935 9.59791L14.5934 10.4733C13.283 9.47932 12.238 8.59832 11.9866 8.39501C11.506 8.00251 11.3663 8.17193 10.9975 8.91457C10.5057 10.1034 9.99722 11.422 10.0391 12.8791C10.0363 13.2885 10.3716 13.1106 10.6426 13.1021C10.9136 13.0852 15.5462 13.4523 17.2729 13.0146C17.326 13.0033 17.3763 12.9892 17.4182 12.9779L12.1654 10.8206L12.1682 10.8121ZM17.6697 13.1473C17.5579 13.1586 17.4015 13.1982 17.2143 13.2405C14.4984 13.8165 11.2154 14.0876 10.6929 14.1385C10.0754 14.1978 10.0894 14.4152 10.3437 15.2058C10.8159 16.4031 11.3663 17.7048 12.4029 18.7213C12.6851 19.015 12.808 18.6508 12.9896 18.4474C13.1741 18.2498 16.7337 15.2312 17.6669 13.698C17.6948 13.6471 17.7256 13.6019 17.7451 13.5596L17.7563 13.2857C17.7228 13.2433 17.6893 13.1982 17.6641 13.1502L17.6697 13.1473ZM17.9351 11.775C17.3595 9.03034 17.0857 5.70683 17.0354 5.18162C16.9768 4.56322 16.7616 4.57452 15.9793 4.83148C14.7946 5.31151 13.5066 5.86778 12.5091 6.92103C12.2129 7.20622 12.5761 7.32482 12.7773 7.51118C12.9282 7.65519 14.736 9.82099 16.2559 11.2357L17.991 12.0376C17.9743 11.9614 17.9575 11.8738 17.9379 11.775H17.9351ZM18.4912 19.1618L18.3207 19.3172L18.1587 19.4725C18.0916 19.5318 17.9966 19.5261 17.9324 19.4612L17.7815 19.2974L17.6138 19.111L17.5523 19.0404L17.5077 18.9952V18.9275L17.516 18.8343L17.734 13.9916C16.2028 16.3042 14.1017 18.7778 13.772 19.1788C13.3752 19.656 13.5345 19.8028 14.2638 20.1869C15.4317 20.7008 16.7281 21.2373 18.1698 21.2203C18.5778 21.2288 18.4129 20.8871 18.3989 20.6132C18.3989 20.5201 18.4437 19.9525 18.4912 19.1647V19.1618ZM22.3302 5.55435C21.1623 5.03478 19.8658 4.5011 18.4241 4.52087C18.0162 4.51239 18.181 4.85689 18.195 5.13079C18.2034 5.40187 17.7731 10.0779 18.1782 11.8315C18.1894 11.8823 18.2034 11.9275 18.2145 11.9698C18.2257 11.967 18.2425 11.967 18.2564 11.967C18.29 11.9642 18.3235 11.9585 18.357 11.9585C18.4744 11.9585 18.5862 11.984 18.6895 12.0348C18.7259 11.9755 18.7678 11.9077 18.8153 11.8371C20.3464 9.49343 22.4922 6.96056 22.8275 6.55677C23.2243 6.07674 23.0623 5.93273 22.3302 5.55435ZM23.7524 18.3063C23.5596 18.1171 20.6175 14.4801 19.1114 13.5229C19.0165 13.4608 18.9354 13.4184 18.8684 13.3845L18.8069 14.8218C19.2372 17.366 19.4244 20.1021 19.4607 20.5794C19.5138 21.1978 19.7317 21.1893 20.5113 20.9408C21.7043 20.4805 23.0008 19.9412 24.015 18.9021C24.3112 18.6197 23.9536 18.4983 23.7524 18.3091V18.3063ZM26.2698 10.5693C25.8032 9.36919 25.2556 8.06746 24.2218 7.05092C23.9396 6.7516 23.8166 7.11304 23.635 7.31635C23.4506 7.51401 19.9525 10.4563 18.9689 11.9981L23.6462 11.1312L23.6993 11.1227L23.7775 11.1058L23.8949 11.1679L24.7359 11.6282L24.8477 11.6903C24.8896 11.7101 24.9343 11.7185 24.9846 11.7157C25.4428 11.6733 25.7781 11.6479 25.915 11.6366C26.5269 11.5773 26.5157 11.3599 26.2642 10.5693H26.2698ZM25.9625 12.865C25.9457 12.865 25.9094 12.865 25.8507 12.8565C25.806 12.8565 25.7418 12.8537 25.6719 12.8452C25.5099 12.8339 25.2807 12.817 25.0097 12.7944C24.965 12.7915 24.9175 12.7859 24.8728 12.7831C24.7387 12.7746 24.5906 12.7633 24.4341 12.7492H24.423C24.395 12.7464 24.3615 12.7464 24.3307 12.7407L24.2889 12.7859C24.2889 12.7859 24.2637 12.8057 24.2553 12.8141L24.205 12.865L24.1687 12.9017H24.1659L24.1072 12.961L24.029 12.9694H23.9703L19.212 13.328C19.2456 13.3535 19.2819 13.3789 19.321 13.4043C21.6177 14.9799 24.0961 17.1852 24.49 17.5241C24.9622 17.9279 25.1075 17.7726 25.4903 17.0384C26.0156 15.8637 26.566 14.562 26.5632 13.1021C26.58 12.6899 26.2391 12.8565 25.9681 12.8621L25.9625 12.865ZM25.9625 12.865C25.9457 12.865 25.9094 12.865 25.8507 12.8565C25.806 12.8565 25.7418 12.8537 25.6719 12.8452C25.5099 12.8339 25.2807 12.817 25.0097 12.7944C24.965 12.7915 24.9175 12.7859 24.8728 12.7831C24.7387 12.7746 24.5906 12.7633 24.4341 12.7492H24.423C24.395 12.7464 24.3615 12.7464 24.3307 12.7407L24.2889 12.7859C24.2889 12.7859 24.2637 12.8057 24.2553 12.8141L24.205 12.865L24.1687 12.9017H24.1659L24.1072 12.961L24.029 12.9694H23.9703L19.212 13.328C19.2456 13.3535 19.2819 13.3789 19.321 13.4043C21.6177 14.9799 24.0961 17.1852 24.49 17.5241C24.9622 17.9279 25.1075 17.7726 25.4903 17.0384C26.0156 15.8637 26.566 14.562 26.5632 13.1021C26.58 12.6899 26.2391 12.8565 25.9681 12.8621L25.9625 12.865ZM26.2698 10.5693C25.8032 9.36919 25.2556 8.06746 24.2218 7.05092C23.9396 6.7516 23.8166 7.11304 23.635 7.31635C23.4506 7.51401 19.9525 10.4563 18.9689 11.9981L23.6462 11.1312L23.6993 11.1227L23.7775 11.1058L23.8949 11.1679L24.7359 11.6282L24.8477 11.6903C24.8896 11.7101 24.9343 11.7185 24.9846 11.7157C25.4428 11.6733 25.7781 11.6479 25.915 11.6366C26.5269 11.5773 26.5157 11.3599 26.2642 10.5693H26.2698ZM23.7524 18.3063C23.5596 18.1171 20.6175 14.4801 19.1114 13.5229C19.0165 13.4608 18.9354 13.4184 18.8684 13.3845L18.8069 14.8218C19.2372 17.366 19.4244 20.1021 19.4607 20.5794C19.5138 21.1978 19.7317 21.1893 20.5113 20.9408C21.7043 20.4805 23.0008 19.9412 24.015 18.9021C24.3112 18.6197 23.9536 18.4983 23.7524 18.3091V18.3063ZM22.3302 5.55435C21.1623 5.03478 19.8658 4.5011 18.4241 4.52087C18.0162 4.51239 18.181 4.85689 18.195 5.13079C18.2034 5.40187 17.7731 10.0779 18.1782 11.8315C18.1894 11.8823 18.2034 11.9275 18.2145 11.9698C18.2257 11.967 18.2425 11.967 18.2564 11.967C18.29 11.9642 18.3235 11.9585 18.357 11.9585C18.4744 11.9585 18.5862 11.984 18.6895 12.0348C18.7259 11.9755 18.7678 11.9077 18.8153 11.8371C20.3464 9.49343 22.4922 6.96056 22.8275 6.55677C23.2243 6.07674 23.0623 5.93273 22.3302 5.55435ZM18.4912 19.1618L18.3207 19.3172L18.1587 19.4725C18.0916 19.5318 17.9966 19.5261 17.9324 19.4612L17.7815 19.2974L17.6138 19.111L17.5523 19.0404L17.5077 18.9952V18.9275L17.516 18.8343L17.734 13.9916C16.2028 16.3042 14.1017 18.7778 13.772 19.1788C13.3752 19.656 13.5345 19.8028 14.2638 20.1869C15.4317 20.7008 16.7281 21.2373 18.1698 21.2203C18.5778 21.2288 18.4129 20.8871 18.3989 20.6132C18.3989 20.5201 18.4437 19.9525 18.4912 19.1647V19.1618ZM17.9351 11.775C17.3595 9.03034 17.0857 5.70683 17.0354 5.18162C16.9768 4.56322 16.7616 4.57452 15.9793 4.83148C14.7946 5.31151 13.5066 5.86778 12.5091 6.92103C12.2129 7.20622 12.5761 7.32482 12.7773 7.51118C12.9282 7.65519 14.736 9.82099 16.2559 11.2357L17.991 12.0376C17.9743 11.9614 17.9575 11.8738 17.9379 11.775H17.9351ZM17.6697 13.1473C17.5579 13.1586 17.4015 13.1982 17.2143 13.2405C14.4984 13.8165 11.2154 14.0876 10.6929 14.1385C10.0754 14.1978 10.0894 14.4152 10.3437 15.2058C10.8159 16.4031 11.3663 17.7048 12.4029 18.7213C12.6851 19.015 12.808 18.6508 12.9896 18.4474C13.1741 18.2498 16.7337 15.2312 17.6669 13.698C17.6948 13.6471 17.7256 13.6019 17.7451 13.5596L17.7563 13.2857C17.7228 13.2433 17.6893 13.1982 17.6641 13.1502L17.6697 13.1473ZM12.1682 10.8121L12.1263 10.8008L12.1179 10.798L12.0984 10.7895L12.0732 10.7641L12.0452 10.7359L11.5814 10.2728L11.2573 9.94523C11.154 9.84358 11.2154 9.66851 11.3607 9.65439L11.8189 9.61768L12.5035 9.56403H12.5565L12.5761 9.5612H12.6013L12.6348 9.5725H12.6432L12.6935 9.59791L14.5934 10.4733C13.283 9.47932 12.238 8.59832 11.9866 8.39501C11.506 8.00251 11.3663 8.17193 10.9975 8.91457C10.5057 10.1034 9.99722 11.422 10.0391 12.8791C10.0363 13.2885 10.3716 13.1106 10.6426 13.1021C10.9136 13.0852 15.5462 13.4523 17.2729 13.0146C17.326 13.0033 17.3763 12.9892 17.4182 12.9779L12.1654 10.8206L12.1682 10.8121ZM12.1682 10.8121L12.1263 10.8008L12.1179 10.798L12.0984 10.7895L12.0732 10.7641L12.0452 10.7359L11.5814 10.2728L11.2573 9.94523C11.154 9.84358 11.2154 9.66851 11.3607 9.65439L11.8189 9.61768L12.5035 9.56403H12.5565L12.5761 9.5612H12.6013L12.6348 9.5725H12.6432L12.6935 9.59791L14.5934 10.4733C13.283 9.47932 12.238 8.59832 11.9866 8.39501C11.506 8.00251 11.3663 8.17193 10.9975 8.91457C10.5057 10.1034 9.99722 11.422 10.0391 12.8791C10.0363 13.2885 10.3716 13.1106 10.6426 13.1021C10.9136 13.0852 15.5462 13.4523 17.2729 13.0146C17.326 13.0033 17.3763 12.9892 17.4182 12.9779L12.1654 10.8206L12.1682 10.8121ZM17.6697 13.1473C17.5579 13.1586 17.4015 13.1982 17.2143 13.2405C14.4984 13.8165 11.2154 14.0876 10.6929 14.1385C10.0754 14.1978 10.0894 14.4152 10.3437 15.2058C10.8159 16.4031 11.3663 17.7048 12.4029 18.7213C12.6851 19.015 12.808 18.6508 12.9896 18.4474C13.1741 18.2498 16.7337 15.2312 17.6669 13.698C17.6948 13.6471 17.7256 13.6019 17.7451 13.5596L17.7563 13.2857C17.7228 13.2433 17.6893 13.1982 17.6641 13.1502L17.6697 13.1473ZM17.9351 11.775C17.3595 9.03034 17.0857 5.70683 17.0354 5.18162C16.9768 4.56322 16.7616 4.57452 15.9793 4.83148C14.7946 5.31151 13.5066 5.86778 12.5091 6.92103C12.2129 7.20622 12.5761 7.32482 12.7773 7.51118C12.9282 7.65519 14.736 9.82099 16.2559 11.2357L17.991 12.0376C17.9743 11.9614 17.9575 11.8738 17.9379 11.775H17.9351ZM18.4912 19.1618L18.3207 19.3172L18.1587 19.4725C18.0916 19.5318 17.9966 19.5261 17.9324 19.4612L17.7815 19.2974L17.6138 19.111L17.5523 19.0404L17.5077 18.9952V18.9275L17.516 18.8343L17.734 13.9916C16.2028 16.3042 14.1017 18.7778 13.772 19.1788C13.3752 19.656 13.5345 19.8028 14.2638 20.1869C15.4317 20.7008 16.7281 21.2373 18.1698 21.2203C18.5778 21.2288 18.4129 20.8871 18.3989 20.6132C18.3989 20.5201 18.4437 19.9525 18.4912 19.1647V19.1618ZM22.3302 5.55435C21.1623 5.03478 19.8658 4.5011 18.4241 4.52087C18.0162 4.51239 18.181 4.85689 18.195 5.13079C18.2034 5.40187 17.7731 10.0779 18.1782 11.8315C18.1894 11.8823 18.2034 11.9275 18.2145 11.9698C18.2257 11.967 18.2425 11.967 18.2564 11.967C18.29 11.9642 18.3235 11.9585 18.357 11.9585C18.4744 11.9585 18.5862 11.984 18.6895 12.0348C18.7259 11.9755 18.7678 11.9077 18.8153 11.8371C20.3464 9.49343 22.4922 6.96056 22.8275 6.55677C23.2243 6.07674 23.0623 5.93273 22.3302 5.55435ZM23.7524 18.3063C23.5596 18.1171 20.6175 14.4801 19.1114 13.5229C19.0165 13.4608 18.9354 13.4184 18.8684 13.3845L18.8069 14.8218C19.2372 17.366 19.4244 20.1021 19.4607 20.5794C19.5138 21.1978 19.7317 21.1893 20.5113 20.9408C21.7043 20.4805 23.0008 19.9412 24.015 18.9021C24.3112 18.6197 23.9536 18.4983 23.7524 18.3091V18.3063ZM26.2698 10.5693C25.8032 9.36919 25.2556 8.06746 24.2218 7.05092C23.9396 6.7516 23.8166 7.11304 23.635 7.31635C23.4506 7.51401 19.9525 10.4563 18.9689 11.9981L23.6462 11.1312L23.6993 11.1227L23.7775 11.1058L23.8949 11.1679L24.7359 11.6282L24.8477 11.6903C24.8896 11.7101 24.9343 11.7185 24.9846 11.7157C25.4428 11.6733 25.7781 11.6479 25.915 11.6366C26.5269 11.5773 26.5157 11.3599 26.2642 10.5693H26.2698ZM25.9625 12.865C25.9457 12.865 25.9094 12.865 25.8507 12.8565C25.806 12.8565 25.7418 12.8537 25.6719 12.8452C25.5099 12.8339 25.2807 12.817 25.0097 12.7944C24.965 12.7915 24.9175 12.7859 24.8728 12.7831C24.7387 12.7746 24.5906 12.7633 24.4341 12.7492H24.423C24.395 12.7464 24.3615 12.7464 24.3307 12.7407L24.2889 12.7859C24.2889 12.7859 24.2637 12.8057 24.2553 12.8141L24.205 12.865L24.1687 12.9017H24.1659L24.1072 12.961L24.029 12.9694H23.9703L19.212 13.328C19.2456 13.3535 19.2819 13.3789 19.321 13.4043C21.6177 14.9799 24.0961 17.1852 24.49 17.5241C24.9622 17.9279 25.1075 17.7726 25.4903 17.0384C26.0156 15.8637 26.566 14.562 26.5632 13.1021C26.58 12.6899 26.2391 12.8565 25.9681 12.8621L25.9625 12.865ZM25.9625 12.865C25.9457 12.865 25.9094 12.865 25.8507 12.8565C25.806 12.8565 25.7418 12.8537 25.6719 12.8452C25.5099 12.8339 25.2807 12.817 25.0097 12.7944C24.965 12.7915 24.9175 12.7859 24.8728 12.7831C24.7387 12.7746 24.5906 12.7633 24.4341 12.7492H24.423C24.395 12.7464 24.3615 12.7464 24.3307 12.7407L24.2889 12.7859C24.2889 12.7859 24.2637 12.8057 24.2553 12.8141L24.205 12.865L24.1687 12.9017H24.1659L24.1072 12.961L24.029 12.9694H23.9703L19.212 13.328C19.2456 13.3535 19.2819 13.3789 19.321 13.4043C21.6177 14.9799 24.0961 17.1852 24.49 17.5241C24.9622 17.9279 25.1075 17.7726 25.4903 17.0384C26.0156 15.8637 26.566 14.562 26.5632 13.1021C26.58 12.6899 26.2391 12.8565 25.9681 12.8621L25.9625 12.865ZM26.2698 10.5693C25.8032 9.36919 25.2556 8.06746 24.2218 7.05092C23.9396 6.7516 23.8166 7.11304 23.635 7.31635C23.4506 7.51401 19.9525 10.4563 18.9689 11.9981L23.6462 11.1312L23.6993 11.1227L23.7775 11.1058L23.8949 11.1679L24.7359 11.6282L24.8477 11.6903C24.8896 11.7101 24.9343 11.7185 24.9846 11.7157C25.4428 11.6733 25.7781 11.6479 25.915 11.6366C26.5269 11.5773 26.5157 11.3599 26.2642 10.5693H26.2698ZM23.7524 18.3063C23.5596 18.1171 20.6175 14.4801 19.1114 13.5229C19.0165 13.4608 18.9354 13.4184 18.8684 13.3845L18.8069 14.8218C19.2372 17.366 19.4244 20.1021 19.4607 20.5794C19.5138 21.1978 19.7317 21.1893 20.5113 20.9408C21.7043 20.4805 23.0008 19.9412 24.015 18.9021C24.3112 18.6197 23.9536 18.4983 23.7524 18.3091V18.3063ZM22.3302 5.55435C21.1623 5.03478 19.8658 4.5011 18.4241 4.52087C18.0162 4.51239 18.181 4.85689 18.195 5.13079C18.2034 5.40187 17.7731 10.0779 18.1782 11.8315C18.1894 11.8823 18.2034 11.9275 18.2145 11.9698C18.2257 11.967 18.2425 11.967 18.2564 11.967C18.29 11.9642 18.3235 11.9585 18.357 11.9585C18.4744 11.9585 18.5862 11.984 18.6895 12.0348C18.7259 11.9755 18.7678 11.9077 18.8153 11.8371C20.3464 9.49343 22.4922 6.96056 22.8275 6.55677C23.2243 6.07674 23.0623 5.93273 22.3302 5.55435ZM18.4912 19.1618L18.3207 19.3172L18.1587 19.4725C18.0916 19.5318 17.9966 19.5261 17.9324 19.4612L17.7815 19.2974L17.6138 19.111L17.5523 19.0404L17.5077 18.9952V18.9275L17.516 18.8343L17.734 13.9916C16.2028 16.3042 14.1017 18.7778 13.772 19.1788C13.3752 19.656 13.5345 19.8028 14.2638 20.1869C15.4317 20.7008 16.7281 21.2373 18.1698 21.2203C18.5778 21.2288 18.4129 20.8871 18.3989 20.6132C18.3989 20.5201 18.4437 19.9525 18.4912 19.1647V19.1618ZM17.9351 11.775C17.3595 9.03034 17.0857 5.70683 17.0354 5.18162C16.9768 4.56322 16.7616 4.57452 15.9793 4.83148C14.7946 5.31151 13.5066 5.86778 12.5091 6.92103C12.2129 7.20622 12.5761 7.32482 12.7773 7.51118C12.9282 7.65519 14.736 9.82099 16.2559 11.2357L17.991 12.0376C17.9743 11.9614 17.9575 11.8738 17.9379 11.775H17.9351ZM17.6697 13.1473C17.5579 13.1586 17.4015 13.1982 17.2143 13.2405C14.4984 13.8165 11.2154 14.0876 10.6929 14.1385C10.0754 14.1978 10.0894 14.4152 10.3437 15.2058C10.8159 16.4031 11.3663 17.7048 12.4029 18.7213C12.6851 19.015 12.808 18.6508 12.9896 18.4474C13.1741 18.2498 16.7337 15.2312 17.6669 13.698C17.6948 13.6471 17.7256 13.6019 17.7451 13.5596L17.7563 13.2857C17.7228 13.2433 17.6893 13.1982 17.6641 13.1502L17.6697 13.1473ZM12.1682 10.8121L12.1263 10.8008L12.1179 10.798L12.0984 10.7895L12.0732 10.7641L12.0452 10.7359L11.5814 10.2728L11.2573 9.94523C11.154 9.84358 11.2154 9.66851 11.3607 9.65439L11.8189 9.61768L12.5035 9.56403H12.5565L12.5761 9.5612H12.6013L12.6348 9.5725H12.6432L12.6935 9.59791L14.5934 10.4733C13.283 9.47932 12.238 8.59832 11.9866 8.39501C11.506 8.00251 11.3663 8.17193 10.9975 8.91457C10.5057 10.1034 9.99722 11.422 10.0391 12.8791C10.0363 13.2885 10.3716 13.1106 10.6426 13.1021C10.9136 13.0852 15.5462 13.4523 17.2729 13.0146C17.326 13.0033 17.3763 12.9892 17.4182 12.9779L12.1654 10.8206L12.1682 10.8121ZM12.1682 10.8121L12.1263 10.8008L12.1179 10.798C12.1011 10.7895 12.0844 10.7782 12.0732 10.7641L12.0452 10.7359L11.5814 10.2728L11.2573 9.94523C11.154 9.84358 11.2154 9.66851 11.3607 9.65439L11.8189 9.61768L12.5035 9.56403H12.5565L12.5761 9.5612C12.5957 9.5612 12.618 9.56403 12.6348 9.5725H12.6432L12.6935 9.59791L14.5934 10.4733C13.283 9.47932 12.238 8.59832 11.9866 8.39501C11.506 8.00251 11.3663 8.17193 10.9975 8.91457C10.5057 10.1034 9.99722 11.422 10.0391 12.8791C10.0363 13.2885 10.3716 13.1106 10.6426 13.1021C10.9136 13.0852 15.5462 13.4523 17.2729 13.0146C17.326 13.0033 17.3763 12.9892 17.4182 12.9779L12.1654 10.8206L12.1682 10.8121ZM17.6697 13.1473C17.5579 13.1586 17.4015 13.1982 17.2143 13.2405C14.4984 13.8165 11.2154 14.0876 10.6929 14.1385C10.0754 14.1978 10.0894 14.4152 10.3437 15.2058C10.8159 16.4031 11.3663 17.7048 12.4029 18.7213C12.6851 19.015 12.808 18.6508 12.9896 18.4474C13.1741 18.2498 16.7337 15.2312 17.6669 13.698C17.6948 13.6471 17.7256 13.6019 17.7451 13.5596L17.7563 13.2857C17.7228 13.2433 17.6893 13.1982 17.6641 13.1502L17.6697 13.1473ZM17.9351 11.775C17.3595 9.03034 17.0857 5.70683 17.0354 5.18162C16.9768 4.56322 16.7616 4.57452 15.9793 4.83148C14.7946 5.31151 13.5066 5.86778 12.5091 6.92103C12.2129 7.20622 12.5761 7.32482 12.7773 7.51118C12.9282 7.65519 14.736 9.82099 16.2559 11.2357L17.991 12.0376C17.9743 11.9614 17.9575 11.8738 17.9379 11.775H17.9351ZM18.4912 19.1618L18.3207 19.3172L18.1587 19.4725C18.0916 19.5318 17.9966 19.5261 17.9324 19.4612L17.7815 19.2974L17.6138 19.111L17.5523 19.0404C17.5244 19.0122 17.5105 18.9698 17.5105 18.9275V18.8343L17.7312 13.9916C16.2 16.3042 14.0989 18.7778 13.7692 19.1788C13.3724 19.656 13.5317 19.8028 14.261 20.1869C15.4289 20.7008 16.7253 21.2373 18.1671 21.2203C18.575 21.2288 18.4101 20.8871 18.3962 20.6132C18.3962 20.5201 18.4409 19.9525 18.4884 19.1647L18.4912 19.1618ZM22.3302 5.55435C21.1623 5.03478 19.8658 4.5011 18.4241 4.52087C18.0162 4.51239 18.181 4.85689 18.195 5.13079C18.2034 5.40187 17.7731 10.0779 18.1782 11.8315C18.1894 11.8823 18.2034 11.9275 18.2145 11.9698C18.2257 11.967 18.2425 11.967 18.2564 11.967C18.29 11.9642 18.3235 11.9585 18.357 11.9585C18.4744 11.9585 18.5862 11.984 18.6895 12.0348C18.7259 11.9755 18.7678 11.9077 18.8153 11.8371C20.3464 9.49343 22.4922 6.96056 22.8275 6.55677C23.2243 6.07674 23.0623 5.93273 22.3302 5.55435ZM23.7524 18.3063C23.5596 18.1171 20.6175 14.4801 19.1114 13.5229C19.0165 13.4608 18.9354 13.4184 18.8684 13.3845L18.8069 14.8218C19.2372 17.366 19.4244 20.1021 19.4607 20.5794C19.5138 21.1978 19.7317 21.1893 20.5113 20.9408C21.7043 20.4805 23.0008 19.9412 24.015 18.9021C24.3112 18.6197 23.9536 18.4983 23.7524 18.3091V18.3063ZM26.2698 10.5693C25.8032 9.36919 25.2556 8.06746 24.2218 7.05092C23.9396 6.7516 23.8166 7.11304 23.635 7.31635C23.4506 7.51401 19.9525 10.4563 18.9689 11.9981L23.6462 11.1312L23.6993 11.1227C23.7496 11.1142 23.8027 11.1227 23.8502 11.1481L23.8949 11.1679L24.7359 11.6282L24.8477 11.6903C24.8896 11.7101 24.9343 11.7185 24.9846 11.7157C25.4428 11.6733 25.7781 11.6479 25.915 11.6366C26.5269 11.5773 26.5157 11.3599 26.2642 10.5693H26.2698ZM25.9625 12.865C25.9457 12.865 25.9094 12.865 25.8507 12.8565C25.806 12.8565 25.7418 12.8537 25.6719 12.8452C25.5099 12.8339 25.2807 12.817 25.0097 12.7944C24.965 12.7915 24.9175 12.7859 24.8728 12.7831C24.7387 12.7746 24.5906 12.7633 24.4341 12.7492H24.423C24.395 12.7464 24.3615 12.7464 24.3307 12.7407L24.2889 12.7859C24.2889 12.7859 24.2637 12.8057 24.2553 12.8141L24.205 12.865L24.1687 12.9017H24.1659C24.1296 12.9384 24.0793 12.9638 24.029 12.9694H23.9703L19.212 13.328C19.2456 13.3535 19.2819 13.3789 19.321 13.4043C21.6177 14.9799 24.0961 17.1852 24.49 17.5241C24.9622 17.9279 25.1075 17.7726 25.4903 17.0384C26.0156 15.8637 26.566 14.562 26.5632 13.1021C26.58 12.6899 26.2391 12.8565 25.9681 12.8621L25.9625 12.865ZM25.9625 12.865C25.9457 12.865 25.9094 12.865 25.8507 12.8565C25.806 12.8565 25.7418 12.8537 25.6719 12.8452C25.5099 12.8339 25.2807 12.817 25.0097 12.7944C24.965 12.7915 24.9175 12.7859 24.8728 12.7831C24.7387 12.7746 24.5906 12.7633 24.4341 12.7492H24.423C24.395 12.7464 24.3615 12.7464 24.3307 12.7407L24.2889 12.7859C24.2889 12.7859 24.2637 12.8057 24.2553 12.8141L24.205 12.865L24.1687 12.9017H24.1659C24.1296 12.9384 24.0793 12.9638 24.029 12.9694H23.9703L19.212 13.328C19.2456 13.3535 19.2819 13.3789 19.321 13.4043C21.6177 14.9799 24.0961 17.1852 24.49 17.5241C24.9622 17.9279 25.1075 17.7726 25.4903 17.0384C26.0156 15.8637 26.566 14.562 26.5632 13.1021C26.58 12.6899 26.2391 12.8565 25.9681 12.8621L25.9625 12.865ZM18.9689 11.9981L23.6462 11.1312L23.6993 11.1227C23.7496 11.1142 23.8027 11.1227 23.8502 11.1481L23.8949 11.1679L24.7359 11.6282L24.8477 11.6903C24.8896 11.7101 24.9343 11.7185 24.9846 11.7157C25.4428 11.6733 25.7781 11.6479 25.915 11.6366C26.5269 11.5773 26.5157 11.3599 26.2642 10.5693C25.7976 9.36919 25.25 8.06746 24.2162 7.05092C23.934 6.7516 23.811 7.11304 23.6294 7.31635C23.445 7.51401 19.9469 10.4563 18.9634 11.9981H18.9689ZM23.7524 18.3063C23.5596 18.1171 20.6175 14.4801 19.1114 13.5229C19.0165 13.4608 18.9354 13.4184 18.8684 13.3845L18.8069 14.8218C19.2372 17.366 19.4244 20.1021 19.4607 20.5794C19.5138 21.1978 19.7317 21.1893 20.5113 20.9408C21.7043 20.4805 23.0008 19.9412 24.015 18.9021C24.3112 18.6197 23.9536 18.4983 23.7524 18.3091V18.3063ZM22.8275 6.55677C23.2243 6.07674 23.0623 5.93273 22.3302 5.55435C21.1623 5.03478 19.8658 4.5011 18.4241 4.52087C18.0162 4.51239 18.181 4.85689 18.195 5.13079C18.2034 5.40187 17.7731 10.0779 18.1782 11.8315C18.1894 11.8823 18.2034 11.9275 18.2145 11.9698C18.2257 11.967 18.2425 11.967 18.2564 11.967C18.29 11.9642 18.3235 11.9585 18.357 11.9585C18.4744 11.9585 18.5862 11.984 18.6895 12.0348C18.7259 11.9755 18.7678 11.9077 18.8153 11.8371C20.3464 9.49343 22.4922 6.96056 22.8275 6.55677ZM18.3179 19.3172L18.1559 19.4725C18.0888 19.5318 17.9938 19.5261 17.9296 19.4612L17.7787 19.2974L17.611 19.111L17.5495 19.0404C17.5216 19.0122 17.5077 18.9698 17.5077 18.9275V18.8343L17.7284 13.9916C16.1972 16.3042 14.0961 18.7778 13.7664 19.1788C13.3696 19.656 13.5289 19.8028 14.2582 20.1869C15.4261 20.7008 16.7225 21.2373 18.1643 21.2203C18.5722 21.2288 18.4073 20.8871 18.3934 20.6132C18.3934 20.5201 18.4381 19.9525 18.4856 19.1647L18.3151 19.32L18.3179 19.3172ZM12.7773 7.50836C12.9282 7.65237 14.736 9.81816 16.2559 11.2328L17.991 12.0348C17.9743 11.9585 17.9575 11.871 17.9379 11.7722C17.3623 9.02752 17.0885 5.704 17.0382 5.17879C16.9796 4.5604 16.7644 4.57169 15.9821 4.82865C14.7974 5.30868 13.5093 5.86496 12.5119 6.9182C12.2157 7.2034 12.5789 7.322 12.7801 7.50836H12.7773ZM17.6697 13.6951C17.6976 13.6443 17.7284 13.5991 17.7479 13.5568L17.7591 13.2829C17.7256 13.2405 17.6921 13.1953 17.6669 13.1473C17.5551 13.1586 17.3987 13.1982 17.2115 13.2405C14.4956 13.8165 11.2126 14.0876 10.6901 14.1385C10.0726 14.1978 10.0866 14.4152 10.3409 15.2058C10.8131 16.4031 11.3635 17.7048 12.4001 18.7213C12.6823 19.015 12.8052 18.6508 12.9868 18.4474C13.1713 18.2498 16.7309 15.2312 17.6641 13.698L17.6697 13.6951ZM10.6454 13.0965C10.9164 13.0796 15.549 13.4466 17.2757 13.009C17.3288 12.9977 17.3791 12.9836 17.421 12.9723L12.1682 10.8149L12.1263 10.8036L12.1179 10.8008C12.1011 10.7923 12.0844 10.7811 12.0732 10.7669L12.0452 10.7387L11.5814 10.2756L11.2573 9.94805C11.154 9.8464 11.2154 9.67133 11.3607 9.65721L11.8189 9.6205L12.5035 9.56685H12.5565L12.5761 9.56403C12.5957 9.56403 12.618 9.56685 12.6348 9.57532H12.6432L12.6935 9.60074L14.5934 10.4761C13.283 9.48214 12.238 8.60114 11.9866 8.39783C11.506 8.00533 11.3663 8.17476 10.9975 8.9174C10.5057 10.1062 9.99722 11.4249 10.0391 12.8819C10.0363 13.2913 10.3716 13.1134 10.6426 13.105L10.6454 13.0965ZM29.9357 9.71651C29.0192 7.64672 27.8457 6.25745 27.0578 5.47811C27.312 5.33127 27.4908 5.09973 27.5579 4.81171C27.6613 4.32321 27.4713 3.58904 25.9401 2.86052C24.7135 2.27883 23.3752 2.09811 22.4503 2.05011C22.5537 1.76492 22.5705 1.45713 22.4783 1.16629C22.3693 0.813323 21.9362 9.15527e-05 20.2766 9.15527e-05C19.9608 9.15527e-05 19.606 0.0283287 19.2288 0.0876268C17.502 0.361528 15.9765 1.22559 14.9874 1.9174C14.9371 1.59267 14.8198 1.29053 14.6409 1.02793C14.261 0.468829 13.6518 0.161044 12.9282 0.161044C12.2828 0.161044 11.2434 0.415178 9.95809 1.61526C7.13608 4.26108 6.22522 7.91498 7.44902 11.6621C7.44623 11.7129 7.43783 11.7581 7.43224 11.8089C6.63873 11.0719 5.60492 10.4733 4.35038 10.4733C3.38643 10.4733 2.4197 10.8347 1.47251 11.5576C0.556059 12.2494 0.00562307 13.0909 3.494e-05 13.8024C-0.00275913 14.2119 0.162077 14.5733 0.475012 14.819C0.882946 15.1437 1.51719 15.1945 2.32189 15.2566C3.21878 15.3272 4.33641 15.4176 5.22772 15.9315C5.95418 16.3438 6.5214 17.2756 7.17521 18.3543C7.48815 18.8682 7.80946 19.399 8.18386 19.9299C8.94385 21.0142 9.8463 21.9658 10.8438 22.7564C10.3884 22.6096 10.0112 22.5362 9.69263 22.5362C9.07514 22.5362 8.75944 22.8101 8.60577 23.0416C8.32357 23.4539 8.33194 24.0356 8.62531 24.8149C8.98854 25.7665 9.93574 26.512 11.1484 27.0428C11.1819 27.0513 11.2098 27.0626 11.2406 27.0796C11.2489 27.0824 11.2601 27.088 11.2685 27.0909C11.3523 27.1276 11.4389 27.1614 11.5284 27.1953H11.52C11.52 27.1953 11.4948 27.1953 11.4836 27.1982C11.6848 27.2913 11.9083 27.3704 12.143 27.4466C12.1235 27.4269 12.0983 27.4043 12.0732 27.3845C12.5118 27.5285 12.9645 27.6415 13.4367 27.7347C13.4255 27.7375 13.4171 27.7375 13.4032 27.7431C14.4901 27.938 15.468 27.9831 15.468 27.9831C15.6943 27.9916 15.9178 28.0001 16.1386 28.0001C16.8091 28.0001 17.4601 27.9493 18.0776 27.8476C21.4724 27.3083 23.9535 25.8625 26.0463 23.1828C26.0631 23.3438 26.0882 23.5076 26.1217 23.6854C26.4542 25.4079 27.9491 26.6108 29.0751 26.6108C29.6255 26.6108 30.0837 26.3539 30.3604 25.8851C30.528 25.5943 30.5643 25.2526 30.4889 24.9364C30.3017 24.2163 29.6087 24.0808 28.8655 23.917C28.1223 23.7532 27.8233 23.1659 27.8233 22.7423C29.1896 22.6915 30.5252 20.5426 30.5252 20.5426C30.7459 20.0796 30.9164 19.56 31.017 19.0009C31.3411 17.1852 31.6344 13.5652 29.9329 9.71369L29.9357 9.71651ZM25.5322 3.40832C27.4126 4.30626 26.9655 4.95854 26.2503 4.91336C25.5322 4.87101 24.4649 3.84317 23.4115 3.25866C22.3889 2.68545 21.9362 2.67698 21.9055 2.67698C21.967 2.67415 23.6909 2.53297 25.5322 3.41114V3.40832ZM19.1617 0.866973C21.9921 0.420826 22.1262 1.68585 21.3215 2.25342C20.5168 2.81816 18.4325 2.38049 16.7588 2.51603C15.3115 2.63462 14.7667 2.9537 14.6437 3.03841C14.8617 2.82381 16.5241 1.28488 19.1589 0.866973H19.1617ZM20.0083 4.07472C22.5733 4.56887 24.9035 6.18121 26.2391 8.68867C28.5945 13.105 26.9656 18.6169 22.59 20.9973C22.4112 21.0933 22.2268 21.1836 22.0424 21.2712L21.7965 21.3163C20.6091 21.8359 19.3042 22.1013 17.9687 22.0618L17.9016 22.0731C17.6026 22.0562 17.3009 22.0223 17.0019 21.9799C16.9935 21.9771 16.9852 21.9771 16.9768 21.9771C16.8734 21.9602 16.7644 21.9432 16.661 21.9234C16.323 21.8641 15.9849 21.7851 15.6524 21.6834C15.4512 21.6241 15.2612 21.5535 15.074 21.4801L15.007 21.4378C13.8055 20.9577 12.6963 20.2123 11.7826 19.2353L11.5814 19.0969C9.53058 16.8182 8.67562 13.5398 9.61442 10.3688C10.9612 5.83107 15.5015 3.14571 20.0083 4.07189V4.07472ZM10.1704 2.57815C13.0483 -0.237101 14.7164 1.81857 13.8223 3.81211C10.7963 5.43575 8.67561 8.55314 8.41856 12.1901L8.40737 12.1618C7.17798 8.99364 7.27299 5.41598 10.1704 2.57815ZM25.915 22.2623C24.6353 24.3321 21.7909 26.4894 18.3598 27.0372C14.9287 27.585 10.5253 26.7181 9.61163 24.6314C8.70356 22.5447 10.5616 23.2619 12.7941 24.3857C15.0237 25.5152 18.1028 26.0037 21.5758 24.6173C25.0209 23.2449 26.2335 20.3817 26.2503 20.3365C26.2056 20.3873 23.2019 23.6346 19.7625 24.4535C16.2978 25.2837 11.6429 23.437 8.82088 19.4188C7.62502 17.7076 7.09136 15.971 5.67756 15.2256C4.00671 14.3361 1.51162 14.5592 1.04501 13.9606C0.698549 13.5172 1.1037 12.8282 2.07045 12.0941C4.9651 9.89723 7.32329 12.3793 8.49959 14.4378C9.22046 19.4273 13.4702 23.2562 18.6057 23.2562C23.3416 23.2562 27.3288 19.9948 28.48 15.5701C28.1558 18.5745 26.7588 20.8928 25.915 22.2623ZM28.4213 24.3349C28.8515 24.4479 29.2539 24.4366 29.5389 24.637C29.7568 24.798 29.9105 25.1735 29.7345 25.47C29.1086 26.5289 27.2086 25.3656 26.8566 23.564C26.5241 21.8585 27.2366 20.9097 27.312 20.8165C27.2925 20.8871 27.0857 21.6213 27.1667 22.4854C27.2505 23.4031 27.6557 24.1344 28.4213 24.3321V24.3349ZM30.3995 18.7524C29.9915 21.0227 28.3151 22.6153 27.692 21.8613C27.0661 21.1017 29.4802 17.6257 29.4718 13.2772C29.4634 9.05576 26.1609 5.48658 25.9681 5.28045C26.1273 5.41034 28.0077 7.00009 29.3377 9.99888C30.7208 13.1304 30.8018 16.4793 30.3967 18.7524H30.3995ZM25.9625 12.865C25.9457 12.865 25.9094 12.865 25.8507 12.8565C25.806 12.8565 25.7418 12.8537 25.6719 12.8452C25.5099 12.8339 25.2807 12.817 25.0097 12.7944C24.965 12.7915 24.9175 12.7859 24.8728 12.7831C24.7387 12.7746 24.5906 12.7633 24.4341 12.7492H24.423C24.395 12.7464 24.3615 12.7464 24.3307 12.7407L24.2889 12.7859C24.2889 12.7859 24.2637 12.8057 24.2553 12.8141L24.205 12.865L24.1687 12.9017H24.1659C24.1296 12.9384 24.0793 12.9638 24.029 12.9694H23.9703L19.212 13.328C19.2456 13.3535 19.2819 13.3789 19.321 13.4043C21.6177 14.9799 24.0961 17.1852 24.49 17.5241C24.9622 17.9279 25.1075 17.7726 25.4903 17.0384C26.0156 15.8637 26.566 14.562 26.5632 13.1021C26.58 12.6899 26.2391 12.8565 25.9681 12.8621L25.9625 12.865ZM18.9689 11.9981L23.6462 11.1312L23.6993 11.1227C23.7496 11.1142 23.8027 11.1227 23.8502 11.1481L23.8949 11.1679L24.7359 11.6282L24.8477 11.6903C24.8896 11.7101 24.9343 11.7185 24.9846 11.7157C25.4428 11.6733 25.7781 11.6479 25.915 11.6366C26.5269 11.5773 26.5157 11.3599 26.2642 10.5693C25.7976 9.36919 25.25 8.06746 24.2162 7.05092C23.934 6.7516 23.811 7.11304 23.6294 7.31635C23.445 7.51401 19.9469 10.4563 18.9634 11.9981H18.9689ZM23.7524 18.3063C23.5596 18.1171 20.6175 14.4801 19.1114 13.5229C19.0165 13.4608 18.9354 13.4184 18.8684 13.3845L18.8069 14.8218C19.2372 17.366 19.4244 20.1021 19.4607 20.5794C19.5138 21.1978 19.7317 21.1893 20.5113 20.9408C21.7043 20.4805 23.0008 19.9412 24.015 18.9021C24.3112 18.6197 23.9536 18.4983 23.7524 18.3091V18.3063ZM18.1782 11.8315C18.1894 11.8823 18.2034 11.9275 18.2145 11.9698C18.2257 11.967 18.2425 11.967 18.2564 11.967C18.29 11.9642 18.3235 11.9585 18.357 11.9585C18.4744 11.9585 18.5862 11.984 18.6895 12.0348C18.7259 11.9755 18.7678 11.9077 18.8153 11.8371C20.3464 9.49343 22.4922 6.96056 22.8275 6.55677C23.2243 6.07674 23.0623 5.93273 22.3302 5.55435C21.1623 5.03478 19.8658 4.5011 18.4241 4.52087C18.0162 4.51239 18.181 4.85689 18.195 5.13079C18.2034 5.40187 17.7731 10.0779 18.1782 11.8315ZM18.1559 19.4725C18.0888 19.5318 17.9938 19.5261 17.9296 19.4612L17.7787 19.2974L17.611 19.111L17.5495 19.0404C17.5216 19.0122 17.5077 18.9698 17.5077 18.9275V18.8343L17.7284 13.9916C16.1972 16.3042 14.0961 18.7778 13.7664 19.1788C13.3696 19.656 13.5289 19.8028 14.2582 20.1869C15.4261 20.7008 16.7225 21.2373 18.1643 21.2203C18.5722 21.2288 18.4073 20.8871 18.3934 20.6132C18.3934 20.5201 18.4381 19.9525 18.4856 19.1647L18.3151 19.32L18.1531 19.4753L18.1559 19.4725ZM12.7773 7.50836C12.9282 7.65237 14.736 9.81816 16.2559 11.2328L17.991 12.0348C17.9743 11.9585 17.9575 11.871 17.9379 11.7722C17.3623 9.02752 17.0885 5.704 17.0382 5.17879C16.9796 4.5604 16.7644 4.57169 15.9821 4.82865C14.7974 5.30868 13.5093 5.86496 12.5119 6.9182C12.2157 7.2034 12.5789 7.322 12.7801 7.50836H12.7773ZM17.6697 13.6951C17.6976 13.6443 17.7284 13.5991 17.7479 13.5568L17.7591 13.2829C17.7256 13.2405 17.6921 13.1953 17.6669 13.1473C17.5551 13.1586 17.3987 13.1982 17.2115 13.2405C14.4956 13.8165 11.2126 14.0876 10.6901 14.1385C10.0726 14.1978 10.0866 14.4152 10.3409 15.2058C10.8131 16.4031 11.3635 17.7048 12.4001 18.7213C12.6823 19.015 12.8052 18.6508 12.9868 18.4474C13.1713 18.2498 16.7309 15.2312 17.6641 13.698L17.6697 13.6951ZM11.0003 8.90893C10.5085 10.0977 9.99998 11.4164 10.0419 12.8734C10.0391 13.2829 10.3744 13.105 10.6454 13.0965C10.9164 13.0796 15.549 13.4466 17.2757 13.009C17.3288 12.9977 17.3791 12.9836 17.421 12.9723L12.1682 10.8149L12.1263 10.8036L12.1179 10.8008C12.1011 10.7923 12.0844 10.7811 12.0732 10.7669L12.0452 10.7387L11.5814 10.2756L11.2573 9.94805C11.154 9.8464 11.2154 9.67133 11.3607 9.65721L11.8189 9.6205L12.5035 9.56685H12.5565L12.5761 9.56403C12.5957 9.56403 12.618 9.56685 12.6348 9.57532H12.6432L12.6935 9.60074L14.5934 10.4761C13.283 9.48214 12.238 8.60114 11.9866 8.39783C11.506 8.00533 11.3663 8.17476 10.9975 8.9174L11.0003 8.90893ZM12.1682 10.8121L12.1263 10.8008L12.1179 10.798C12.1011 10.7895 12.0844 10.7782 12.0732 10.7641L12.0452 10.7359L11.5814 10.2728L11.2573 9.94523C11.154 9.84358 11.2154 9.66851 11.3607 9.65439L11.8189 9.61768L12.5035 9.56403H12.5565L12.5761 9.5612C12.5957 9.5612 12.618 9.56403 12.6348 9.5725H12.6432L12.6935 9.59791L14.5934 10.4733C13.283 9.47932 12.238 8.59832 11.9866 8.39501C11.506 8.00251 11.3663 8.17193 10.9975 8.91457C10.5057 10.1034 9.99722 11.422 10.0391 12.8791C10.0363 13.2885 10.3716 13.1106 10.6426 13.1021C10.9136 13.0852 15.5462 13.4523 17.2729 13.0146C17.326 13.0033 17.3763 12.9892 17.4182 12.9779L12.1654 10.8206L12.1682 10.8121ZM17.6697 13.1473C17.5579 13.1586 17.4015 13.1982 17.2143 13.2405C14.4984 13.8165 11.2154 14.0876 10.6929 14.1385C10.0754 14.1978 10.0894 14.4152 10.3437 15.2058C10.8159 16.4031 11.3663 17.7048 12.4029 18.7213C12.6851 19.015 12.808 18.6508 12.9896 18.4474C13.1741 18.2498 16.7337 15.2312 17.6669 13.698C17.6948 13.6471 17.7256 13.6019 17.7451 13.5596L17.7563 13.2857C17.7228 13.2433 17.6893 13.1982 17.6641 13.1502L17.6697 13.1473ZM17.9351 11.775C17.3595 9.03034 17.0857 5.70683 17.0354 5.18162C16.9768 4.56322 16.7616 4.57452 15.9793 4.83148C14.7946 5.31151 13.5066 5.86778 12.5091 6.92103C12.2129 7.20622 12.5761 7.32482 12.7773 7.51118C12.9282 7.65519 14.736 9.82099 16.2559 11.2357L17.991 12.0376C17.9743 11.9614 17.9575 11.8738 17.9379 11.775H17.9351ZM18.4912 19.1618L18.3207 19.3172L18.1587 19.4725C18.0916 19.5318 17.9966 19.5261 17.9324 19.4612L17.7815 19.2974L17.6138 19.111L17.5523 19.0404C17.5244 19.0122 17.5105 18.9698 17.5105 18.9275V18.8343L17.7312 13.9916C16.2 16.3042 14.0989 18.7778 13.7692 19.1788C13.3724 19.656 13.5317 19.8028 14.261 20.1869C15.4289 20.7008 16.7253 21.2373 18.1671 21.2203C18.575 21.2288 18.4101 20.8871 18.3962 20.6132C18.3962 20.5201 18.4409 19.9525 18.4884 19.1647L18.4912 19.1618ZM22.3302 5.55435C21.1623 5.03478 19.8658 4.5011 18.4241 4.52087C18.0162 4.51239 18.181 4.85689 18.195 5.13079C18.2034 5.40187 17.7731 10.0779 18.1782 11.8315C18.1894 11.8823 18.2034 11.9275 18.2145 11.9698C18.2257 11.967 18.2425 11.967 18.2564 11.967C18.29 11.9642 18.3235 11.9585 18.357 11.9585C18.4744 11.9585 18.5862 11.984 18.6895 12.0348C18.7259 11.9755 18.7678 11.9077 18.8153 11.8371C20.3464 9.49343 22.4922 6.96056 22.8275 6.55677C23.2243 6.07674 23.0623 5.93273 22.3302 5.55435ZM23.7524 18.3063C23.5596 18.1171 20.6175 14.4801 19.1114 13.5229C19.0165 13.4608 18.9354 13.4184 18.8684 13.3845L18.8069 14.8218C19.2372 17.366 19.4244 20.1021 19.4607 20.5794C19.5138 21.1978 19.7317 21.1893 20.5113 20.9408C21.7043 20.4805 23.0008 19.9412 24.015 18.9021C24.3112 18.6197 23.9536 18.4983 23.7524 18.3091V18.3063ZM26.2698 10.5693C25.8032 9.36919 25.2556 8.06746 24.2218 7.05092C23.9396 6.7516 23.8166 7.11304 23.635 7.31635C23.4506 7.51401 19.9525 10.4563 18.9689 11.9981L23.6462 11.1312L23.6993 11.1227C23.7496 11.1142 23.8027 11.1227 23.8502 11.1481L23.8949 11.1679L24.7359 11.6282L24.8477 11.6903C24.8896 11.7101 24.9343 11.7185 24.9846 11.7157C25.4428 11.6733 25.7781 11.6479 25.915 11.6366C26.5269 11.5773 26.5157 11.3599 26.2642 10.5693H26.2698ZM25.9625 12.865C25.9457 12.865 25.9094 12.865 25.8507 12.8565C25.806 12.8565 25.7418 12.8537 25.6719 12.8452C25.5099 12.8339 25.2807 12.817 25.0097 12.7944C24.965 12.7915 24.9175 12.7859 24.8728 12.7831C24.7387 12.7746 24.5906 12.7633 24.4341 12.7492H24.423C24.395 12.7464 24.3615 12.7464 24.3307 12.7407L24.2889 12.7859C24.2889 12.7859 24.2637 12.8057 24.2553 12.8141L24.205 12.865L24.1687 12.9017H24.1659C24.1296 12.9384 24.0793 12.9638 24.029 12.9694H23.9703L19.212 13.328C19.2456 13.3535 19.2819 13.3789 19.321 13.4043C21.6177 14.9799 24.0961 17.1852 24.49 17.5241C24.9622 17.9279 25.1075 17.7726 25.4903 17.0384C26.0156 15.8637 26.566 14.562 26.5632 13.1021C26.58 12.6899 26.2391 12.8565 25.9681 12.8621L25.9625 12.865ZM25.9625 12.865C25.9457 12.865 25.9094 12.865 25.8507 12.8565C25.806 12.8565 25.7418 12.8537 25.6719 12.8452C25.5099 12.8339 25.2807 12.817 25.0097 12.7944C24.965 12.7915 24.9175 12.7859 24.8728 12.7831C24.7387 12.7746 24.5906 12.7633 24.4341 12.7492H24.423C24.395 12.7464 24.3615 12.7464 24.3307 12.7407L24.2889 12.7859C24.2889 12.7859 24.2637 12.8057 24.2553 12.8141L24.205 12.865L24.1687 12.9017H24.1659L24.1072 12.961L24.029 12.9694H23.9703L19.212 13.328C19.2456 13.3535 19.2819 13.3789 19.321 13.4043C21.6177 14.9799 24.0961 17.1852 24.49 17.5241C24.9622 17.9279 25.1075 17.7726 25.4903 17.0384C26.0156 15.8637 26.566 14.562 26.5632 13.1021C26.58 12.6899 26.2391 12.8565 25.9681 12.8621L25.9625 12.865ZM26.2698 10.5693C25.8032 9.36919 25.2556 8.06746 24.2218 7.05092C23.9396 6.7516 23.8166 7.11304 23.635 7.31635C23.4506 7.51401 19.9525 10.4563 18.9689 11.9981L23.6462 11.1312L23.6993 11.1227L23.7775 11.1058L23.8949 11.1679L24.7359 11.6282L24.8477 11.6903C24.8896 11.7101 24.9343 11.7185 24.9846 11.7157C25.4428 11.6733 25.7781 11.6479 25.915 11.6366C26.5269 11.5773 26.5157 11.3599 26.2642 10.5693H26.2698ZM23.7524 18.3063C23.5596 18.1171 20.6175 14.4801 19.1114 13.5229C19.0165 13.4608 18.9354 13.4184 18.8684 13.3845L18.8069 14.8218C19.2372 17.366 19.4244 20.1021 19.4607 20.5794C19.5138 21.1978 19.7317 21.1893 20.5113 20.9408C21.7043 20.4805 23.0008 19.9412 24.015 18.9021C24.3112 18.6197 23.9536 18.4983 23.7524 18.3091V18.3063ZM22.3302 5.55435C21.1623 5.03478 19.8658 4.5011 18.4241 4.52087C18.0162 4.51239 18.181 4.85689 18.195 5.13079C18.2034 5.40187 17.7731 10.0779 18.1782 11.8315C18.1894 11.8823 18.2034 11.9275 18.2145 11.9698C18.2257 11.967 18.2425 11.967 18.2564 11.967C18.29 11.9642 18.3235 11.9585 18.357 11.9585C18.4744 11.9585 18.5862 11.984 18.6895 12.0348C18.7259 11.9755 18.7678 11.9077 18.8153 11.8371C20.3464 9.49343 22.4922 6.96056 22.8275 6.55677C23.2243 6.07674 23.0623 5.93273 22.3302 5.55435ZM18.4912 19.1618L18.3207 19.3172L18.1587 19.4725C18.0916 19.5318 17.9966 19.5261 17.9324 19.4612L17.7815 19.2974L17.6138 19.111L17.5523 19.0404L17.5077 18.9952V18.9275L17.516 18.8343L17.734 13.9916C16.2028 16.3042 14.1017 18.7778 13.772 19.1788C13.3752 19.656 13.5345 19.8028 14.2638 20.1869C15.4317 20.7008 16.7281 21.2373 18.1698 21.2203C18.5778 21.2288 18.4129 20.8871 18.3989 20.6132C18.3989 20.5201 18.4437 19.9525 18.4912 19.1647V19.1618ZM17.9351 11.775C17.3595 9.03034 17.0857 5.70683 17.0354 5.18162C16.9768 4.56322 16.7616 4.57452 15.9793 4.83148C14.7946 5.31151 13.5066 5.86778 12.5091 6.92103C12.2129 7.20622 12.5761 7.32482 12.7773 7.51118C12.9282 7.65519 14.736 9.82099 16.2559 11.2357L17.991 12.0376C17.9743 11.9614 17.9575 11.8738 17.9379 11.775H17.9351ZM17.6697 13.1473C17.5579 13.1586 17.4015 13.1982 17.2143 13.2405C14.4984 13.8165 11.2154 14.0876 10.6929 14.1385C10.0754 14.1978 10.0894 14.4152 10.3437 15.2058C10.8159 16.4031 11.3663 17.7048 12.4029 18.7213C12.6851 19.015 12.808 18.6508 12.9896 18.4474C13.1741 18.2498 16.7337 15.2312 17.6669 13.698C17.6948 13.6471 17.7256 13.6019 17.7451 13.5596L17.7563 13.2857C17.7228 13.2433 17.6893 13.1982 17.6641 13.1502L17.6697 13.1473ZM12.1682 10.8121L12.1263 10.8008L12.1179 10.798L12.0984 10.7895L12.0732 10.7641L12.0452 10.7359L11.5814 10.2728L11.2573 9.94523C11.154 9.84358 11.2154 9.66851 11.3607 9.65439L11.8189 9.61768L12.5035 9.56403H12.5565L12.5761 9.5612H12.6013L12.6348 9.5725H12.6432L12.6935 9.59791L14.5934 10.4733C13.283 9.47932 12.238 8.59832 11.9866 8.39501C11.506 8.00251 11.3663 8.17193 10.9975 8.91457C10.5057 10.1034 9.99722 11.422 10.0391 12.8791C10.0363 13.2885 10.3716 13.1106 10.6426 13.1021C10.9136 13.0852 15.5462 13.4523 17.2729 13.0146C17.326 13.0033 17.3763 12.9892 17.4182 12.9779L12.1654 10.8206L12.1682 10.8121ZM12.1682 10.8121L12.1263 10.8008L12.1179 10.798L12.0984 10.7895L12.0732 10.7641L12.0452 10.7359L11.5814 10.2728L11.2573 9.94523C11.154 9.84358 11.2154 9.66851 11.3607 9.65439L11.8189 9.61768L12.5035 9.56403H12.5565L12.5761 9.5612H12.6013L12.6348 9.5725H12.6432L12.6935 9.59791L14.5934 10.4733C13.283 9.47932 12.238 8.59832 11.9866 8.39501C11.506 8.00251 11.3663 8.17193 10.9975 8.91457C10.5057 10.1034 9.99722 11.422 10.0391 12.8791C10.0363 13.2885 10.3716 13.1106 10.6426 13.1021C10.9136 13.0852 15.5462 13.4523 17.2729 13.0146C17.326 13.0033 17.3763 12.9892 17.4182 12.9779L12.1654 10.8206L12.1682 10.8121ZM17.6697 13.1473C17.5579 13.1586 17.4015 13.1982 17.2143 13.2405C14.4984 13.8165 11.2154 14.0876 10.6929 14.1385C10.0754 14.1978 10.0894 14.4152 10.3437 15.2058C10.8159 16.4031 11.3663 17.7048 12.4029 18.7213C12.6851 19.015 12.808 18.6508 12.9896 18.4474C13.1741 18.2498 16.7337 15.2312 17.6669 13.698C17.6948 13.6471 17.7256 13.6019 17.7451 13.5596L17.7563 13.2857C17.7228 13.2433 17.6893 13.1982 17.6641 13.1502L17.6697 13.1473ZM17.9351 11.775C17.3595 9.03034 17.0857 5.70683 17.0354 5.18162C16.9768 4.56322 16.7616 4.57452 15.9793 4.83148C14.7946 5.31151 13.5066 5.86778 12.5091 6.92103C12.2129 7.20622 12.5761 7.32482 12.7773 7.51118C12.9282 7.65519 14.736 9.82099 16.2559 11.2357L17.991 12.0376C17.9743 11.9614 17.9575 11.8738 17.9379 11.775H17.9351ZM18.4912 19.1618L18.3207 19.3172L18.1587 19.4725C18.0916 19.5318 17.9966 19.5261 17.9324 19.4612L17.7815 19.2974L17.6138 19.111L17.5523 19.0404L17.5077 18.9952V18.9275L17.516 18.8343L17.734 13.9916C16.2028 16.3042 14.1017 18.7778 13.772 19.1788C13.3752 19.656 13.5345 19.8028 14.2638 20.1869C15.4317 20.7008 16.7281 21.2373 18.1698 21.2203C18.5778 21.2288 18.4129 20.8871 18.3989 20.6132C18.3989 20.5201 18.4437 19.9525 18.4912 19.1647V19.1618ZM22.3302 5.55435C21.1623 5.03478 19.8658 4.5011 18.4241 4.52087C18.0162 4.51239 18.181 4.85689 18.195 5.13079C18.2034 5.40187 17.7731 10.0779 18.1782 11.8315C18.1894 11.8823 18.2034 11.9275 18.2145 11.9698C18.2257 11.967 18.2425 11.967 18.2564 11.967C18.29 11.9642 18.3235 11.9585 18.357 11.9585C18.4744 11.9585 18.5862 11.984 18.6895 12.0348C18.7259 11.9755 18.7678 11.9077 18.8153 11.8371C20.3464 9.49343 22.4922 6.96056 22.8275 6.55677C23.2243 6.07674 23.0623 5.93273 22.3302 5.55435ZM23.7524 18.3063C23.5596 18.1171 20.6175 14.4801 19.1114 13.5229C19.0165 13.4608 18.9354 13.4184 18.8684 13.3845L18.8069 14.8218C19.2372 17.366 19.4244 20.1021 19.4607 20.5794C19.5138 21.1978 19.7317 21.1893 20.5113 20.9408C21.7043 20.4805 23.0008 19.9412 24.015 18.9021C24.3112 18.6197 23.9536 18.4983 23.7524 18.3091V18.3063ZM26.2698 10.5693C25.8032 9.36919 25.2556 8.06746 24.2218 7.05092C23.9396 6.7516 23.8166 7.11304 23.635 7.31635C23.4506 7.51401 19.9525 10.4563 18.9689 11.9981L23.6462 11.1312L23.6993 11.1227L23.7775 11.1058L23.8949 11.1679L24.7359 11.6282L24.8477 11.6903C24.8896 11.7101 24.9343 11.7185 24.9846 11.7157C25.4428 11.6733 25.7781 11.6479 25.915 11.6366C26.5269 11.5773 26.5157 11.3599 26.2642 10.5693H26.2698ZM25.9625 12.865C25.9457 12.865 25.9094 12.865 25.8507 12.8565C25.806 12.8565 25.7418 12.8537 25.6719 12.8452C25.5099 12.8339 25.2807 12.817 25.0097 12.7944C24.965 12.7915 24.9175 12.7859 24.8728 12.7831C24.7387 12.7746 24.5906 12.7633 24.4341 12.7492H24.423C24.395 12.7464 24.3615 12.7464 24.3307 12.7407L24.2889 12.7859C24.2889 12.7859 24.2637 12.8057 24.2553 12.8141L24.205 12.865L24.1687 12.9017H24.1659L24.1072 12.961L24.029 12.9694H23.9703L19.212 13.328C19.2456 13.3535 19.2819 13.3789 19.321 13.4043C21.6177 14.9799 24.0961 17.1852 24.49 17.5241C24.9622 17.9279 25.1075 17.7726 25.4903 17.0384C26.0156 15.8637 26.566 14.562 26.5632 13.1021C26.58 12.6899 26.2391 12.8565 25.9681 12.8621L25.9625 12.865ZM25.9625 12.865C25.9457 12.865 25.9094 12.865 25.8507 12.8565C25.806 12.8565 25.7418 12.8537 25.6719 12.8452C25.5099 12.8339 25.2807 12.817 25.0097 12.7944C24.965 12.7915 24.9175 12.7859 24.8728 12.7831C24.7387 12.7746 24.5906 12.7633 24.4341 12.7492H24.423C24.395 12.7464 24.3615 12.7464 24.3307 12.7407L24.2889 12.7859C24.2889 12.7859 24.2637 12.8057 24.2553 12.8141L24.205 12.865L24.1687 12.9017H24.1659L24.1072 12.961L24.029 12.9694H23.9703L19.212 13.328C19.2456 13.3535 19.2819 13.3789 19.321 13.4043C21.6177 14.9799 24.0961 17.1852 24.49 17.5241C24.9622 17.9279 25.1075 17.7726 25.4903 17.0384C26.0156 15.8637 26.566 14.562 26.5632 13.1021C26.58 12.6899 26.2391 12.8565 25.9681 12.8621L25.9625 12.865ZM26.2698 10.5693C25.8032 9.36919 25.2556 8.06746 24.2218 7.05092C23.9396 6.7516 23.8166 7.11304 23.635 7.31635C23.4506 7.51401 19.9525 10.4563 18.9689 11.9981L23.6462 11.1312L23.6993 11.1227L23.7775 11.1058L23.8949 11.1679L24.7359 11.6282L24.8477 11.6903C24.8896 11.7101 24.9343 11.7185 24.9846 11.7157C25.4428 11.6733 25.7781 11.6479 25.915 11.6366C26.5269 11.5773 26.5157 11.3599 26.2642 10.5693H26.2698ZM23.7524 18.3063C23.5596 18.1171 20.6175 14.4801 19.1114 13.5229C19.0165 13.4608 18.9354 13.4184 18.8684 13.3845L18.8069 14.8218C19.2372 17.366 19.4244 20.1021 19.4607 20.5794C19.5138 21.1978 19.7317 21.1893 20.5113 20.9408C21.7043 20.4805 23.0008 19.9412 24.015 18.9021C24.3112 18.6197 23.9536 18.4983 23.7524 18.3091V18.3063ZM22.3302 5.55435C21.1623 5.03478 19.8658 4.5011 18.4241 4.52087C18.0162 4.51239 18.181 4.85689 18.195 5.13079C18.2034 5.40187 17.7731 10.0779 18.1782 11.8315C18.1894 11.8823 18.2034 11.9275 18.2145 11.9698C18.2257 11.967 18.2425 11.967 18.2564 11.967C18.29 11.9642 18.3235 11.9585 18.357 11.9585C18.4744 11.9585 18.5862 11.984 18.6895 12.0348C18.7259 11.9755 18.7678 11.9077 18.8153 11.8371C20.3464 9.49343 22.4922 6.96056 22.8275 6.55677C23.2243 6.07674 23.0623 5.93273 22.3302 5.55435ZM18.4912 19.1618L18.3207 19.3172L18.1587 19.4725C18.0916 19.5318 17.9966 19.5261 17.9324 19.4612L17.7815 19.2974L17.6138 19.111L17.5523 19.0404L17.5077 18.9952V18.9275L17.516 18.8343L17.734 13.9916C16.2028 16.3042 14.1017 18.7778 13.772 19.1788C13.3752 19.656 13.5345 19.8028 14.2638 20.1869C15.4317 20.7008 16.7281 21.2373 18.1698 21.2203C18.5778 21.2288 18.4129 20.8871 18.3989 20.6132C18.3989 20.5201 18.4437 19.9525 18.4912 19.1647V19.1618ZM17.9351 11.775C17.3595 9.03034 17.0857 5.70683 17.0354 5.18162C16.9768 4.56322 16.7616 4.57452 15.9793 4.83148C14.7946 5.31151 13.5066 5.86778 12.5091 6.92103C12.2129 7.20622 12.5761 7.32482 12.7773 7.51118C12.9282 7.65519 14.736 9.82099 16.2559 11.2357L17.991 12.0376C17.9743 11.9614 17.9575 11.8738 17.9379 11.775H17.9351ZM17.6697 13.1473C17.5579 13.1586 17.4015 13.1982 17.2143 13.2405C14.4984 13.8165 11.2154 14.0876 10.6929 14.1385C10.0754 14.1978 10.0894 14.4152 10.3437 15.2058C10.8159 16.4031 11.3663 17.7048 12.4029 18.7213C12.6851 19.015 12.808 18.6508 12.9896 18.4474C13.1741 18.2498 16.7337 15.2312 17.6669 13.698C17.6948 13.6471 17.7256 13.6019 17.7451 13.5596L17.7563 13.2857C17.7228 13.2433 17.6893 13.1982 17.6641 13.1502L17.6697 13.1473ZM12.1682 10.8121L12.1263 10.8008L12.1179 10.798L12.0984 10.7895L12.0732 10.7641L12.0452 10.7359L11.5814 10.2728L11.2573 9.94523C11.154 9.84358 11.2154 9.66851 11.3607 9.65439L11.8189 9.61768L12.5035 9.56403H12.5565L12.5761 9.5612H12.6013L12.6348 9.5725H12.6432L12.6935 9.59791L14.5934 10.4733C13.283 9.47932 12.238 8.59832 11.9866 8.39501C11.506 8.00251 11.3663 8.17193 10.9975 8.91457C10.5057 10.1034 9.99722 11.422 10.0391 12.8791C10.0363 13.2885 10.3716 13.1106 10.6426 13.1021C10.9136 13.0852 15.5462 13.4523 17.2729 13.0146C17.326 13.0033 17.3763 12.9892 17.4182 12.9779L12.1654 10.8206L12.1682 10.8121ZM12.1682 10.8121L12.1263 10.8008L12.1179 10.798C12.1011 10.7895 12.0844 10.7782 12.0732 10.7641L12.0452 10.7359L11.5814 10.2728L11.2573 9.94523C11.154 9.84358 11.2154 9.66851 11.3607 9.65439L11.8189 9.61768L12.5035 9.56403H12.5565L12.5761 9.5612C12.5957 9.5612 12.618 9.56403 12.6348 9.5725H12.6432L12.6935 9.59791L14.5934 10.4733C13.283 9.47932 12.238 8.59832 11.9866 8.39501C11.506 8.00251 11.3663 8.17193 10.9975 8.91457C10.5057 10.1034 9.99722 11.422 10.0391 12.8791C10.0363 13.2885 10.3716 13.1106 10.6426 13.1021C10.9136 13.0852 15.5462 13.4523 17.2729 13.0146C17.326 13.0033 17.3763 12.9892 17.4182 12.9779L12.1654 10.8206L12.1682 10.8121ZM17.6697 13.1473C17.5579 13.1586 17.4015 13.1982 17.2143 13.2405C14.4984 13.8165 11.2154 14.0876 10.6929 14.1385C10.0754 14.1978 10.0894 14.4152 10.3437 15.2058C10.8159 16.4031 11.3663 17.7048 12.4029 18.7213C12.6851 19.015 12.808 18.6508 12.9896 18.4474C13.1741 18.2498 16.7337 15.2312 17.6669 13.698C17.6948 13.6471 17.7256 13.6019 17.7451 13.5596L17.7563 13.2857C17.7228 13.2433 17.6893 13.1982 17.6641 13.1502L17.6697 13.1473ZM17.9351 11.775C17.3595 9.03034 17.0857 5.70683 17.0354 5.18162C16.9768 4.56322 16.7616 4.57452 15.9793 4.83148C14.7946 5.31151 13.5066 5.86778 12.5091 6.92103C12.2129 7.20622 12.5761 7.32482 12.7773 7.51118C12.9282 7.65519 14.736 9.82099 16.2559 11.2357L17.991 12.0376C17.9743 11.9614 17.9575 11.8738 17.9379 11.775H17.9351ZM18.4912 19.1618L18.3207 19.3172L18.1587 19.4725C18.0916 19.5318 17.9966 19.5261 17.9324 19.4612L17.7815 19.2974L17.6138 19.111L17.5523 19.0404L17.5077 18.9952V18.9275L17.516 18.8343L17.734 13.9916C16.2028 16.3042 14.1017 18.7778 13.772 19.1788C13.3752 19.656 13.5345 19.8028 14.2638 20.1869C15.4317 20.7008 16.7281 21.2373 18.1698 21.2203C18.5778 21.2288 18.4129 20.8871 18.3989 20.6132C18.3989 20.5201 18.4437 19.9525 18.4912 19.1647V19.1618ZM22.3302 5.55435C21.1623 5.03478 19.8658 4.5011 18.4241 4.52087C18.0162 4.51239 18.181 4.85689 18.195 5.13079C18.2034 5.40187 17.7731 10.0779 18.1782 11.8315C18.1894 11.8823 18.2034 11.9275 18.2145 11.9698C18.2257 11.967 18.2425 11.967 18.2564 11.967C18.29 11.9642 18.3235 11.9585 18.357 11.9585C18.4744 11.9585 18.5862 11.984 18.6895 12.0348C18.7259 11.9755 18.7678 11.9077 18.8153 11.8371C20.3464 9.49343 22.4922 6.96056 22.8275 6.55677C23.2243 6.07674 23.0623 5.93273 22.3302 5.55435ZM23.7524 18.3063C23.5596 18.1171 20.6175 14.4801 19.1114 13.5229C19.0165 13.4608 18.9354 13.4184 18.8684 13.3845L18.8069 14.8218C19.2372 17.366 19.4244 20.1021 19.4607 20.5794C19.5138 21.1978 19.7317 21.1893 20.5113 20.9408C21.7043 20.4805 23.0008 19.9412 24.015 18.9021C24.3112 18.6197 23.9536 18.4983 23.7524 18.3091V18.3063ZM26.2698 10.5693C25.8032 9.36919 25.2556 8.06746 24.2218 7.05092C23.9396 6.7516 23.8166 7.11304 23.635 7.31635C23.4506 7.51401 19.9525 10.4563 18.9689 11.9981L23.6462 11.1312L23.6993 11.1227L23.7775 11.1058L23.8949 11.1679L24.7359 11.6282L24.8477 11.6903C24.8896 11.7101 24.9343 11.7185 24.9846 11.7157C25.4428 11.6733 25.7781 11.6479 25.915 11.6366C26.5269 11.5773 26.5157 11.3599 26.2642 10.5693H26.2698ZM25.9625 12.865C25.9457 12.865 25.9094 12.865 25.8507 12.8565C25.806 12.8565 25.7418 12.8537 25.6719 12.8452C25.5099 12.8339 25.2807 12.817 25.0097 12.7944C24.965 12.7915 24.9175 12.7859 24.8728 12.7831C24.7387 12.7746 24.5906 12.7633 24.4341 12.7492H24.423C24.395 12.7464 24.3615 12.7464 24.3307 12.7407L24.2889 12.7859C24.2889 12.7859 24.2637 12.8057 24.2553 12.8141L24.205 12.865L24.1687 12.9017H24.1659L24.1072 12.961L24.029 12.9694H23.9703L19.212 13.328C19.2456 13.3535 19.2819 13.3789 19.321 13.4043C21.6177 14.9799 24.0961 17.1852 24.49 17.5241C24.9622 17.9279 25.1075 17.7726 25.4903 17.0384C26.0156 15.8637 26.566 14.562 26.5632 13.1021C26.58 12.6899 26.2391 12.8565 25.9681 12.8621L25.9625 12.865ZM26.2698 10.5693C25.8032 9.36919 25.2556 8.06746 24.2218 7.05092C23.9396 6.7516 23.8166 7.11304 23.635 7.31635C23.4506 7.51401 19.9525 10.4563 18.9689 11.9981L23.6462 11.1312L23.6993 11.1227C23.7496 11.1142 23.8027 11.1227 23.8502 11.1481L23.8949 11.1679L24.7359 11.6282L24.8477 11.6903C24.8896 11.7101 24.9343 11.7185 24.9846 11.7157C25.4428 11.6733 25.7781 11.6479 25.915 11.6366C26.5269 11.5773 26.5157 11.3599 26.2642 10.5693H26.2698ZM22.3302 5.55435C21.1623 5.03478 19.8658 4.5011 18.4241 4.52087C18.0162 4.51239 18.181 4.85689 18.195 5.13079C18.2034 5.40187 17.7731 10.0779 18.1782 11.8315C18.1894 11.8823 18.2034 11.9275 18.2145 11.9698C18.2257 11.967 18.2425 11.967 18.2564 11.967C18.29 11.9642 18.3235 11.9585 18.357 11.9585C18.4744 11.9585 18.5862 11.984 18.6895 12.0348C18.7259 11.9755 18.7678 11.9077 18.8153 11.8371C20.3464 9.49343 22.4922 6.96056 22.8275 6.55677C23.2243 6.07674 23.0623 5.93273 22.3302 5.55435ZM17.9351 11.775C17.3595 9.03034 17.0857 5.70683 17.0354 5.18162C16.9768 4.56322 16.7616 4.57452 15.9793 4.83148C14.7946 5.31151 13.5066 5.86778 12.5091 6.92103C12.2129 7.20622 12.5761 7.32482 12.7773 7.51118C12.9282 7.65519 14.736 9.82099 16.2559 11.2357L17.991 12.0376C17.9743 11.9614 17.9575 11.8738 17.9379 11.775H17.9351ZM17.6697 13.1473C17.5579 13.1586 17.4015 13.1982 17.2143 13.2405C14.4984 13.8165 11.2154 14.0876 10.6929 14.1385C10.0754 14.1978 10.0894 14.4152 10.3437 15.2058C10.8159 16.4031 11.3663 17.7048 12.4029 18.7213C12.6851 19.015 12.808 18.6508 12.9896 18.4474C13.1741 18.2498 16.7337 15.2312 17.6669 13.698C17.6948 13.6471 17.7256 13.6019 17.7451 13.5596L17.7563 13.2857C17.7228 13.2433 17.6893 13.1982 17.6641 13.1502L17.6697 13.1473ZM18.4912 19.1618L18.3207 19.3172L18.1587 19.4725C18.0916 19.5318 17.9966 19.5261 17.9324 19.4612L17.7815 19.2974L17.6138 19.111L17.5523 19.0404C17.5244 19.0122 17.5105 18.9698 17.5105 18.9275V18.8343L17.7312 13.9916C16.2 16.3042 14.0989 18.7778 13.7692 19.1788C13.3724 19.656 13.5317 19.8028 14.261 20.1869C15.4289 20.7008 16.7253 21.2373 18.1671 21.2203C18.575 21.2288 18.4101 20.8871 18.3962 20.6132C18.3962 20.5201 18.4409 19.9525 18.4884 19.1647L18.4912 19.1618ZM25.9625 12.865C25.9457 12.865 25.9094 12.865 25.8507 12.8565C25.806 12.8565 25.7418 12.8537 25.6719 12.8452C25.5099 12.8339 25.2807 12.817 25.0097 12.7944C24.965 12.7915 24.9175 12.7859 24.8728 12.7831C24.7387 12.7746 24.5906 12.7633 24.4341 12.7492H24.423C24.3783 12.7492 24.3308 12.7605 24.2889 12.7859C24.2777 12.7944 24.2637 12.8057 24.2553 12.8141L24.205 12.865L24.1687 12.9017H24.1659C24.1296 12.9384 24.0793 12.9638 24.029 12.9694H23.9703L19.212 13.328C19.2456 13.3535 19.2819 13.3789 19.321 13.4043C21.6177 14.9799 24.0961 17.1852 24.49 17.5241C24.9622 17.9279 25.1075 17.7726 25.4903 17.0384C26.0156 15.8637 26.566 14.562 26.5632 13.1021C26.58 12.6899 26.2391 12.8565 25.9681 12.8621L25.9625 12.865ZM23.7524 18.3063C23.5596 18.1171 20.6175 14.4801 19.1114 13.5229C19.0165 13.4608 18.9354 13.4184 18.8684 13.3845L18.8069 14.8218C19.2372 17.366 19.4244 20.1021 19.4607 20.5794C19.5138 21.1978 19.7317 21.1893 20.5113 20.9408C21.7043 20.4805 23.0008 19.9412 24.015 18.9021C24.3112 18.6197 23.9536 18.4983 23.7524 18.3091V18.3063Z" fill="#D12027"/>
<path d="M24.5571 11.9642L23.934 12.591L18.6951 12.9835C18.6476 13.057 18.5778 13.1134 18.4995 13.1445L18.2453 18.8682L18.0609 19.0376L17.8932 18.8512L18.1475 13.1163C18.0441 13.0541 17.9687 12.9468 17.9491 12.8169C17.9407 12.8 17.9352 12.7831 17.9324 12.7661L12.3079 10.4591L11.8469 9.99605L12.5314 9.93958L18.0469 12.4866C18.0469 12.4866 18.0553 12.4753 18.0609 12.4696C18.1279 12.4019 18.209 12.3623 18.3012 12.351C18.3179 12.351 18.3347 12.3482 18.3515 12.3482C18.4549 12.3482 18.5498 12.3877 18.6253 12.4583L23.7133 11.5124L24.5543 11.9698L24.5571 11.9642Z" fill="#D12027"/>
<path d="M48.6335 12.9523C48.4659 12.7829 48.2619 12.6982 48.0216 12.6982C47.7814 12.6982 47.5718 12.7829 47.4042 12.9523C47.2393 13.1189 47.1555 13.3279 47.1555 13.5707C47.1555 13.8136 47.2393 14.0225 47.4042 14.1919C47.5718 14.3614 47.7758 14.4461 48.0216 14.4461C48.2675 14.4461 48.4659 14.3614 48.6335 14.1919C48.804 14.0225 48.8878 13.8164 48.8878 13.5707C48.8878 13.325 48.804 13.1189 48.6335 12.9523ZM46.619 12.9523C46.4542 12.7829 46.2474 12.6982 46.0015 12.6982C45.7557 12.6982 45.5601 12.7829 45.3896 12.9523C45.222 13.1189 45.1354 13.3279 45.1354 13.5707C45.1354 13.8136 45.222 14.0225 45.3896 14.1919C45.5601 14.3614 45.764 14.4461 46.0015 14.4461C46.239 14.4461 46.4542 14.3614 46.619 14.1919C46.7839 14.0225 46.8677 13.8164 46.8677 13.5707C46.8677 13.325 46.7839 13.1189 46.619 12.9523Z" fill="#D12027"/>
<path d="M46.186 7.32193V9.73056C46.186 9.99599 46.1356 10.1965 46.0323 10.332C45.9289 10.4676 45.7585 10.5353 45.5238 10.5353H42.3301C42.3497 10.3772 42.3609 10.2162 42.3609 10.0525C42.3609 9.26747 42.1457 8.6519 41.7182 8.20293C41.2907 7.75396 40.6956 7.52806 39.9384 7.52806C39.1812 7.52806 38.5833 7.75396 38.153 8.20293C37.7227 8.6519 37.5104 9.26747 37.5104 10.0525C37.5104 10.1682 37.5243 10.3687 37.5551 10.6454C37.2785 10.716 37.0466 10.8205 36.8566 10.9561C36.6694 11.0916 36.5213 11.2582 36.4179 11.4559C36.3173 11.6535 36.2446 11.8625 36.1999 12.0827C36.158 12.3058 36.1357 12.5571 36.1357 12.8423V14.6325H37.7674V12.8423C37.7674 12.5825 37.8038 12.3877 37.8736 12.2663C37.9463 12.142 38.0887 12.0714 38.3067 12.0573C38.7146 12.4018 39.2566 12.5712 39.9384 12.5712C40.6201 12.5712 41.1622 12.4018 41.5702 12.0573H45.9121C46.5296 12.0573 47.0018 11.8766 47.3287 11.5095C47.6556 11.1452 47.8177 10.6172 47.8177 9.9254V7.32193H46.186ZM40.4972 10.7866C40.3631 10.9617 40.1759 11.0492 39.9384 11.0492C39.7009 11.0492 39.5109 10.9589 39.374 10.7838C39.2399 10.6087 39.17 10.3631 39.17 10.0525C39.17 9.74186 39.2399 9.49055 39.374 9.31548C39.5109 9.14041 39.6981 9.05287 39.9384 9.05287C40.1787 9.05287 40.3631 9.14041 40.4972 9.31548C40.6313 9.49055 40.6984 9.73621 40.6984 10.0525C40.6984 10.3687 40.6313 10.6116 40.4972 10.7866Z" fill="#D12027"/>
<path d="M55.8227 4.8257C55.655 4.65628 55.4511 4.57156 55.2108 4.57156C54.9705 4.57156 54.7637 4.65628 54.5961 4.8257C54.4284 4.99512 54.3446 5.20125 54.3446 5.44692C54.3446 5.69258 54.4284 5.89871 54.5961 6.06813C54.7637 6.23756 54.9677 6.32227 55.2108 6.32227C55.4538 6.32227 55.655 6.23756 55.8227 6.06813C55.9931 5.89871 56.0769 5.68976 56.0769 5.44692C56.0769 5.20408 55.9931 4.99512 55.8227 4.8257ZM53.8053 4.8257C53.6377 4.65628 53.4337 4.57156 53.1907 4.57156C52.9476 4.57156 52.7492 4.65628 52.5788 4.8257C52.4111 4.99512 52.3245 5.20125 52.3245 5.44692C52.3245 5.69258 52.4111 5.89871 52.5788 6.06813C52.7492 6.23756 52.9532 6.32227 53.1907 6.32227C53.4282 6.32227 53.6377 6.23756 53.8053 6.06813C53.973 5.89871 54.0568 5.68976 54.0568 5.44692C54.0568 5.20408 53.973 4.99512 53.8053 4.8257Z" fill="#D12027"/>
<path d="M55.018 7.32192V9.92539C55.018 10.6172 54.8531 11.1452 54.5262 11.5095C54.1993 11.8766 53.7299 12.0573 53.1124 12.0573H51.4052C51.1007 12.0573 50.8353 12.0291 50.6117 11.9726C50.3882 11.9161 50.2094 11.8399 50.0753 11.7439C49.9412 11.6479 49.8322 11.5264 49.7539 11.374C49.6729 11.2243 49.6198 11.069 49.5919 10.9137C49.564 10.7556 49.55 10.5692 49.55 10.3602V5.31708H51.1817V9.81526C51.1817 10.0892 51.2292 10.2755 51.327 10.38C51.4248 10.4845 51.5953 10.5353 51.8327 10.5353H52.6542C52.9224 10.5353 53.1124 10.4675 53.2214 10.3292C53.3304 10.1908 53.3862 9.98469 53.3862 9.71078V7.32192H55.018Z" fill="#D12027"/>
<path d="M62.4223 12.9523C62.2546 12.7829 62.0506 12.6982 61.8048 12.6982C61.5589 12.6982 61.3605 12.7829 61.1929 12.9523C61.0224 13.1189 60.9386 13.3279 60.9386 13.5707C60.9386 13.8136 61.0224 14.0225 61.1929 14.1919C61.3605 14.3614 61.5645 14.4461 61.8048 14.4461C62.045 14.4461 62.2546 14.3614 62.4223 14.1919C62.5871 14.0225 62.6709 13.8164 62.6709 13.5707C62.6709 13.325 62.5871 13.1189 62.4223 12.9523ZM64.4368 12.9523C64.2663 12.7829 64.0624 12.6982 63.8249 12.6982C63.5874 12.6982 63.3722 12.7829 63.2074 12.9523C63.0425 13.1189 62.9587 13.3279 62.9587 13.5707C62.9587 13.8136 63.0425 14.0225 63.2074 14.1919C63.3722 14.3614 63.579 14.4461 63.8249 14.4461C64.0708 14.4461 64.2663 14.3614 64.4368 14.1919C64.6044 14.0225 64.691 13.8164 64.691 13.5707C64.691 13.325 64.6044 13.1189 64.4368 12.9523Z" fill="#D12027"/>
<path d="M78.0383 10.5353C77.7365 10.1908 77.5857 9.82372 77.5857 9.43404C77.5857 9.17144 77.6667 8.95683 77.8259 8.79023C77.9852 8.62363 78.1864 8.53892 78.4322 8.53892C78.6418 8.53892 78.8067 8.59257 78.9296 8.69705C79.0525 8.80153 79.1364 8.93707 79.1783 9.10084H80.6452C80.6368 8.91448 80.606 8.73094 80.553 8.54739C80.5027 8.3695 80.4188 8.18313 80.3015 7.99395C80.1869 7.80476 80.0444 7.63816 79.874 7.49415C79.7063 7.35296 79.4828 7.23719 79.209 7.14683C78.938 7.05647 78.6306 7.01129 78.2925 7.01129C77.5549 7.01129 76.9793 7.22025 76.563 7.63816C76.1467 8.05889 75.94 8.5841 75.94 9.21662C75.94 9.67406 76.0433 10.1117 76.2529 10.5353H74.8782V9.81524C74.8782 9.44816 74.8335 9.11214 74.7385 8.81282C74.6435 8.51351 74.501 8.2509 74.3138 8.02501C74.1238 7.80193 73.8751 7.62686 73.565 7.50544C73.2549 7.38402 72.8944 7.3219 72.4865 7.3219C72.1009 7.3219 71.7321 7.36143 71.3828 7.44332C71.0308 7.52238 70.6396 7.64663 70.2121 7.81605V7.01129H68.5804V10.5353H64.5849C64.3055 10.5353 64.0764 10.4703 63.8947 10.3405C63.7103 10.2134 63.6209 9.99879 63.6209 9.69947V7.3219H61.9892V9.73053C61.9892 9.99596 61.9361 10.1964 61.8327 10.332C61.7321 10.4675 61.5617 10.5353 61.327 10.5353H60.4664V7.3219H58.8347V11.7156C58.8347 11.9669 58.7704 12.1646 58.6475 12.3029C58.5217 12.4413 58.3317 12.5119 58.0775 12.5119H57.9685V14.0339H58.1222C59.5667 14.0339 60.3407 13.376 60.4468 12.0573H61.7154C62.3915 12.0573 62.8889 11.8427 63.213 11.4106C63.3415 11.6224 63.5259 11.7834 63.7662 11.8935C63.9981 12.0008 64.2608 12.0545 64.5541 12.0545C64.5653 12.0545 64.5737 12.0545 64.5849 12.0545H81V10.5325H78.0383V10.5353ZM73.2465 10.5353H70.2121V9.39451C70.4943 9.2618 70.824 9.14602 71.1984 9.04155C71.5728 8.93707 71.8969 8.88624 72.168 8.88624C72.506 8.88624 72.7715 8.97942 72.9615 9.16861C73.1515 9.35498 73.2465 9.62041 73.2465 9.96772V10.5353Z" fill="#D12027"/>
<path d="M39.2119 21.096C39.2119 21.4461 39.1672 21.7652 39.0834 22.0504C38.9968 22.3384 38.8655 22.5812 38.6923 22.7874C38.519 22.9935 38.2983 23.1516 38.0357 23.2646C37.773 23.3775 37.4629 23.434 37.1052 23.434C36.9432 23.434 36.7839 23.4255 36.6274 23.4086C36.471 23.3916 36.3061 23.3634 36.1357 23.3239L36.2111 22.4768C36.2167 22.4033 36.2447 22.3412 36.2978 22.296C36.3508 22.2509 36.4235 22.2283 36.5157 22.2283C36.5632 22.2283 36.6246 22.2367 36.6945 22.2509C36.7643 22.2678 36.851 22.2735 36.9488 22.2735C37.0885 22.2735 37.2086 22.2537 37.312 22.2142C37.4154 22.1746 37.502 22.1097 37.569 22.0193C37.6361 21.929 37.6892 21.8104 37.7227 21.6664C37.7562 21.5223 37.773 21.3388 37.773 21.1242V17.1004H39.2119V21.0931V21.096Z" fill="#D12027"/>
<path d="M42.8107 22.2171C43.0035 22.2171 43.1767 22.186 43.3276 22.121C43.4785 22.0561 43.607 21.9629 43.7132 21.8443C43.8194 21.7229 43.8976 21.5761 43.9535 21.4038C44.0093 21.2316 44.0373 21.0339 44.0373 20.8137V17.1033H45.4735V20.8137C45.4735 21.1977 45.412 21.5507 45.289 21.8726C45.1661 22.1945 44.9901 22.4712 44.761 22.7027C44.5318 22.9343 44.2524 23.115 43.9227 23.2449C43.593 23.3748 43.2242 23.4369 42.8135 23.4369C42.4028 23.4369 42.0284 23.372 41.6987 23.2449C41.369 23.115 41.0896 22.9343 40.8604 22.7027C40.6313 22.4712 40.4553 22.1945 40.3324 21.8726C40.2094 21.5507 40.1479 21.1977 40.1479 20.8137V17.1033H41.5869V20.808C41.5869 21.0283 41.6149 21.2259 41.6707 21.3982C41.7266 21.5704 41.8048 21.7201 41.911 21.8415C42.0172 21.9629 42.1429 22.0561 42.2966 22.121C42.4475 22.186 42.6207 22.2171 42.8135 22.2171H42.8107Z" fill="#D12027"/>
<path d="M47.9825 23.3663H46.538V17.1033H47.9825V23.3663Z" fill="#D12027"/>
<path d="M53.2968 21.7455C53.3304 21.7455 53.3639 21.7511 53.4002 21.7652C53.4337 21.7793 53.4673 21.8019 53.498 21.833L54.068 22.4401C53.8193 22.7705 53.5064 23.019 53.1292 23.1856C52.7548 23.3522 52.3077 23.4369 51.7964 23.4369C51.327 23.4369 50.9051 23.355 50.5307 23.194C50.1563 23.0331 49.8406 22.81 49.5807 22.5248C49.3209 22.2396 49.1225 21.9008 48.9828 21.5111C48.8431 21.1186 48.7732 20.695 48.7732 20.2376C48.7732 19.7801 48.8515 19.3425 49.0107 18.95C49.17 18.5603 49.3907 18.2215 49.6757 17.9391C49.9607 17.6567 50.3016 17.4336 50.6983 17.2783C51.0951 17.123 51.5338 17.0411 52.0116 17.0411C52.2435 17.0411 52.4642 17.0609 52.6682 17.1033C52.8749 17.1456 53.0649 17.2021 53.2437 17.2755C53.4225 17.3489 53.5874 17.4365 53.7383 17.5381C53.8892 17.6398 54.0233 17.7527 54.1379 17.8741L53.6517 18.5321C53.621 18.5716 53.5846 18.6083 53.5399 18.6422C53.498 18.6761 53.4365 18.6902 53.3611 18.6902C53.3108 18.6902 53.2605 18.6789 53.2158 18.6563C53.1711 18.6337 53.1236 18.6055 53.0705 18.5716C53.0202 18.5377 52.9643 18.5038 52.9029 18.4643C52.8414 18.4248 52.7687 18.3909 52.6849 18.357C52.6011 18.3231 52.5033 18.2949 52.3916 18.2723C52.2798 18.2497 52.1485 18.2384 51.9976 18.2384C51.7377 18.2384 51.4975 18.2864 51.2823 18.3768C51.0672 18.4699 50.8828 18.6027 50.7263 18.7777C50.5698 18.9528 50.4525 19.1618 50.3659 19.4074C50.2792 19.6531 50.2345 19.9298 50.2345 20.2376C50.2345 20.5454 50.2792 20.8447 50.3659 21.0932C50.4525 21.3417 50.5698 21.5534 50.7179 21.7229C50.866 21.8951 51.0392 22.0222 51.2376 22.1125C51.436 22.2001 51.6483 22.2453 51.8747 22.2453C52.006 22.2453 52.1233 22.2396 52.2323 22.2255C52.3412 22.2114 52.4391 22.1916 52.5313 22.1577C52.6235 22.1267 52.7101 22.0843 52.7939 22.0363C52.8777 21.9883 52.9615 21.9233 53.0454 21.8499C53.0789 21.8217 53.118 21.7991 53.1571 21.7793C53.1962 21.7596 53.2381 21.7511 53.2801 21.7511L53.2968 21.7455Z" fill="#D12027"/>
<path d="M58.7089 17.1033V18.2215H56.1663V19.6842H58.1138V20.76H56.1663V22.2509H58.7089V23.3691H54.719V17.1061H58.7089V17.1033Z" fill="#D12027"/>
<path d="M65.669 17.1033V18.2554H63.9255V23.3663H62.4865V18.2554H60.743V17.1033H65.669Z" fill="#D12027"/>
<path d="M67.8372 23.3663H66.3926V17.1033H67.8372V23.3663Z" fill="#D12027"/>
<path d="M72.3188 20.8419C72.3719 20.9605 72.4222 21.0791 72.4697 21.2033C72.5172 21.0763 72.5703 20.9549 72.6234 20.8363C72.6765 20.7177 72.7324 20.6019 72.7882 20.4889L74.378 17.3207C74.406 17.2671 74.4367 17.2247 74.4647 17.1937C74.4926 17.1626 74.5289 17.14 74.5653 17.1259C74.6016 17.1118 74.6435 17.1033 74.691 17.1033H75.9511V23.3607H74.6826V19.7576C74.6826 19.5825 74.691 19.3933 74.7078 19.19L73.0648 22.4091C73.0146 22.5107 72.9447 22.5841 72.8581 22.6378C72.7715 22.6914 72.6737 22.714 72.5619 22.714H72.3663C72.2574 22.714 72.1568 22.6886 72.0701 22.6378C71.9835 22.587 71.9137 22.5107 71.8634 22.4091L70.2121 19.1844C70.2233 19.286 70.2317 19.3849 70.2373 19.4837C70.2428 19.5825 70.2456 19.6729 70.2456 19.7576V23.3607H68.9771V17.1033H70.2373C70.2848 17.1033 70.3267 17.1118 70.363 17.1259C70.3993 17.14 70.4328 17.1626 70.4636 17.1937C70.4943 17.2247 70.5223 17.2671 70.5502 17.3207L72.1456 20.5002C72.2015 20.6104 72.2574 20.7233 72.3105 20.8391L72.3188 20.8419Z" fill="#D12027"/>
<path d="M80.9637 17.1033V18.2215H78.4211V19.6842H80.3685V20.76H78.4211V22.2509H80.9637V23.3691H76.9737V17.1061H80.9637V17.1033Z" fill="#D12027"/>
</svg>
