<svg width="36" height="28" viewBox="0 0 36 28" fill="none" xmlns="http://www.w3.org/2000/svg">
<path d="M14.8728 19.7868C14.6004 18.4792 14.8728 17.5543 16.2049 17.1551C16.3728 17.1056 16.8902 17.1606 16.8324 16.8936C16.7663 16.5963 15.1536 15.82 14.7985 15.6769C15.0297 14.0748 14.8646 12.6598 13.7142 11.4569L13.3454 12.869C13.0839 13.1553 12.8114 13.571 12.3793 13.549C12.627 12.2084 12.2638 11.066 11.0693 10.3585C10.8436 10.2236 9.55285 9.61526 9.62441 10.108C9.63817 10.1988 10.7556 11.6413 10.1941 11.7652C10.106 11.7844 9.4923 11.099 9.28864 10.9779C8.54555 10.5292 7.57678 10.4769 6.85846 11.0137C5.9007 11.7321 7.03736 11.8643 7.53825 12.1891C7.86026 12.3983 7.48046 12.4011 7.29331 12.5194C6.26124 13.1718 5.26495 13.9564 5.42458 15.33C6.24748 15.0713 6.99607 14.851 7.87402 14.8841C7.98136 14.8896 8.20428 14.8152 8.18502 14.9722C6.38784 15.6356 5.41632 17.7002 5.24568 19.517C5.03927 19.7234 3.80354 18.8288 3.59437 18.6278C0.80916 15.9632 2.95587 11.3247 4.35673 8.46735C4.49434 8.32971 4.5136 8.48111 4.53011 8.60223C4.56039 8.80869 4.60442 9.96486 4.93193 9.89329C5.0833 9.86025 5.84016 8.90779 5.97776 8.71235C7.69238 6.25137 8.08319 2.93427 8.09695 0.00531879C8.15474 -0.0607478 8.81251 0.509077 8.90058 0.583402C13.0399 4.07392 21.5304 12.9544 16.5572 18.493C16.392 18.6774 15.027 19.9299 14.8673 19.7868H14.8728Z" fill="#CC2128"/>
<path d="M20.1267 19.6519C20.0524 19.2472 19.2956 19.4922 18.9708 19.4289V24.0178C18.9708 24.4087 18.6516 24.6289 18.2938 24.6785C17.6828 24.761 16.2654 24.7418 15.6269 24.6895C15.459 24.6757 15.2609 24.6619 15.115 24.5766C14.7297 24.3564 15.071 24.3481 15.1838 24.2408C15.5829 23.8581 16.4883 22.9139 16.6782 22.4267C16.8076 22.0963 16.1443 21.744 15.8581 21.6064C15.1095 21.243 14.1435 21.1246 13.3151 21.21C12.927 21.2485 11.3445 21.7192 11.2399 22.0716C11.2041 22.1899 11.1986 23.0323 11.2344 23.0681C11.2619 23.1011 11.8839 23.269 12.0546 23.3599C12.2307 23.4535 13.1527 24.0701 13.1802 24.1967C13.2298 24.4224 12.3903 24.6812 12.2472 24.6812H8.63911C8.65287 24.5738 8.818 24.3509 8.818 24.2793V21.2953H7.7474V23.7453C7.7474 23.7755 7.63181 24.2793 7.61254 24.3233C7.32907 24.9647 5.33649 24.5738 4.72 24.6812C4.81357 22.4845 3.23382 21.0723 1.06785 21.2953V22.3634C2.61182 22.2202 3.66591 23.0929 3.56408 24.6812H0V25.8401H12.1592C12.3188 25.8401 12.9793 25.6006 13.183 25.5263C13.3866 25.452 13.8132 25.1547 13.9591 25.1409C14.0169 25.1354 14.5838 25.5896 14.8178 25.6777C15.4783 25.9255 17.8011 25.9172 18.5745 25.8401C19.8102 25.7162 20.0552 24.9427 20.135 23.8333C20.2313 22.4762 20.0634 21.0173 20.135 19.6464L20.1267 19.6519ZM14.1848 23.693C13.6536 23.3186 13.2298 22.779 12.5555 22.6359C12.5142 22.4047 12.5885 22.4983 12.6821 22.4487C13.4967 22.0303 14.4958 22.1376 15.3159 22.457C15.4618 22.6552 14.4132 23.5994 14.1848 23.693Z" fill="#CC2128"/>
<path d="M33.5794 21.3008H32.4207V24.2848C32.4207 24.9097 30.1942 24.6262 29.7484 24.6867C29.9245 22.9883 29.33 21.0173 27.2494 21.3421C24.6898 21.7385 24.8632 25.5456 27.4888 25.8346C27.8521 25.8759 28.2264 25.8291 28.5897 25.8484C28.6447 26.476 27.5741 26.5146 27.5246 26.5641C27.4778 26.6109 27.5466 27.2936 27.5191 27.4533C28.5539 27.4918 29.6218 27.0018 29.6603 25.8539C30.9841 25.752 33.3235 26.3577 33.5767 24.4693C33.7033 23.5113 33.4803 22.2946 33.5767 21.3063L33.5794 21.3008ZM28.5897 24.6867C27.7668 24.7032 26.9714 24.8299 26.6494 23.9104C26.1925 22.6084 27.709 21.8183 28.364 22.7295C28.4053 22.7901 28.5897 23.1865 28.5897 23.2167V24.6867Z" fill="#CC2128"/>
<path d="M33.0812 13.5545C31.7326 13.3783 30.9675 14.4161 31.3501 15.6851H29.6575V13.5462H28.7658V15.9962C28.7658 16.0843 28.6254 16.4889 28.5511 16.5825C28.2264 17.0037 27.5658 16.6073 27.786 17.6451C28.6474 17.7057 29.3327 17.3616 29.7125 16.588C30.7419 16.4917 31.8923 16.6761 32.9078 16.5743C34.8096 16.3843 34.6967 13.7664 33.0812 13.5517V13.5545ZM32.8198 15.7842C31.9693 15.8365 31.9721 14.3253 32.7454 14.2867C33.6124 14.2454 33.5739 15.7374 32.8198 15.7842Z" fill="#CC2128"/>
<path d="M23.7788 15.2419H22.0422C22.0147 15.2419 21.5771 15.4291 21.544 15.4787C21.3266 15.8118 21.3872 16.5385 21.8826 16.6486C22.744 16.8386 23.2174 16.2054 23.066 17.6479C22.0615 17.7415 20.6551 17.568 20.49 16.3486C20.2863 14.8538 21.3211 14.1684 22.7082 14.35C22.7825 13.8958 22.3642 13.5187 21.9431 13.4636C21.7587 13.4389 21.3817 13.5655 21.3239 13.4636C21.2523 12.9847 21.123 12.6874 21.6817 12.6488C23.1321 12.5552 23.9027 13.9454 23.7761 15.2392L23.7788 15.2419Z" fill="#CC2128"/>
<path d="M25.9614 13.549C24.1202 13.3921 23.7046 15.9742 25.3752 16.5385L26.3605 16.6211C25.7743 16.9762 25.5293 16.7753 25.6504 17.6451C26.6219 17.6892 27.2412 17.3699 27.343 16.3513C27.4559 15.242 27.3788 13.6646 25.9642 13.5462L25.9614 13.549ZM26.033 15.6714C25.1798 15.9329 25.089 14.6226 25.6229 14.4574C26.4761 14.1959 26.5669 15.5062 26.033 15.6714Z" fill="#CC2128"/>
<path d="M35.7179 19.4289H34.5592V25.8456H35.7179V19.4289Z" fill="#CD2229"/>
<path d="M22.1744 19.4289V25.8456C21.9267 25.8071 21.1781 25.9392 21.0542 25.7631C20.8203 25.43 21.1423 20.3952 21.0267 19.5776C21.1175 19.3023 21.9212 19.4812 22.1716 19.4317L22.1744 19.4289Z" fill="#CC2229"/>
<path d="M34.3363 18.983C34.2125 18.9472 34.1629 18.7104 34.2097 18.5893C34.2675 18.4269 34.5097 18.4792 34.5482 18.4379C34.6308 18.3471 34.4051 17.6782 34.939 17.4469C35.4042 17.246 35.7482 17.4084 35.9849 17.8241C35.4592 18.1571 35.5748 17.8488 35.4812 17.8241C34.906 17.6782 34.873 18.3471 35.151 18.4352C35.5555 18.5645 36.0977 18.1681 35.9849 18.983C35.5555 18.9031 34.7023 19.0931 34.3363 18.983Z" fill="#CD262D"/>
<path d="M33.5794 26.8229V27.9818C32.6849 27.9625 32.2776 28.2433 32.418 27.1312C32.4868 26.5834 33.1528 26.9027 33.5794 26.8229Z" fill="#CE282F"/>
<path d="M8.81523 26.8228H7.74463V27.9818H8.81523V26.8228Z" fill="#CD2229"/>
<path d="M22.8019 15.597H21.9982V16.4009H22.8019V15.597Z" fill="#CE272E"/>
<path d="M33.1336 12.2992H32.33V13.103H33.1336V12.2992Z" fill="#CD242B"/>
</svg>
