<svg width="23" height="28" viewBox="0 0 23 28" fill="none" xmlns="http://www.w3.org/2000/svg">
<path d="M17.8681 27.9839C17.4827 26.1347 17.8681 24.8266 19.752 24.262C19.9894 24.192 20.7212 24.2698 20.6394 23.8922C20.546 23.4717 18.2651 22.3739 17.763 22.1714C18.0899 19.9056 17.8564 17.9045 16.2294 16.2032L15.7078 18.2004C15.3381 18.6053 14.9527 19.1931 14.3416 19.162C14.6919 17.266 14.1781 15.6503 12.4889 14.6498C12.1697 14.459 10.3442 13.5986 10.4454 14.2955C10.4648 14.424 12.0451 16.464 11.2511 16.6392C11.1265 16.6664 10.2585 15.697 9.9705 15.5257C8.91957 14.8912 7.54946 14.8172 6.53356 15.5764C5.17903 16.5925 6.78656 16.7793 7.49497 17.2387C7.95038 17.5346 7.41323 17.5385 7.14855 17.7059C5.68892 18.6286 4.27989 19.7382 4.50565 21.6809C5.66946 21.3149 6.72818 21.0035 7.96984 21.0502C8.12164 21.058 8.43692 20.9528 8.40967 21.1748C5.86797 22.113 4.49397 25.0329 4.25265 27.6024C3.96072 27.8944 2.21306 26.6291 1.91724 26.3449C-2.02182 22.5763 1.01421 16.0163 2.99542 11.9752C3.19004 11.7805 3.21728 11.9946 3.24064 12.1659C3.28345 12.4579 3.34573 14.0931 3.80892 13.9918C4.023 13.9451 5.09339 12.5981 5.28801 12.3217C7.71294 8.84115 8.26566 4.14987 8.28512 0.00752223C8.36686 -0.0859141 9.29713 0.719975 9.42168 0.82509C15.2758 5.76164 27.2837 18.321 20.2502 26.1541C20.0167 26.415 18.0861 28.1864 17.8603 27.9839H17.8681Z" fill="#CC2128"/>
</svg>
