<svg width="27" height="28" viewBox="0 0 27 28" fill="none" xmlns="http://www.w3.org/2000/svg">
<path d="M5.32395 18.6024C5.71806 18.9929 6.26376 18.9681 6.75158 18.8004C8.62566 18.1488 9.86861 14.6597 12.2498 16.6778C12.9636 16.1114 13.6058 15.9107 14.485 16.2462C15.7886 16.7383 16.7063 18.8361 18.2496 18.9214C18.7733 18.9516 19.4237 18.4952 19.5064 17.9673C19.5725 17.5439 19.2666 17.0655 19.6442 16.8593C20.1072 16.7301 20.358 17.6209 20.3718 17.9728C20.4242 19.4575 18.9194 20.2933 17.6516 20.5325C15.8767 20.868 13.5589 20.813 12.2498 19.408C11.9659 19.705 11.6214 20.0101 11.2549 20.1944C9.53514 21.0604 5.28815 20.901 4.38693 18.8801C4.14716 18.344 4.10582 17.5659 4.48614 17.082C4.64048 16.884 4.9767 16.7686 5.05662 17.0518C5.08418 17.148 4.94639 17.6869 4.99324 17.9646C5.01805 18.1213 5.21646 18.4925 5.32395 18.6024Z" fill="black"/>
<path d="M21.3777 18.2423C21.2454 18.245 21.2096 18.2863 21.2289 18.1323C21.3392 17.2387 21.623 16.4689 22.0364 15.6825C22.3892 15.0089 23.238 14.0824 22.9652 13.285C22.7916 12.7791 21.2041 11.7426 20.6998 11.4374C19.8068 10.8958 17.4587 9.52931 16.5079 9.51556C15.8602 9.50731 14.8763 9.96372 14.2011 10.1149C13.1924 10.3431 12.3573 10.4036 11.3266 10.2497C9.17964 9.93073 6.53389 8.578 5.93583 11.7921C5.54172 13.9174 5.81732 16.2984 6.37955 18.366L6.25826 18.5502C6.16732 18.575 5.70433 18.366 5.62992 18.2973C5.18069 17.8903 4.81688 14.6735 4.75349 13.9422C4.6653 12.9111 5.05941 11.0553 3.27352 12.0808C2.66168 12.4327 2.43569 13.1283 2.34474 13.7882C2.30065 14.1044 2.48253 14.8742 1.85141 14.668C1.32225 14.4948 1.68606 12.8204 1.96717 12.4052C2.86287 11.0882 5.04288 10.5219 6.03505 8.78972C6.29411 8.33881 6.39607 7.49473 7.15949 7.82191C7.25595 7.86315 7.77959 8.39654 7.99181 8.54226C10.4888 10.2304 14.5484 10.1919 16.9874 8.40204C17.4036 8.09686 17.4504 7.65695 18.1201 7.81641C18.6024 7.92914 19.1316 8.81721 19.4734 9.18013C19.9887 9.72452 20.5923 10.3459 21.1435 10.8463C21.7085 11.3577 23.5302 12.5784 23.6735 13.2026C23.7534 13.5435 23.6928 13.7277 23.566 14.0356C22.9955 15.4323 21.5238 16.6448 21.375 18.245L21.3777 18.2423Z" fill="black"/>
<path d="M10.8746 1.99041C12.9361 1.89418 16.3866 2.25161 18.0623 3.53009C18.5308 3.88752 19.33 4.6876 18.4922 5.09727C17.9961 5.33922 17.1611 4.75909 16.6209 4.58038C13.8263 3.65382 9.1025 3.4861 6.54492 5.11376C6.02955 5.44095 5.43426 6.22454 4.7232 5.98809C4.27397 5.83962 5.02635 4.61062 5.1862 4.37967C6.46223 2.53755 8.76625 2.09214 10.8718 1.99316L10.8746 1.99041Z" fill="black"/>
<path d="M12.9774 12.6499C13.6802 9.35883 18.6548 9.97471 18.3461 13.395C18.1119 16.0097 14.496 16.6861 13.2971 14.404C12.9637 13.7689 13.1952 13.0981 12.2526 13.1201C11.3762 13.1421 11.6022 13.494 11.3927 14.0494C10.464 16.5101 6.80124 16.2929 6.24728 13.7607C5.59687 10.783 9.41667 9.24886 11.0785 11.5776C11.3073 11.8993 11.3624 12.309 11.5884 12.6197L12.9774 12.6472V12.6499ZM16.2323 11.124C15.6232 11.2037 14.6724 12.3337 14.3996 12.8671C13.9145 13.8212 13.6775 14.6927 14.8874 15.1436C16.7256 15.8255 18.4785 13.9174 17.5855 12.1413C17.3761 11.7261 16.7201 11.058 16.2323 11.1212V11.124ZM9.47456 11.2065C8.86273 11.3274 8.0056 12.4217 7.74378 12.9716C7.30833 13.8899 7.00242 14.8275 8.23436 15.1986C10.0864 15.7568 11.6876 13.7882 10.7534 12.067C10.5274 11.6491 9.98442 11.1075 9.47456 11.2092V11.2065Z" fill="black"/>
<path d="M4.34834 6.71386C4.39795 6.76335 4.44204 6.90083 4.44204 6.97231C4.44204 7.16477 3.72547 8.31954 3.57665 8.65772C3.34239 9.18561 3.35618 9.56228 2.96758 10.0654C1.9451 11.3797 0.765535 12.0505 0.873019 13.9421C1.14862 18.7316 5.83107 25.443 10.1938 27.4254C10.4722 27.5518 11.2632 27.6123 10.847 28C7.79334 27.2137 5.44798 24.7859 3.68138 22.2977C2.10494 20.0734 -0.232168 16.007 0.0186289 13.2465C0.164697 11.6299 1.8018 10.959 2.56521 9.74375C3.06681 8.94641 3.09985 8.21781 3.3975 7.39573C3.51601 7.06854 3.8936 6.26571 4.34834 6.71662V6.71386Z" fill="black"/>
<path d="M25.4676 12.1467C25.7653 12.4519 26.2476 13.109 26.2448 13.5407C26.2338 14.6432 24.3652 16.3341 23.7231 17.2882C23.1388 18.157 22.7226 19.1413 22.3947 20.1338L22.1549 20.1806C22.2514 19.5537 22.4581 18.9488 22.7089 18.3715C23.2518 17.1315 24.2687 15.9327 24.7566 14.7559C25.068 14.0026 25.0597 13.1448 24.5609 12.4712C23.8526 11.5089 22.4222 10.4366 21.5679 9.48803C21.2041 9.08386 20.8651 8.63021 20.5233 8.20404C20.2973 7.9236 19.2335 6.65336 19.1646 6.4609C19.0103 6.03474 19.3245 5.77904 19.7103 5.9935C20.7907 7.38746 21.6919 8.95464 23.0037 10.1451C23.7423 10.816 24.7841 11.4511 25.4621 12.1467H25.4676Z" fill="black"/>
<path d="M17.726 2.43301L15.6039 1.0253C14.2975 0.373682 12.575 0.219718 11.1612 0.574395C11.0537 0.601889 10.9187 0.574394 10.8884 0.728363C12.801 0.88508 14.5401 1.66867 16.326 2.27904L16.202 2.499C13.7574 1.85288 10.9903 1.37173 8.49613 2.02334C8.14888 2.11408 7.21736 2.57599 7.03547 2.58698C6.476 2.62273 6.88938 1.75665 7.11813 1.50095C7.76855 0.772353 8.24535 0.923571 9.02806 0.692619C9.62611 0.516655 10.1498 0.244464 10.7947 0.128988C13.1345 -0.286177 15.998 0.277453 17.5689 2.16082C17.6406 2.2488 17.7564 2.28729 17.7233 2.43301H17.726Z" fill="black"/>
<path d="M15.32 23.2023C15.5515 23.425 14.4436 23.9226 14.2865 23.9914C12.3325 24.8299 10.4942 24.6265 8.79654 23.359C8.76898 23.5102 8.81581 23.5679 8.90951 23.6697C9.24299 24.0326 10.2131 24.5715 10.6844 24.7667C10.971 24.8849 11.3183 24.8409 11.514 25.1021C11.5112 25.4898 10.1139 24.9069 9.93753 24.8162C8.88198 24.2855 7.98901 23.1748 7.36615 22.1877C7.24765 22.0035 6.64683 21.088 6.77636 20.956L7.77956 21.077C9.16583 22.7816 11.1474 24.2636 13.4845 23.8126C14.1267 23.6889 14.6916 23.293 15.32 23.2023Z" fill="black"/>
<path d="M13.107 21.0302L13.1841 21.1842C12.6219 21.4646 12.6578 21.6626 12.4538 22.1602C12.418 22.251 12.4951 22.273 12.3298 22.273C11.9301 22.2675 12.0652 21.6928 11.7097 21.4151C11.5526 21.2914 11.2907 21.3492 11.3596 21.0302H13.107Z" fill="black"/>
</svg>
