<svg width="78" height="28" viewBox="0 0 78 28" fill="none" xmlns="http://www.w3.org/2000/svg">
<path d="M58.5398 11.6959C58.6583 11.6794 59.3418 11.4842 59.3804 11.4319C59.5237 11.2092 59.4383 10.2139 59.2123 10.1727C58.8898 10.1864 58.5922 10.3212 58.267 10.3267C56.459 10.3679 53.7499 10.5136 52.0301 10.3212C51.2805 10.2359 50.5887 9.80701 50.9828 9.00692L54.516 5.77359L54.9928 5.65811L55.5027 6.73864L53.2069 8.80347H59.5099C59.5843 8.80347 59.7387 8.60551 60.0308 8.68249C61.2104 9.5898 61.8636 11.7729 60.3698 12.6829C59.6284 13.1338 58.8154 13.0431 57.9914 13.2108L43.0951 13.2053V5.91381L44.8948 5.77634V11.6904H47.1106V8.11336L48.7091 7.8714L48.9103 8.04462V11.6904H58.5371L58.5398 11.6959Z" fill="black"/>
<path d="M35.0641 11.6959H37.2799C34.896 8.37184 38.8757 6.74968 41.6978 7.99517L41.5573 12.9194C38.9225 13.4226 36.2106 13.1339 33.5373 13.2109V12.5235C30.5305 14.4838 28.2733 10.8876 31.5971 9.01247C31.9168 8.831 33.0191 8.44333 33.1294 8.3306C33.3195 8.13264 33.19 7.80821 33.3444 7.69273C33.4987 7.57726 34.8739 7.40404 35.0613 7.64049V11.6987L35.0641 11.6959ZM39.7741 11.6959V9.56235C39.7741 9.49362 39.9946 9.27366 39.9119 9.0812C37.5362 8.70728 37.9634 11.2395 39.7741 11.6932V11.6959ZM31.7734 11.5254C32.0105 11.7619 32.9062 11.7949 33.1377 11.5035C33.4243 11.1433 33.1873 10.115 33.2617 9.63383C32.8951 9.82629 31.9608 10.0655 31.7293 10.3789C31.5309 10.6484 31.5475 11.3027 31.7734 11.5254Z" fill="black"/>
<path d="M64.705 5.91668L66.6425 5.77921C66.6948 5.92767 66.5047 6.07889 66.5047 6.12288V11.6932H68.8583L68.7398 8.13547L70.5202 7.84128V12.5868C70.5202 12.6143 70.6525 12.6885 70.6001 12.7958C70.5037 12.8892 70.3796 12.969 70.2501 13.0075C70.104 13.0487 69.0512 13.2054 68.9272 13.2054H64.9117L64.705 12.9992V5.91392V5.91668Z" fill="black"/>
<path d="M73.8467 5.77915V11.6932H76.0625V8.11617L77.661 7.87422L77.8622 8.04743V12.9304C75.9523 13.3319 73.9873 13.1779 72.0443 13.2054V5.91387L73.8439 5.7764L73.8467 5.77915Z" fill="black"/>
<path d="M50.1615 17.9536L49.4698 17.4725C51.3191 17.1343 51.1206 18.3028 51.2006 19.672C52.11 18.806 52.8459 17.2113 54.3176 17.4725L53.2786 18.0224L51.8344 19.7243C52.3002 20.1477 54.1715 22.3033 54.6676 22.273L56.8283 17.4917H57.2114C57.4043 17.6155 58.5949 21.1018 59 21.6984C59.2233 22.0283 59.4107 22.1328 59.7194 22.3582C58.6638 22.6552 57.9555 22.0888 57.7626 21.0688C57.6909 21.022 56.2578 21.0165 56.0429 21.044C55.307 21.1347 55.4283 22.2043 55.1224 22.3995C55.0369 22.4545 54.1881 22.548 54.0117 22.537C52.7797 22.4435 52.088 20.9918 51.1317 20.3649V22.427H50.1615V17.9564V17.9536ZM57.5008 20.6371L56.7401 18.85L55.9795 20.6371H57.5008Z" fill="black"/>
<path d="M63.5971 20.7746V17.4726H64.0132V22.5618C63.7817 22.6113 63.7321 22.4875 63.5998 22.3528C62.8144 21.5527 62.1061 20.3705 61.3151 19.5346L60.5517 18.8473V22.4243H60.1355V17.9537L59.4438 17.4726C61.4777 17.1481 62.197 19.7601 63.5971 20.7746Z" fill="black"/>
<path d="M33.1955 17.4725C34.2897 17.654 34.8188 18.8225 34.2759 19.7738C33.9479 20.3484 32.6361 20.5629 32.0187 20.4996V22.4242H31.0486V17.9536C31.0486 17.7859 30.3486 17.7364 30.3569 17.4725C31.2222 17.5715 32.3687 17.335 33.1955 17.4725ZM32.016 20.0872C32.4817 20.1202 32.9282 20.1037 33.2727 19.7545C33.7192 18.7317 33.2562 17.4477 32.016 17.8877V20.09V20.0872Z" fill="black"/>
<path d="M40.6037 20.4996V22.4242H39.6336V17.9537L39.0796 17.7447V17.4725H41.7805C42.0203 17.4725 42.7313 17.9262 42.8774 18.1709C43.831 19.76 42.012 20.6811 40.6037 20.4996ZM40.6037 17.8849V20.0872C42.6762 20.4309 42.5853 17.324 40.6037 17.8849Z" fill="black"/>
<path d="M47.8079 22.152C48.0174 22.339 47.7886 22.405 47.6012 22.427C46.0992 22.6194 46 21.0963 45.7767 21.044H43.8861C43.5774 21.1182 43.5581 22.6579 42.8223 22.4242L44.9003 17.4725C45.0519 17.467 45.1814 17.4478 45.3192 17.5357C45.6279 17.7282 46.7854 21.3052 47.1823 21.8743L47.8051 22.152H47.8079ZM45.5893 20.6371C45.6665 20.5684 44.9113 18.7372 44.7598 18.85L44.0652 20.6371H45.5866H45.5893Z" fill="black"/>
<path d="M75.492 17.489C75.685 17.61 76.8673 21.0853 77.2807 21.6957C77.5232 22.0531 77.7657 22.1163 78 22.4243C76.8232 22.6085 76.2996 22.0943 75.9771 21.0413L74.0727 21.0688C73.6703 21.2062 73.7172 22.625 73.0172 22.4243L75.109 17.489H75.492ZM75.7842 20.6344L75.0235 18.8472C74.8113 19.0534 74.1526 20.5299 74.2628 20.6344H75.7869H75.7842Z" fill="black"/>
<path d="M36.7122 17.489C36.9051 17.6127 38.0957 21.099 38.5008 21.6957C38.7434 22.0531 38.9859 22.1163 39.2202 22.4243C38.1977 22.5865 37.4646 22.0558 37.2634 21.0688L35.1991 21.1128C35.0393 21.22 34.6893 22.8449 34.2373 22.4243L36.3291 17.489H36.7122ZM37.0016 20.6371L36.2409 18.85L35.4803 20.6371H37.0016Z" fill="black"/>
<path d="M69.6906 22.4242C68.5166 22.614 68.0921 21.9871 67.6595 21.044L65.6613 21.1348C65.5484 21.286 65.146 22.8394 64.7078 22.4242C64.5121 22.24 66.8244 18.1516 66.7858 17.4725L67.2626 17.6155C68.0867 19.1634 68.3567 21.2475 69.6906 22.4242ZM67.4748 20.6371C67.552 20.5684 66.7968 18.7345 66.6452 18.85L65.9507 20.6371H67.472H67.4748Z" fill="black"/>
<path d="M72.9455 17.4725C73.3479 17.5852 73.3231 18.3661 73.29 18.7097C72.7608 18.773 73.2128 18.0829 72.6395 17.9124C72.2041 17.7832 71.5454 17.9454 71.0741 17.8849V19.6748H72.7388V20.0872H71.0769V22.427H70.1068V17.9564L69.5528 17.7474V17.4753H72.9455V17.4725Z" fill="black"/>
<path d="M39.0383 5.5317C40.4025 5.11379 40.5679 7.2556 39.3056 7.12088C38.5202 7.0384 38.2584 5.77091 39.0383 5.5317Z" fill="black"/>
<path d="M47.7721 5.66646C48.9406 5.463 49.1721 7.11266 48.1221 7.27213C47.1823 7.4151 46.8267 5.82868 47.7721 5.66646Z" fill="black"/>
<path d="M31.0817 5.81211C31.903 4.99828 33.0412 6.40324 32.2392 7.03011C31.3517 7.72572 30.445 6.44448 31.0817 5.81211Z" fill="black"/>
<path d="M68.8941 15.2399C68.2492 14.5993 69.2524 13.4088 70.0517 14.0219C70.9667 14.723 69.6631 16.0015 68.8941 15.2399Z" fill="black"/>
<path d="M76.5806 13.9202C77.9338 13.6398 77.9724 15.8531 76.4346 15.3802C75.7814 15.1795 75.82 14.0769 76.5806 13.9202Z" fill="black"/>
<path d="M33.3637 5.38871C34.4082 5.22924 34.6176 6.95864 33.4574 7.01913C32.5727 7.06587 32.3577 5.53993 33.3637 5.38871Z" fill="black"/>
<path d="M5.32395 18.6025C5.71805 18.9929 6.26376 18.9682 6.75157 18.8004C8.62566 18.1488 9.86861 14.6598 12.2498 16.6779C12.9636 16.1115 13.6058 15.9108 14.485 16.2462C15.7885 16.7384 16.7063 18.8362 18.2496 18.9214C18.7733 18.9517 19.4237 18.4953 19.5064 17.9674C19.5725 17.544 19.2666 17.0656 19.6442 16.8593C20.1072 16.7301 20.358 17.6209 20.3718 17.9729C20.4242 19.4576 18.9194 20.2934 17.6516 20.5326C15.8767 20.868 13.5589 20.813 12.2498 19.4081C11.9659 19.705 11.6214 20.0102 11.2549 20.1944C9.53513 21.0605 5.28814 20.901 4.38693 18.8802C4.14716 18.344 4.10581 17.5659 4.48614 17.082C4.64048 16.8841 4.9767 16.7686 5.05662 17.0518C5.08418 17.148 4.94639 17.6869 4.99324 17.9646C5.01804 18.1213 5.21646 18.4925 5.32395 18.6025Z" fill="black"/>
<path d="M21.3777 18.2423C21.2454 18.2451 21.2096 18.2863 21.2289 18.1323C21.3392 17.2388 21.623 16.4689 22.0364 15.6826C22.3892 15.009 23.238 14.0824 22.9652 13.2851C22.7915 12.7792 21.2041 11.7427 20.6997 11.4375C19.8068 10.8958 17.4587 9.52936 16.5079 9.51562C15.8602 9.50737 14.8763 9.96377 14.2011 10.115C13.1924 10.3432 12.3573 10.4037 11.3266 10.2497C9.17962 9.93078 6.53387 8.57806 5.93581 11.7921C5.54171 13.9175 5.8173 16.2985 6.37953 18.366L6.25825 18.5503C6.1673 18.575 5.70431 18.366 5.6299 18.2973C5.18067 17.8904 4.81686 14.6736 4.75348 13.9422C4.66528 12.9112 5.05939 11.0553 3.2735 12.0808C2.66167 12.4328 2.43567 13.1284 2.34473 13.7882C2.30063 14.1044 2.48252 14.8743 1.85139 14.6681C1.32224 14.4948 1.68604 12.8204 1.96715 12.4053C2.86286 11.0883 5.04286 10.5219 6.03503 8.78977C6.29409 8.33886 6.39605 7.49478 7.15947 7.82196C7.25593 7.8632 7.77957 8.39659 7.99179 8.54231C10.4887 10.2305 14.5483 10.192 16.9874 8.4021C17.4036 8.09691 17.4504 7.657 18.1201 7.81647C18.6024 7.92919 19.1316 8.81726 19.4733 9.18018C19.9887 9.72457 20.5923 10.3459 21.1435 10.8463C21.7084 11.3577 23.5302 12.5785 23.6735 13.2026C23.7534 13.5435 23.6928 13.7278 23.566 14.0357C22.9955 15.4324 21.5238 16.6449 21.375 18.2451L21.3777 18.2423Z" fill="black"/>
<path d="M10.8746 1.99047C12.9361 1.89424 16.3866 2.25167 18.0623 3.53016C18.5308 3.88758 19.33 4.68766 18.4922 5.09733C17.9961 5.33928 17.1611 4.75916 16.6209 4.58044C13.8263 3.65388 9.10247 3.48616 6.54489 5.11383C6.02952 5.44101 5.43422 6.2246 4.72317 5.98815C4.27394 5.83968 5.02632 4.61068 5.18616 4.37973C6.4622 2.53761 8.76622 2.0922 10.8718 1.99322L10.8746 1.99047Z" fill="black"/>
<path d="M12.9774 12.65C13.6802 9.3589 18.6548 9.97477 18.3461 13.3951C18.1119 16.0098 14.496 16.6861 13.2971 14.4041C12.9636 13.769 13.1951 13.0981 12.2526 13.1201C11.3762 13.1421 11.6022 13.494 11.3927 14.0494C10.4639 16.5102 6.80122 16.293 6.24726 13.7607C5.59684 10.7831 9.41665 9.24892 11.0785 11.5777C11.3073 11.8994 11.3624 12.309 11.5884 12.6197L12.9774 12.6472V12.65ZM16.2323 11.124C15.6232 11.2038 14.6724 12.3338 14.3995 12.8672C13.9145 13.8212 13.6775 14.6928 14.8873 15.1437C16.7256 15.8256 18.4784 13.9175 17.5855 12.1413C17.376 11.7262 16.7201 11.058 16.2323 11.1213V11.124ZM9.47454 11.2065C8.86271 11.3275 8.00558 12.4218 7.74376 12.9717C7.30831 13.89 7.0024 14.8275 8.23434 15.1987C10.0864 15.7568 11.6876 13.7882 10.7533 12.0671C10.5273 11.6492 9.9844 11.1075 9.47454 11.2093V11.2065Z" fill="black"/>
<path d="M4.34834 6.71392C4.39795 6.76341 4.44204 6.90089 4.44204 6.97237C4.44204 7.16483 3.72547 8.3196 3.57665 8.65778C3.34239 9.18567 3.35618 9.56234 2.96758 10.0655C1.9451 11.3797 0.765535 12.0506 0.873019 13.9422C1.14862 18.7317 5.83107 25.4431 10.1938 27.4254C10.4722 27.5519 11.2632 27.6124 10.847 28.0001C7.79334 27.2137 5.44798 24.786 3.68138 22.2977C2.10494 20.0734 -0.232168 16.007 0.0186289 13.2466C0.164697 11.6299 1.8018 10.9591 2.56521 9.74381C3.06681 8.94647 3.09985 8.21787 3.3975 7.39579C3.51601 7.0686 3.8936 6.26577 4.34834 6.71668V6.71392Z" fill="black"/>
<path d="M25.4676 12.1468C25.7653 12.452 26.2476 13.1091 26.2448 13.5407C26.2338 14.6433 24.3652 16.3342 23.7231 17.2882C23.1388 18.157 22.7227 19.1413 22.3947 20.1339L22.1549 20.1806C22.2514 19.5538 22.4581 18.9489 22.7089 18.3715C23.2518 17.1315 24.2688 15.9328 24.7566 14.756C25.068 14.0026 25.0597 13.1448 24.5609 12.4712C23.8526 11.5089 22.4222 10.4366 21.5679 9.48808C21.2041 9.08391 20.8651 8.63026 20.5233 8.20409C20.2974 7.92365 19.2336 6.65341 19.1647 6.46095C19.0103 6.03479 19.3245 5.77909 19.7103 5.99355C20.7907 7.38751 21.6919 8.95469 23.0038 10.1452C23.7424 10.8161 24.7841 11.4512 25.4621 12.1468H25.4676Z" fill="black"/>
<path d="M17.726 2.43304L15.6039 1.02533C14.2975 0.373712 12.575 0.219748 11.1612 0.574425C11.0537 0.60192 10.9187 0.574425 10.8883 0.728393C12.801 0.885111 14.5401 1.6687 16.326 2.27907L16.2019 2.49903C13.7574 1.85291 10.9903 1.37176 8.49612 2.02338C8.14886 2.11411 7.21735 2.57602 7.03545 2.58701C6.47598 2.62276 6.88936 1.75668 7.11811 1.50098C7.76853 0.772383 8.24533 0.923602 9.02804 0.692649C9.6261 0.516685 10.1497 0.244495 10.7947 0.129018C13.1345 -0.286147 15.998 0.277483 17.5689 2.16085C17.6406 2.24883 17.7563 2.28732 17.7233 2.43304H17.726Z" fill="black"/>
<path d="M15.32 23.2023C15.5515 23.425 14.4436 23.9227 14.2865 23.9914C12.3325 24.83 10.4942 24.6265 8.79654 23.359C8.76898 23.5102 8.81581 23.568 8.90951 23.6697C9.24299 24.0326 10.2131 24.5715 10.6844 24.7667C10.971 24.885 11.3183 24.841 11.514 25.1022C11.5112 25.4898 10.1139 24.907 9.93753 24.8162C8.88198 24.2856 7.98901 23.1748 7.36615 22.1878C7.24765 22.0036 6.64683 21.088 6.77636 20.956L7.77956 21.077C9.16583 22.7816 11.1474 24.2636 13.4845 23.8127C14.1267 23.689 14.6916 23.293 15.32 23.2023Z" fill="black"/>
<path d="M13.107 21.0303L13.1841 21.1842C12.6219 21.4647 12.6577 21.6626 12.4538 22.1603C12.418 22.251 12.4951 22.273 12.3298 22.273C11.9301 22.2675 12.0652 21.6929 11.7097 21.4152C11.5526 21.2915 11.2907 21.3492 11.3596 21.0303H13.107Z" fill="black"/>
</svg>
